<?xml version="1.0" encoding="UTF-8"?>
<svg width="320px" height="380px" version="1.1" viewBox="0 0 158.18 189.8" xmlns="http://www.w3.org/2000/svg" xmlns:cc="http://creativecommons.org/ns#" xmlns:dc="http://purl.org/dc/elements/1.1/" xmlns:rdf="http://www.w3.org/1999/02/22-rdf-syntax-ns#">
 <metadata>
  <rdf:RDF>
   <cc:Work rdf:about="">
    <dc:format>image/svg+xml</dc:format>
    <dc:type rdf:resource="http://purl.org/dc/dcmitype/StillImage"/>
    <dc:title/>
   </cc:Work>
  </rdf:RDF>
 </metadata>
 <ellipse cx="79.052" cy="93.977" rx="70.493" ry="84.448" fill="#fff"/>
 <g transform="matrix(.64629 0 0 .64629 -15.803 .0019389)">
  <path d="m269.21 146.83c0-6.826-5.325-11.003-11.504-14.615-0.397-4.683-0.979-9.295-1.746-13.832 5.08-4.993 9.252-10.312 7.555-16.872-1.708-6.614-8.153-9.372-14.925-11.253-1.615-4.476-3.416-8.828-5.39-13.043 3.573-6.228 6.179-12.526 2.687-18.406-3.916-6.592-12.254-6.592-15.822-6.592-0.56 0-1.186 0.049-1.768 0.065-2.97-3.954-6.119-7.696-9.442-11.199 1.387-7.103 1.806-13.951-3.546-18.362-1.501-1.24-4.112-2.72-7.995-2.72-3.476 0-7.071 1.18-10.791 2.72-4.444-2.763-9.056-5.162-13.815-7.18-1.632-6.918-4.177-13.5-10.976-15.208-0.898-0.227-1.823-0.336-2.759-0.336-5.624 0-9.888 3.796-14.016 8.539-2.676-0.234-5.385-0.402-8.126-0.402s-5.45 0.169-8.142 0.408c-4.128-4.743-8.387-8.539-14.011-8.539-0.93 0-1.86 0.114-2.758 0.337-6.799 1.708-9.344 8.284-10.976 15.202-4.759 2.018-9.372 4.417-13.815 7.18-3.72-1.545-7.316-2.725-10.791-2.725-3.878 0-6.489 1.474-7.99 2.72-5.352 4.411-4.933 11.253-3.546 18.362-3.323 3.508-6.472 7.245-9.448 11.204-0.582-0.016-1.207-0.065-1.768-0.065-3.563 0-11.906 0-15.822 6.592-3.492 5.88-0.887 12.178 2.687 18.406-1.974 4.215-3.775 8.567-5.39 13.043-6.766 1.887-13.211 4.64-14.925 11.253-1.697 6.56 2.475 11.879 7.555 16.867-0.761 4.531-1.349 9.149-1.746 13.832-6.168 3.617-11.493 7.794-11.493 14.62s5.325 11.003 11.504 14.615c0.397 4.683 0.984 9.295 1.746 13.832-5.08 4.993-9.252 10.312-7.555 16.867 1.708 6.614 8.159 9.372 14.925 11.259 1.615 4.476 3.416 8.828 5.385 13.043-3.573 6.228-6.179 12.526-2.687 18.411 3.905 6.565 12.211 6.587 15.784 6.587 0.609 0.038 1.224-5e-3 1.838-0.016 2.959 3.938 6.097 7.658 9.404 11.15-1.387 7.103-1.806 13.951 3.546 18.368 1.501 1.24 4.112 2.714 7.995 2.714 3.476 0 7.071-1.18 10.791-2.725 4.444 2.763 9.056 5.162 13.815 7.18 1.632 6.918 4.177 13.505 10.971 15.202 0.903 0.228 1.828 0.343 2.763 0.343 5.624 0 9.888-3.796 14.011-8.539 2.692 0.245 5.401 0.408 8.142 0.408s5.445-0.169 8.137-0.408c4.128 4.748 8.392 8.545 14.016 8.545 0.93 0 1.86-0.114 2.758-0.337 6.793-1.713 9.344-8.289 10.976-15.208 4.759-2.018 9.372-4.417 13.815-7.18 3.72 1.545 7.31 2.72 10.791 2.72 3.883 0 6.489-1.474 7.995-2.714 5.357-4.411 4.933-11.259 3.546-18.362 3.323-3.508 6.472-7.245 9.448-11.204 0.577 0.016 1.202 0.065 1.762 0.065 3.563 0 11.912 0 15.822-6.592 3.497-5.88 0.892-12.178-2.681-18.411 1.974-4.21 3.769-8.561 5.385-13.043 6.772-1.887 13.217-4.64 14.925-11.259 1.692-6.56-2.475-11.873-7.555-16.867 0.761-4.531 1.349-9.143 1.746-13.826 6.169-3.616 11.494-7.793 11.494-14.619zm-27.288 4.759c-0.103 3.41-0.321 6.783-0.636 10.111-0.294 3.111-0.664 6.195-1.137 9.23-0.528 3.383-1.18 6.701-1.92 9.975-0.68 3.013-1.441 5.988-2.295 8.898-0.957 3.269-2.012 6.472-3.171 9.6-1.099 2.953-2.301 5.825-3.568 8.637-1.409 3.127-2.926 6.162-4.536 9.105-1.425 2.6-2.91 5.145-4.482 7.593-1.833 2.85-3.775 5.586-5.798 8.213-1.947 2.524-3.981 4.922-6.092 7.223-2.312 2.518-4.716 4.901-7.212 7.131-2.007 1.8-4.074 3.497-6.19 5.096-2.703 2.045-5.493 3.916-8.36 5.613-2.747 1.626-5.564 3.089-8.441 4.384-3.079 1.382-6.228 2.556-9.442 3.53-2.295 0.696-4.612 1.305-6.962 1.784-3.269 0.664-6.592 1.12-9.959 1.338-1.621 0.103-3.253 0.158-4.89 0.158s-3.269-0.054-4.884-0.158c-3.372-0.223-6.69-0.68-9.964-1.338-2.355-0.479-4.672-1.088-6.967-1.784-3.214-0.974-6.364-2.148-9.442-3.53-2.883-1.289-5.695-2.758-8.441-4.384-2.866-1.697-5.657-3.573-8.365-5.619-2.116-1.599-4.177-3.296-6.184-5.091-2.491-2.23-4.901-4.612-7.212-7.131-2.11-2.301-4.145-4.699-6.092-7.223-2.023-2.627-3.96-5.363-5.798-8.208-1.577-2.448-3.057-4.993-4.482-7.593-1.615-2.943-3.127-5.978-4.536-9.105-1.273-2.817-2.469-5.689-3.568-8.637-1.164-3.127-2.219-6.331-3.171-9.6-0.854-2.915-1.61-5.885-2.29-8.898-0.74-3.274-1.392-6.598-1.92-9.975-0.473-3.035-0.843-6.119-1.137-9.23-0.315-3.334-0.533-6.706-0.636-10.117-0.044-1.583-0.092-3.166-0.092-4.759 0-1.594 0.049-3.176 0.092-4.754 0.103-3.41 0.321-6.783 0.636-10.117 0.294-3.111 0.664-6.195 1.137-9.23 0.528-3.383 1.18-6.701 1.92-9.975 0.68-3.013 1.436-5.983 2.29-8.898 0.957-3.269 2.012-6.472 3.176-9.6 1.099-2.953 2.301-5.825 3.568-8.637 1.409-3.127 2.926-6.162 4.536-9.105 1.425-2.6 2.91-5.145 4.487-7.593 1.833-2.85 3.769-5.586 5.798-8.213 1.947-2.524 3.987-4.922 6.092-7.223 2.312-2.518 4.716-4.901 7.212-7.131 2.007-1.795 4.074-3.497 6.19-5.091 2.703-2.045 5.493-3.916 8.365-5.619 2.747-1.626 5.564-3.089 8.441-4.384 3.079-1.382 6.228-2.556 9.442-3.53 2.29-0.696 4.607-1.305 6.962-1.779 3.269-0.664 6.592-1.12 9.964-1.338 1.605-0.109 3.236-0.163 4.873-0.163s3.269 0.054 4.884 0.158c3.372 0.223 6.695 0.68 9.964 1.338 2.355 0.479 4.672 1.088 6.967 1.784 3.214 0.974 6.364 2.148 9.442 3.53 2.883 1.289 5.695 2.758 8.441 4.384 2.866 1.697 5.657 3.573 8.365 5.619 2.116 1.599 4.177 3.296 6.184 5.091 2.491 2.23 4.901 4.612 7.212 7.131 2.11 2.301 4.145 4.699 6.092 7.223 2.023 2.627 3.96 5.363 5.798 8.213 1.572 2.448 3.057 4.988 4.482 7.587 1.615 2.943 3.127 5.978 4.536 9.105 1.273 2.817 2.475 5.689 3.568 8.637 1.164 3.127 2.219 6.331 3.171 9.6 0.854 2.915 1.61 5.885 2.29 8.898 0.74 3.274 1.392 6.598 1.92 9.975 0.473 3.035 0.843 6.119 1.137 9.23 0.315 3.334 0.533 6.706 0.636 10.117 0.049 1.583 0.092 3.16 0.092 4.759 3e-3 1.597-0.046 3.179-0.09 4.762z" fill="#010002"/>
 </g>
 <g transform="matrix(.009517 0 0 -.009517 32.492 153.08)">
  <path d="m3664 12762c-30-25-40-125-20-195 8-29 20-104 26-167s13-121 15-128c8-21-7-124-16-115-4 4-31 62-59 129s-62 132-75 144l-25 23-21-47c-23-53-20-94 11-156 20-40 70-209 70-237 0-10 23-82 51-158 44-123 50-151 53-231 2-73 8-101 29-147 32-67 32-67 8-67-13 0-31 21-56 66-21 36-56 84-78 106-37 35-42 46-49 104-4 36-18 84-30 107-19 34-29 43-56 45-29 3-33 7-48 60-18 61-83 166-109 176-9 3-29 6-44 6h-27l-1 158c0 144-2 164-27 241-18 53-31 79-36 71s-12 0-20 25c-11 35-14 37-43 31-50-10-62-28-50-74 6-22 7-46 3-53-4-8-1-52 6-99s13-122 13-167c1-73-1-84-19-93-19-10-20-18-16-68 3-31 10-83 15-115 8-46 14-277 11-425 0-39-18-14-26 36-9 68-29 140-53 194-18 42-21 74-24 255-3 115-10 228-15 253-6 25-18 91-27 148-18 111-42 193-56 189-5-1-23 22-41 52-26 41-42 56-73 67-36 12-42 12-57-4-15-15-16-23-3-88 7-39 20-87 28-107 37-87 134-596 121-630-5-15-8-15-30 0-13 8-24 22-24 29 0 26-68 151-121 220-94 126-187 210-242 220-12 2-45 9-73 15-47 11-53 11-82-11-22-16-32-32-32-49 1-26 21-44 141-121 49-32 204-187 235-236 10-16 32-47 49-69 37-50 81-146 106-233 23-79 24-102 5-102-7 0-20-10-28-22l-15-22-33 24c-19 14-42 45-56 76-13 30-31 62-39 71-9 10-34 42-56 70-111 148-353 278-553 300-53 5-59 4-53-10 5-13 0-17-21-17-38 0-52-12-48-40 4-42 25-70 51-70 14 0 25-4 25-8s28-16 63-25c172-50 374-158 484-261 47-44 56-57 46-67-21-21-15-39 11-39 21 0 31-14 70-92 43-90 157-245 231-316 32-30 44-52 30-52-15 0-152 85-200 124-103 84-273 130-324 89-33-27-9-49 79-73 102-26 245-91 299-135 25-20 67-48 94-62 56-31 55-25 23-203-18-95-18-222 0-506 6-90 6-92-24-125-39-45-48-64-61-129-10-48-16-58-45-74-24-12-43-16-65-11-37 8-71-1-71-20 0-8-10-19-22-26-18-10-20-9-15 4 5 14 2 14-19 5-22-10-28-9-47 15-23 28-89 50-145 48-43-1-115-38-106-54 4-7 4-9 0-5-4 3-28-1-52-9-40-14-56-30-149-153-130-173-161-224-170-280-4-25-12-56-17-70-10-24-11-24-18-5-6 17-9 14-20-20-20-60-216-312-339-436-84-85-159-167-271-300-49-59-132-146-183-195-52-49-102-104-111-122-10-19-58-95-108-170-115-174-156-257-263-528-123-313-163-406-189-445-13-19-26-50-30-69-3-19-31-80-61-135-31-55-79-149-109-210-29-60-65-128-80-150-22-32-26-46-21-77 4-20 1-79-6-131l-12-95 43-90c45-96 106-167 172-201 60-30 80 14 33 75-40 52-54 113-48 204 3 45 9 83 13 85 4 3 15-7 25-21 13-20 19-23 31-13 19 15 18 50-3 95l-18 36 28 24c16 13 41 24 57 24 34 0 36-6 44-166 7-129 23-178 60-182 23-3 29 3 47 43s19 58 14 148c-6 85-4 115 13 182 19 72 20 94 12 222l-9 143 34 69c19 38 35 74 35 79s7 16 16 23c9 8 25 32 34 54 18 41 90 145 101 145 4 0 9-14 13-32 5-27 1-37-24-63-27-28-38-63-25-77 3-3 31 5 63 17 69 28 148 43 138 26-4-6-12-11-18-11-40 0-229-177-259-243-12-27-5-97 11-97 5 0 18 12 29 26 12 15 21 24 21 20 0-20-35-84-70-129-27-34-37-54-31-60 7-7 17-5 31 8 20 18 20 18 20-53 0-67 22-152 39-152 13 0 31 24 31 40 0 9 5 21 12 28 10 10 16 4 30-25 18-36 18-38-1-63-35-48-88-164-100-218-6-28-15-93-21-143-10-86-8-109 17-193 3-13 1-16-7-11-22 13 0-86 36-164 19-40 34-86 34-103 0-55 74-317 86-305 3 2-3 23-11 47-19 54-12 63 15 19 22-37 26-48 69-219 15-63 40-160 54-215s35-158 47-229c24-138 78-376 105-457 19-55 109-199 125-199 6 0 8 5 5 10-3 6-2 10 4 10 5 0 17 3 26 6 15 6 16-1 10-77-10-133-25-201-52-249-56-99-115-177-147-194-19-10-41-32-50-50-15-29-91-364-115-506-17-102-31-330-31-510 0-291-18-462-72-695-25-105-36-137-61-165-61-69-125-263-114-344 6-40-22-177-43-214-6-9-27-89-47-177-45-192-52-334-19-395 51-95 248-305 319-339 44-21 102-27 125-13 11 8 63 122 97 215 11 28 14 84 12 215-2 147 1 187 16 236 13 40 17 74 12 105-8 62 35 344 79 523 19 79 45 213 56 298 42 310 113 544 300 995 46 110 96 249 112 310 16 60 40 127 53 147 31 46 32 106 5 165l-19 43 63 93c34 52 74 118 88 148 49 104 103 345 163 729 20 129 39 237 42 240 2 3 9-3 14-12s15-23 22-30 23-31 37-53c13-22 24-41 24-41 1-1 12-5 24-9 22-6 23-5 11 17-12 23-12 23 10 4 11-11 21-28 21-38 0-11 6-18 14-16s15-1 16-7c1-5 6-18 11-27s18-63 30-119c11-56 27-116 35-133s12-24 10-15c-4 14-12 66-40 256-2 12 1 20 5 17 5-3 9-16 9-29s5-25 10-27c6-2 21-50 35-108 28-116 52-170 75-170 27 1 50 27 50 56v29l24-28c22-26 56-29 56-5 0 5 5 6 11 2 8-4 9 1 5 17-7 23-7 23 8 5 10-12 16-15 16-7 0 7 6 11 14 8 10-4 17 6 24 33 8 31 3 72-28 222-20 101-46 210-58 244-22 65-66 313-57 323 16 16 41-83 100-396 19-105 41-207 49-225 7-18 16-42 20-53 7-19 8-19 21 5 10 17 12 42 8 79-5 41-3 52 6 47 9-6 11 10 6 66-3 40-1 93 4 118l10 45-3-57c-1-32 1-58 6-58 4 0 8-51 8-114 0-143 7-166 54-166 31 0 35 4 41 32l8 32 17-44c10-25 22-103 29-175 21-241 41-355 87-497 32-99 47-161 51-223l6-85-37-36c-33-32-37-41-31-68 3-17 10-130 14-251 8-197 13-241 49-425 45-226 50-260 89-600 22-188 28-286 29-485 3-387 13-568 35-660 15-59 20-108 18-190-1-60 2-191 6-290 7-164 9-182 28-203 28-30 78-61 118-72 71-21 266 34 379 105 40 25 40 25 40 90 0 81-54 365-80 420-10 22-32 92-49 155-16 63-40 145-54 182-21 60-23 76-17 150 4 46 4 124-1 173-21 223-6 461 56 880 47 319 56 433 62 797l6 317-26 12c-20 9-28 24-41 78-9 36-25 100-37 141-25 90-37 386-21 539 9 90 11 96 45 125 42 38 63 72 117 196 23 52 48 102 55 110s18 34 24 57 15 43 19 45c38 17 146 387 162 553 22 245 31 315 50 420 14 74 21 158 21 255 1 120 5 154 22 200 18 46 21 77 21 195 0 120-4 153-26 231-14 50-31 101-37 113-10 18-8 27 15 56 30 40 44 44 44 15 0-11 7-23 16-27 8-3 20-16 25-29 15-41 29-26 29 32 0 65-17 142-36 165-17 19-18 36-1 42 8 2 12 26 12 73 0 65-2 72-41 124-33 44-42 66-46 110-5 47-10 59-40 84-32 27-40 29-104 27-65-2-71-1-98 28-23 24-26 31-13 31 46 0-9 81-87 129-20 13-43 36-51 52-9 16-22 29-30 29s-15 4-15 9-20 19-45 31c-46 22-58 40-28 40 13 0 14 3 5 12s5 26 55 72c175 160 255 289 299 482l27 121-21 31c-16 22-22 45-22 84 0 65 31 193 57 234 36 59 136 174 150 174 15 0 125-94 232-198 36-35 78-70 95-79s49-30 71-48c82-66 318-215 373-235 109-42 170-21 412 137 231 151 283 195 550 458 146 144 286 278 312 297 48 36 48 36 90 21 34-12 51-12 81-3 47 14 57 8 57-35 0-24 7-39 26-54l26-20-19-53c-13-39-18-82-18-163 0-118 10-151 61-206l25-26-79-15c-42-9-98-25-122-36-25-11-72-22-105-25-155-12-456-136-626-257-189-135-359-342-464-564-87-183-140-376-164-596-10-93-35-526-33-585 0-16-4-138-9-270s-14-377-19-545c-14-403-28-779-41-1085-17-408-28-691-39-1027-5-174-14-328-20-343-5-14-10-37-10-49 0-13-9-31-21-42-29-27-59-88-59-122 0-89 57-155 190-221 359-180 1112-294 1835-278 598 14 1031 97 1189 230 80 67 88 190 16 258-25 24-31 126-19 319 9 153 22 420 36 753 4 116 8 137 20 133 8-3 19-6 24-6s9-15 9-34c0-53 25-72 110-86 41-7 111-14 155-17 44-2 98-9 120-15s69-12 105-13 85-10 110-19c25-8 65-16 90-16s70-9 100-20 69-19 85-20c17 0 57-9 90-19 140-46 162-53 205-69 25-10 63-28 84-41 24-15 55-25 79-25 35-1 42 2 47 23 5 20 12 25 40 25l35 1 1 90c0 50 4 176 8 280 5 105 9 204 10 220 1 24-4 31-21 33-22 3-23 0-24-60-1-35-5-74-10-88-5-15-6 23-3 100 4 69 9 206 13 304 4 133 10 181 19 184 10 3 10 7 2 18-8 8-10 36-7 76 15 172 25 572 16 596s-7 30 23 55c18 15 52 37 75 48 24 11 45 25 49 30 3 5 20 9 37 9 45 0 78 11 71 22-10 15 16 28 56 28 41 0 65 13 56 29-5 7 2 11 18 11 18 0 24 4 20 14-4 11 5 17 30 22 20 3 40 12 44 19s23 20 42 29c20 9 26 14 13 12s-23 0-23 4c0 12 34 22 53 14 16-6 110 48 156 90 17 15 25 17 28 9 3-7 9-13 15-13 13 0 4 62-22 134-11 33-22 85-25 115l-5 56 62-127c57-119 78-149 78-114 0 8-20 74-44 148-49 151-61 198-50 198 5 0 26-17 47-37 27-26 36-31 28-16-6 12-16 25-22 29-34 20-152 244-163 309-4 22-16 60-26 85s-30 83-44 130c-28 92-77 182-143 258l-42 48 59 61c32 33 73 66 90 73 40 17 33 34-15 38-23 2-51 14-69 29-29 24-34 25-116 19-47-4-97-8-112-8-22-1-47 18-116 83-121 116-164 132-344 131-112-1-135 1-151 16-19 16-19 16-13-5 6-19 4-23-13-23-12 0-21-6-21-14s-9-18-20-21-20-10-20-15-32-19-70-31c-39-11-72-24-74-28-3-3-43-26-90-51-47-24-86-50-86-57 0-20 14-16 72 18 151 89 297 147 283 112-4-11-1-13 12-8 34 13 73 17 73 9 0-5-30-18-67-28-64-19-66-20-38-28 17-5 48-6 70-3 39 5 39 4 15-10l-25-14 32-1c18 0 56 9 84 20 68 27 74 18 10-14-28-15-51-29-51-32 0-4 21-3 47 1 42 6 46 5 34-9-11-13-11-17 2-22 9-3 21-3 27 1 5 3 13-1 16-9 4-9 18-16 34-16 46 0 45-27-1-51-23-11-60-37-82-58-96-85-216-170-278-194-19-8-86-18-149-21-168-10-260-43-260-92 0-8-7-22-15-30-8-9-15-22-15-30 0-19 45-36 76-28 34 9 30 1-16-30-44-29-50-50-20-66 17-9 18-14 9-32-10-18-8-24 7-35 10-7 24-11 31-9 7 3 13-6 15-22 3-25 6-27 46-25 37 2 42-1 42-21 0-50 42-60 88-21l30 25-5-39c-5-34-2-41 21-56 26-18 27-17 55 9 28 27 29 27 36 7 8-25 38-43 59-35 16 6 56 101 56 133 0 10 9 26 20 36 19 18 44 84 42 115-1 24 49 49 208 106 80 29 167 60 193 70 32 13 50 15 55 8 4-6 15-13 24-17 13-5 16-14 11-41-4-28-2-37 11-42s15-14 11-34c-4-18-1-31 10-40 8-7 15-25 15-41 0-24 4-29 25-29 29 0 31-6 10-26-8-9-15-26-15-40 0-33 29-32 96 7 30 17 54 27 54 22s-26-30-57-57c-53-44-82-78-83-98s45-4 106 37c37 25 69 44 71 42s-27-39-63-83c-68-81-92-120-81-130 11-11 72 34 131 96 32 34 60 59 63 56 3-2-15-32-39-66-137-196-145-210-116-210 19 0 115 107 151 168 18 30 38 57 45 60 21 7-17-61-97-172-76-107-97-165-40-110 17 16 47 51 67 79 52 70 52 39 1-85-30-72-39-104-31-112 14-14 43 32 78 125 14 37 29 67 32 67 4 0 5-64 4-141-3-89 0-139 6-135 5 3 12 31 15 63 11 97 40 243 49 243 4 0 8-16 8-35 0-31 42-260 56-309 4-10 10-14 15-9s5 44-1 93c-5 47-10 128-9 180v95l23-75c13-41 37-111 55-155l32-80-43-38c-43-37-108-74-144-81-80-16-263-70-370-109-101-37-199-89-271-144-46-35-48-36-76-20-16 10-41 17-55 17-15 0-45 9-67 19s-65 21-95 25-74 16-97 26-51 16-62 13c-10-3-56 5-102 16-46 12-104 21-129 21s-72 7-103 15c-32 8-86 15-120 15-34 1-82 5-107 11-25 5-87 10-139 11-90 1-95 0-115-25l-21-26-20 23c-19 21-20 34-18 187 1 90 7 202 13 249s12 249 13 450c2 309-1 380-15 465-34 195-83 348-159 495-55 106-52 119 13 75 20-14 40-25 43-25 4 0-9 29-29 64-29 53-33 65-20 68s13 6-4 24c-11 11-25 38-32 60-7 21-21 56-31 76-37 73-22 162 62 374l61 154 27-19c15-11 40-23 56-27 24-6 27-4 22 10-4 10-7 20-7 22s-8 4-18 4c-13 0-18 7-17 23 2 19 7 22 36 19 43-3 30 9-18 17l-38 7 43 28c71 45 72 45 72-12 0-60 14-104 32-97 9 4 22-22 41-77 45-131 69-188 78-188 11 0 12-4-6 54-40 131 13 60 75-101 7-18 19-38 27-44 12-11 13-8 8 14-5 18-2 32 10 43 16 16 15 38-2 99-5 18-4 18 11 6 15-13 19-13 27 0 16 25 15 29-46 204-4 11 11-11 32-49s44-71 50-73c20-7 24 34 8 72-18 46-18 45 0 45 21 0 19 43-5 90-25 49-25 53 0 45 17-6 20-2 20 28 0 19-9 46-20 60-15 18-17 27-8 30 10 3 9 12-4 38-9 19-19 49-22 67-11 65-171 247-268 307-77 47-85 58-125 165-35 94-73 170-85 170-14 0-8-28 23-105 33-84 34-123 1-60-26 50-71 104-72 87 0-7 5-22 11-34 15-29 4-33-28-10-80 56-362 198-465 233-65 22-186 35-399 43-101 4-120 3-115-9 3-9-3-15-17-18-12-2 1-5 30-6 28 0 55-5 58-11 3-5 3-10-2-11-4 0-82-6-173-13-142-12-155-14-90-17 102-4 108-4 168 4 28 3 52 3 52-1 0-8-147-67-193-78-25-6-48-24-30-24 4 0 59 11 121 24 61 12 112 20 112 16s-20-21-45-39c-51-36-59-61-19-61 32 0 59 14 107 56 44 40 62 44 52 12-17-53-18-88-2-88 44 0 68 21 97 85 16 36 34 65 39 65 7 0 7-9 1-26-15-38-12-100 5-114 12-10 21-10 45 0 23 9 31 20 35 49 11 69 16 82 25 76 6-3 13-24 16-46 4-22 14-49 23-59 15-17 19-18 49-5 24 11 32 20 32 40 0 14 2 25 4 25 3 0 19-14 36-31 26-26 36-31 65-26 25 4 38 1 51-14 16-17 16-22 4-29-8-6-24-10-35-10-44 0-124-48-149-89-18-28-44-50-84-70-32-16-64-36-71-45-11-13-9-14 21-6 37 11 98 13 98 4 0-4-29-36-66-71-36-36-63-67-61-70 3-2 22 4 44 15 66 34 98 36 149 11 40-19 56-21 125-16l79 6 19-37c34-67 161-179 250-221l60-28-25-37c-35-52-57-107-47-117 5-5-18-64-54-137-76-154-155-341-155-364 0-9-10-24-24-33-24-15-26-14-97 45-158 131-384 247-571 291-50 12-109 32-131 45s-71 31-110 41c-45 12-71 24-73 34-1 8 11 32 27 53 36 45 70 131 77 195 3 25 12 62 19 81 8 19 21 63 30 98 14 56 14 68 0 114-8 28-15 76-15 105 0 61-33 169-61 198-17 18-36 19-251 22-311 5-335 0-424-81-38-35-82-66-99-70-16-4-43-20-60-36-16-15-75-47-130-70-192-81-575-284-692-366-34-24-64-40-68-35-3 6-31 24-63 42-31 18-67 41-79 52-12 10-43 29-68 42-32 15-54 35-69 61-12 21-32 44-44 50-13 6-36 24-53 40-25 24-29 25-29 9 0-12-15 3-42 41-51 71-179 199-269 268-35 28-95 63-134 79-38 16-71 31-73 32-2 2 4 18 14 36 9 18 17 51 16 74 0 22 15 85 33 140s40 149 49 209c8 60 20 114 26 120 7 7 10 6 10-4 0-39 10 7 20 90 7 57 18 102 27 112 13 15 14 36 6 150-8 104-10 117-11 62-1-46-7-77-17-90-15-18-15-16-9 26 10 56 10 61 0 190-6 77-5 102 3 94 6-5 13-30 14-55 3-49 13-72 28-64 23 15-9 166-47 223-13 19-24 47-24 61s-16 53-36 86l-36 60 53 47c52 46 58 59 18 37-17-9-19-7-15 13 2 13 21 51 41 86 45 75 41 94-5 22-35-55-45-62-35-27 5 19 5 20-7 5-7-9-18-25-25-35-9-15-10-12-3 17 5 19 14 60 20 90s14 64 16 75l5 20-13-20c-12-18-13-17-18 20-6 37-7 35-14-30-10-86-38-189-44-160-2 10 1 42 7 70 14 66 40 396 46 610 3 94 8 182 10 198 3 15 2 48-2 72-12 91-53-6-53-127 0-35-7-115-14-178-8-63-17-198-20-300-8-232-15-309-29-285-5 9-7 34-4 54s2 290-3 601c-6 442-11 584-24 654-8 49-18 91-21 94-11 12-45-33-45-60 0-15-4-28-9-28s-7-90-4-207c2-115 0-228-5-253-8-42-9-39-16 55-4 55-11 127-16 160s-14 98-21 145c-14 103-64 257-93 287-20 21-22 21-42 5zm233-394c-3-7-5-2-5 12s2 19 5 13c2-7 2-19 0-25zm-820-10c-3-8-6-5-6 6-1 11 2 17 5 13 3-3 4-12 1-19zm10-50c-3-7-5-2-5 12s2 19 5 13c2-7 2-19 0-25zm-957-438c12-8 11-10-5-9-11 1-31 5-45 9-24 8-24 8 5 9 17 0 37-4 45-9zm1142-125c27-55 19-66-22-31-17 14-42 26-54 26-22 0-23 3-19 53 3 28 6 58 9 66 5 16 54-49 86-114zm-1095 109c-3-3-12-4-19-1-8 3-5 6 6 6 11 1 17-2 13-5zm1043-341c0-62-11-80-28-45-8 15-9 57-3 127 2 20 2 20 16 1 10-13 15-43 15-83zm190 17c0-22-4-40-9-40s-16-18-25-41c-9-22-20-37-26-34-10 6-4 31 12 52 6 7 7 17 4 22-9 13 20 81 33 81 6 0 11-18 11-40zm86-107c19-26 17-44-11-86-18-26-33-37-50-37-30 0-30 2-6 49 10 20 24 48 31 64 16 32 19 33 36 10zm94-108c0-8-7-15-15-15-16 0-20 12-8 23 11 12 23 8 23-8zm450-224c-11-21-30-37-30-25 0 8 30 44 37 44 2 0-1-9-7-19zm110-776c0-30-4-55-10-55-11 0-14 93-3 103 12 12 13 8 13-48zm-1840-405c0-12-28-25-36-17-9 9 6 27 22 27 8 0 14-5 14-10zm-200-135c0-4-8-20-17-38-13-24-18-28-21-15-4 20 14 58 28 58 6 0 10-2 10-5zm-89-117c-28-81-40-102-92-158l-61-65 6 35c4 19 18 58 31 85 30 60 135 209 142 201 3-2-9-47-26-98zm4513-633c79 0 80 0 87-29 5-17 4-37-2-48-6-12-8-43-4-77 5-45 2-68-15-113-32-86-48-102-106-103-27 0-57-4-66-9-22-10-45 33-59 110-12 66 2 175 31 242 16 36 23 43 37 36 10-5 54-8 97-9zm1452-231c19-9 34-20 34-25 0-10-121-112-126-106-2 2 0 17 5 33 6 16 15 48 21 72 12 47 17 49 66 26zm-6096-195c-7-16-16-29-21-29-11 0-2 45 14 75 10 19 11 19 15 2 2-10-2-32-8-48zm-70 6c0-19-26-71-52-105l-20-25 7 30c18 77 65 149 65 100zm5-160c-26-72-45-102-45-72 0 8 7 31 15 51s22 52 30 73c28 67 28 24 0-52zm131-10c-6-38-29-75-40-64-2 2 5 33 16 69 22 69 34 67 24-5zm-238-42c-22-79-76-163-105-163-9 0-3 14 16 38 16 20 42 65 57 100 29 69 48 83 32 25zm-70-15c-9-42-36-86-86-141-14-15-27-33-28-41s-12-28-24-45c-13-16-26-49-30-73s-10-56-14-73c-6-22 0-16 25 25 36 63 174 204 190 195 5-4 16-1 24 5 18 15 19 6 4-21-5-11-14-17-19-14-11 7-30-27-30-52 1-13 5-10 16 11 24 44 36 18 20-43-16-62-57-108-183-207-74-58-103-89-103-109 0-8 219 192 238 218 7 9 17 17 22 17 15 0 0-83-19-104-10-12-20-26-22-32-2-7-47-50-100-97-87-77-96-89-93-116 3-30-16-56-24-32-2 7-14-1-27-21-18-26-42-41-116-69-52-20-119-39-150-43-32-3-101-21-155-40-55-19-100-34-101-32-1 1 28 40 66 87 86 107 146 192 250 353 46 71 90 136 98 145s52 63 98 121c74 94 205 216 205 192 0-5-18-35-41-68l-41-59 55 54c57 55 71 77 81 124 4 15 10 27 15 27s5-19-1-42zm4742 36c0-4-10-23-22-43-18-28-23-32-26-18-4 20 23 67 38 67 6 0 10-3 10-6zm52-28c-2-19 1-26 9-20 14 9 3-135-12-150-9-10-11 1-11 64 1 34 1 34-9-8-9-38-13-42-32-36-12 4-29 7-39 6-14 0-15 4-6 36 26 96 108 184 100 108zm119-8c25-48 59-144 59-165 0-10-11-13-42-11l-43 3-24 140 5-68c5-67 4-68-18-65s-23 6-19 93c3 68 7 93 20 102 27 21 40 15 62-29zm29 9c-1-21-1-21-15-3-8 10-12 23-9 28 9 14 24-2 24-25zm-270 20c0-13-101-108-109-103-20 13-12 25 42 65 46 35 67 47 67 38zm392-69c32-30 50-56 58-86 17-67 7-71-29-11-18 30-51 78-73 107-45 61-27 57 44-10zm-4838-40c-13-24-19-28-22-16-2 9 5 32 14 50 13 24 19 28 22 16 2-9-5-32-14-50zm4276 38c0-8-14-29-32-47-52-55-146-178-179-235-17-30-34-54-39-54-11 0 18 85 55 163 26 54 50 79 155 159 42 32 40 32 40 14zm545-68c19-33 35-64 35-69 0-6-17-9-37-7-41 3-44 10-57 107-6 49-6 53 9 41 9-7 31-40 50-72zm-400 40c-8-43-14-51-31-37-12 9-11 16 7 40 26 37 31 36 24-3zm645-119c0-5-13-9-30-9-16 0-30 4-30 8 0 5-22 35-50 66-78 89-61 98 30 16 44-40 80-76 80-81zm-1e3 116c-32-24-50-31-50-20 0 7 63 45 74 45 6 0-5-11-24-25zm270-26c0-12-27-11-35 1-11 17 5 32 21 19 8-6 14-15 14-20zm-4303-67c-19-71-27-119-32-184-2-33-10-57-24-72-23-25-29-45-7-27 26 22 27-17 1-47-25-29-109-62-123-48-4 4 9 21 28 38l35 30-50-33c-68-43-123-97-145-140-16-31-26-37-74-49-31-7-59-10-64-5-4 4 15 26 43 49 54 45 120 111 205 206 30 33 60 65 65 71 6 6-5 4-22-5-31-15-33-15-33 1 0 9 21 37 48 61 42 39 47 42 50 24 2-12-2-31-8-42-11-21-11-21 14-5 14 10 26 14 26 9 0-4 4-4 9 2 14 14 25 108 12 99-15-8-14 5 3 53 19 52 49 98 54 83 2-7-3-38-11-69zm3893 62c-8-8-23-20-34-25-15-7-13-3 7 15 31 29 47 35 27 10zm1220-14c0-15-5-12-26 11-19 22-19 22 4 10 12-6 22-16 22-21zm-5180 4c0-8-11-40-25-70s-25-59-25-65c0-13-46-59-59-59-15 0 19 88 59 152 36 58 50 70 50 42zm4130 11c0-12-49-81-70-100-33-29-123-144-160-203-33-54-56-70-40-28 5 13 26 61 46 106 33 72 47 90 122 156 77 67 102 84 102 69zm215-26c0-7-8-15-17-17-18-3-25 18-11 32 10 10 28 1 28-15zm85-4c16-19 0-19-26 0-16 12-16 14-3 15 9 0 22-7 29-15zm745-36c49-46 57-64 23-53-30 9-57 33-74 66-21 40-1 35 51-13zm136 14c13-16 12-17-3-4-10 7-18 15-18 17 0 8 8 3 21-13zm-895-7c10-8 16-17 13-20-9-9-59 11-59 24 0 14 23 12 46-4zm-93-2c6-6-30-71-45-80-10-6-6 12 13 64 8 22 20 28 32 16zm-394-36c-7-12-37-50-67-83s-79-95-110-138-58-74-60-69c-2 6 17 51 42 100 38 77 56 100 122 157 77 67 96 76 73 33zm1071 11c0-6-4-7-10-4-5 3-10 11-10 16 0 6 5 7 10 4 6-3 10-11 10-16zm-775-85c-14-49-33-120-41-159-8-38-30-119-50-179-82-253-144-586-169-898-7-86-8-88-33-88h-25l7 198c13 381 48 699 88 802 47 121 146 301 210 383 17 21 32 36 35 34 2-2-8-44-22-93zm166 81c16-9 27-20 24-25-8-13-65 9-65 26 0 18 4 18 41-1zm940-41c21-23 22-26 5-23-19 4-56 49-39 49 5 0 20-12 34-26zm-5632-14c-13-16-24-28-27-26-5 6 31 55 41 56 4 0-2-13-14-30zm4676 13c28-13 35-22 32-38-3-11-21-77-40-147-58-205-94-400-143-765-5-41-24-57-39-33-3 6-16 10-27 10-20 0-21 3-14 118 19 329 54 570 101 686 37 91 83 186 90 186 2 0 21-8 40-17zm-614-20c-5-11-44-59-86-109-42-49-84-101-93-116-9-16-20-28-25-28s11 37 35 81c31 60 60 98 107 140 65 59 81 67 62 32zm777-19c24-7 1-24-33-24-49 0-52-17-5-31 37-11 40-15 36-38-18-88-70-629-82-851-9-169-10-171-59-126l-38 37 12 227c17 331 61 788 78 815 4 7 58 2 91-9zm942-19c7-8 8-15 2-15-5 0-15 7-22 15s-8 15-2 15c5 0 15-7 22-15zm-1475-97c-14-45-35-121-46-168s-35-130-54-185c-72-211-129-482-156-742-9-98-15-123-27-123-30 0 1 588 43 808 21 108 128 326 223 454 20 26 38 46 40 44s-8-42-23-88zm-402 68c-14-24-103-118-103-109 0 12 28 53 63 91 31 32 55 44 40 18zm1137 4c0-5-7-10-15-10s-15 5-15 10c0 6 7 10 15 10s15-4 15-10zm-60-9c0-9-41-23-48-16-2 2-1 8 3 14 8 13 45 15 45 2zm-83-18c4-11-26-27-35-19-2 3-2 12 2 21 6 18 27 16 33-2zm193-16c0-7-16-21-35-30-45-21-45-21-45 3 0 13 10 22 33 29 45 13 47 13 47-2zm99-13c-6-7-15-11-21-8-5 3-4 12 3 20 6 7 15 11 21 8 5-3 4-12-3-20zm57-16c-22-32-20-38 13-38 22 0 30-6 35-23 15-63 28-378 24-615l-4-267-27-27c-18-18-29-23-32-15-2 6-6 98-9 202-7 221-17 347-48 572l-22 163 40 34c46 42 50 43 30 14zm-258-361c0-199-3-461-6-582l-7-220-45 3c-24 2-46 5-48 7-3 2 3 170 12 372s18 451 21 553c4 102 8 195 11 207 4 19 37 35 56 26 4-2 7-166 6-366zm-95 356c3-5 1-75-3-158-5-82-16-323-25-535-10-212-19-387-21-389-2-3-18 9-35 25l-31 29 7 135c8 165 42 642 55 765 5 50 10 100 10 113 0 15 6 22 19 22 11 0 22-3 24-7zm-784-60c-11-32-33-107-49-168-17-60-46-155-66-210-68-192-113-393-140-634-7-68-16-126-20-130-9-8 3 389 16 509 24 229 40 297 99 415 57 112 159 275 172 275 5 0-1-26-12-57zm991-234c0-142-5-384-11-537-9-241-13-280-28-297-10-11-21-29-25-39-3-10-9-16-12-13-4 3-6 259-6 568l1 563 33 11c18 6 36 10 41 8 4-2 7-121 7-264zm341 252c3-3 20-44 37-91 23-62 34-116 42-200 12-127 11-628-2-636-4-3-8 2-8 11s-9 33-19 53c-14 27-23 74-30 172-17 212-57 438-110 623l-20 68 22 9c22 9 77 4 88-9zm177-78c65-140 89-207 97-270 6-56 5-61-31-116-40-62-46-61-58 8-4 22-23 94-41 160-40 139-69 281-60 295 3 6 16 10 29 10 19 0 30-15 64-87zm32 51c0-8-4-12-10-9-5 3-10 13-10 21s5 12 10 9c6-3 10-13 10-21zm101-56c36-73 50-164 34-225-9-39-23-26-35 35-7 31-23 103-36 160s-24 107-24 110c1 12 44-45 61-80zm-592-5c25-177 42-403 48-645l6-258h-26c-14 0-36-10-47-22l-21-23 8 225c4 124 8 354 8 513 0 158 3 287 6 287 4 0 12-35 18-77zm-1240-23c-11-30-31-94-44-142-13-49-38-125-55-170-39-101-103-353-121-471-17-123-27-87-18 68 17 287 43 408 119 560 57 112 126 222 136 213 2-2-6-28-17-58zm-181-130c-17-52-48-145-69-206s-51-158-67-215c-33-125-42-98-18 54 22 140 43 217 78 295 31 68 96 177 102 171 2-2-10-47-26-99zm913-94c-6-83-16-230-22-326-5-96-13-178-18-183-4-4-17 4-30 17l-22 24 16 143c9 79 30 223 46 319s29 177 30 180c0 3 3-1 6-9 3-7 0-82-6-165zm-4510 140c-15-18-70-41-78-32-11 11 28 45 56 48 33 4 37 2 22-16zm3489-43c-4-16-19-59-33-98-81-225-102-278-105-265-5 27 47 211 78 279 47 99 78 143 60 84zm1755-154c18-103 45-364 45-429 0-66-7-82-31-70-10 6-24 9-31 8-7-2-13 3-12 10 1 6 2 139 3 294 0 155 3 279 6 276s12-43 20-89zm843-16c39-101 49-147 31-141-19 6-36 43-54 119-9 35-19 72-21 82-3 9-1 17 4 17s23-35 40-77zm1317 47c-3-5-14-10-23-10-15 0-15 2-2 10 20 13 33 13 25 0zm-1406-81c29-40 29-42 13-65-21-28-32-30-32-6 0 11-7 33-16 51-14 27-14 61 0 61 2 0 18-19 35-41zm-1729-90c-5-57-9-112-10-121 0-26-19-22-26 6-5 23 20 199 32 218 12 20 13-2 4-103zm1634 75c9-23 7-77-3-93-8-12-13-12-34 2-34 22-46 76-21 94 24 18 51 16 58-3zm-439-131c2-35 6-66 8-70 13-21 18-102 12-166l-8-72-18 40c-15 33-18 69-18 210 0 124 3 163 10 145 6-14 12-53 14-87zm284 76c21-28 23-39 19-129-2-62-8-104-16-112-10-10-12-3-10 37 3 43 0 50-14 47-10-2-18-1-18 1 0 3-7 40-16 83-15 74-15 78 2 91 25 18 27 17 53-18zm-6194-6c-4-10-10-29-13-42-8-38-93-70-245-93-83-12-144-26-165-39-41-24-42-24-42 0 0 23 16 36 25 21 5-8 12-7 23 3 10 7 38 26 64 40 26 15 49 36 53 46 6 19 67 53 113 64 29 7 38-13 21-45-10-21-9-20 19 5 19 18 43 30 66 31 21 2 42 8 49 15 18 18 40 14 32-6zm-265-13c0-5-5-10-11-10-5 0-7 5-4 10 3 6 8 10 11 10 2 0 4-4 4-10zm6738-40c-6-23-12-39-15-37-7 8 9 87 17 82 4-3 3-23-2-45zm-1982-57c-3-43-11-177-16-297-6-133-14-224-21-232-6-8-23-14-37-14h-25l7 88c17 205 74 532 93 532 3 0 3-35-1-77zm1544-55c-1-82-5-133-15-153l-13-30-1 46c-1 25-7 51-13 57-7 7-18 48-24 90-13 86-3 112 43 112 23 0 23-1 23-122zm297 99c-6-20-27-19-27 2 0 14 5 19 15 14 9-3 14-10 12-16zm256-38c4-24 6-57 4-74-2-25-5-21-15 25-7 30-15 65-19 79-4 17-2 22 8 19 8-3 17-24 22-49zm-478-53c6-40 5-45-9-40-12 5-16 20-15 68 0 68 12 55 24-28zm-1834-219c-6-133-14-252-17-264-6-23-43-38-58-23s25 328 66 512c19 83 20 35 9-225zm2060 236c-12-20-14-14-5 12 4 9 9 14 11 11 3-2 0-13-6-23zm-1648-40c12-23 13-65 6-226-5-109-13-207-19-217-10-19-54-28-63-12-7 13 36 418 49 465 7 23 11 22 27-10zm-593-209c-14-278-18-299-50-299-14 0-25 5-25 10 1 67 20 236 40 351 23 138 32 171 41 161 3-2 0-103-6-223zm2409 134-1-73-15 59c-14 60-12 86 7 86 6 0 10-29 9-72zm-2570-183c-11-232-16-275-35-282-8-3-17-3-20 0-8 7 14 253 32 366 13 87 21 117 29 109 2-2-1-89-6-193zm-123-37c-8-214-15-269-34-276-8-2-12 12-12 50 0 109 35 418 48 418 3 0 2-87-2-192zm972 128c30-65 30-65 21-173-5-59-13-111-18-116s-17-7-27-5c-17 3-19 16-22 138-3 120 3 220 13 220 2 0 17-29 33-64zm1680-248c3-144 1-238-5-238-5 0-18 6-28 14-17 12-18 27-12 250 4 131 10 242 13 248 18 28 27-55 32-274zm-3843 154c32-29 55-55 52-59-10-10-157 111-157 129 0 15 46-16 105-70zm3960-83c9-155-2-352-19-346-6 2-12 31-14 68-5 99 9 433 18 419 4-7 11-71 15-141zm-260 9c3-35 5-110 3-168-3-98-4-105-23-102-45 7-45 6-45 151 0 131 1 142 22 161 12 11 25 20 29 20s10-28 14-62zm-6507 30c-90-241-116-298-140-298-6 0-8 10-4 23 3 12 11 64 16 115 6 52 14 101 18 109 10 17 80 61 101 62 7 1 11-5 9-11zm2643-35c13-16 12-17-3-4-10 7-18 15-18 17 0 8 8 3 21-13zm189-54c0-49-35-17-55 51-7 25-7 25 24-4 17-17 31-38 31-47zm2244 37c41-54 32-95-20-99-24-2-29 2-28 21 3 91 5 112 13 112 5 0 20-15 35-34zm-2080-27c17-14 19-20 9-30-18-18-33 0-38 47-2 21-2 30 1 20 4-11 16-27 28-37zm-399-46c8-19 15-52 15-73s7-43 15-50c19-15 19-40 2-64-13-17-18-12-56 59-43 78-45 88-21 150 12 32 25 25 45-22zm3743-59-3-79-30 3c-39 4-43 9-48 61-4 41-1 47 32 77 19 19 39 30 44 25 4-4 7-43 5-87zm-5938 52c0-2-17-39-38-82-22-44-56-123-77-176-36-92-55-120-55-80 0 9 9 36 20 60s24 60 30 81c5 20 30 69 55 107 24 38 45 75 45 82 0 6 5 12 10 12 6 0 10-2 10-4zm4335-268c-4-112-11-207-15-212-5-5-16-6-24-3-19 7-21 81-7 274 10 130 13 143 38 143 13 0 14-24 8-202zm123 5c-5-177-7-197-24-210-10-8-28-12-39-11-19 3-20 10-18 93 1 50 5 143 9 208l6 117h71zm120 177c4-21-18-46-45-55-21-6-23-3-23 28 0 18 3 37 7 41 12 12 58 2 61-14zm110-2c-2-18-11-24-35-26-30-3-33-1-33 22s4 26 36 26c31 0 35-3 32-22zm87 12c-3-5-13-10-21-10s-14 5-14 10c0 6 9 10 21 10 11 0 17-4 14-10zm-537-201c-5-215-6-219-57-219h-24l7 202c4 111 9 205 12 210 3 4 19 8 36 8h31zm-1697 140c-11-24-20-39-20-32-1 14 31 84 36 79 2-2-5-23-16-47zm1578-51c-2-188-13-301-28-306-12-4-13 22-7 174 7 187 12 234 27 234 5 0 8-46 8-102zm-80-50c-2-207-9-259-36-269-39-14-45 15-38 189 8 218 9 222 45 222h30zm2398 80c-2-13-4-3-4 22s2 35 4 23c2-13 2-33 0-45zm-2580-139c-3-100-10-186-15-191-15-15-41 3-47 34-7 30 4 316 12 331 2 4 16 7 30 7h26zm830 9c-8-163-16-188-63-188h-23l5 158c3 86 7 163 10 170 2 7 19 12 40 12h37zm98 113c7-17 6-18-28-26-25-7-27-5-27 22 0 16 3 32 6 36 8 8 42-14 49-32zm939-5c-3-14-10-26-15-26-10 0-12 53-2 63 13 13 24-10 17-37zm-2024-111c0-122-3-147-15-152-9-3-19-2-23 2-9 9-9 254 1 278 3 9 13 17 22 17 13 0 15-21 15-145zm1963 113c-8-46-13-48-13-5 0 21 4 37 10 37 5 0 7-14 3-32zm-1093-31c0-30-3-102-7-160l-6-107h-57v153c0 85 3 157 7 160 3 4 19 7 35 7 27 0 28-1 28-53zm-5138 11c-8-8-9-4-5 13 4 13 8 18 11 10 2-7-1-18-6-23zm6164-32c-4-25-11-48-17-51-10-7-13 98-2 108 15 16 25-14 19-57zm312 58c21-6 22-10 22-123 0-106-14-288-23-297-1-2-16 0-32 4-20 6-31 17-37 38-8 30 7 357 17 374 7 11 21 12 53 4zm-2330-121c-4-127-22-152-33-44-8 85 1 151 21 151 12 0 14-19 12-107zm334-83-10-55-1 76c0 42 2 98 7 125l7 49 3-70c1-38-1-95-6-125zm1608 150c0-21-4-28-14-24-27 10-46-25-46-84 0-31-4-63-9-71-17-27-32 26-29 102 3 71 3 72 38 89 50 24 60 22 60-12zm572 8c14-11 15-31 7-164-10-174-18-204-53-204-21 0-25 5-28 38-4 52 9 320 17 332 9 14 38 13 57-2zm-6625-106c-25-42-69-129-98-192-28-63-54-117-56-120-10-11-23 28-23 68 0 58 21 103 65 143 21 19 63 72 93 118 68 102 81 90 19-17zm6333 38c0-22-4-40-10-40-5 0-10 18-10 40s5 40 10 40c6 0 10-18 10-40zm434 27c16-12 17-23 7-146-6-73-13-137-16-142-7-11-42-12-48-1-6 10 11 280 18 292 8 13 18 13 39-3zm-3752-69c5-79-5-92-26-36-13 33-15 50-7 71 17 44 29 31 33-35zm2291-25c-50-40-63-24-47 56l7 32 33-32 34-33zm607 33c0-30-5-58-11-62-7-4-9-24-6-50 5-48 3-51-19-30-21 22-19 154 3 178 26 29 33 22 33-36zm976-60c-11-112-17-136-34-136-13 0-14 14-8 101 7 112 10 121 32 112 14-5 15-17 10-77zm-6814-12c2-34-80-274-93-274-27 0 2 181 34 213 12 12 22 31 23 42 3 65 33 81 36 19zm5253 10c-23-17-32-10-15 11 7 8 17 12 23 8s3-11-8-19zm96 6c24-18 27-26 22-53-12-65-52-81-50-19 1 20-1 49-6 65-9 32-4 33 34 7zm839-54c0-99-8-126-37-126-74 0-84 54-23 125 22 25 40 50 40 56 0 5 5 9 10 9 6 0 10-28 10-64zm57-23c-2-16-4-3-4 27s2 43 4 28c2-16 2-40 0-55zm-1009 51c12-4 22-12 22-19 0-6-10-17-22-23-18-8-19-11-5-11 30-2 18-21-13-21-23 0-31 5-36 25-4 15-1 32 6 40 14 17 16 17 48 9zm217-82c-22-5-29 3-21 25 7 17 8 17 22-2 13-18 13-20-1-23zm-1425-4c0-59-12-108-26-108-15 0-17 23-8 94 8 55 34 65 34 14zm-1200-24c0-8-4-12-10-9-5 3-10 10-10 16 0 5 5 9 10 9 6 0 10-7 10-16zm1316 2c6-17-12-56-26-56-6 0-10 16-10 35 0 25 4 35 15 35 9 0 18-6 21-14zm864-51c0-38-11-49-40-40-32 10-25 65 10 77 23 8 30 0 30-37zm-235 9c0-10-8-20-17-22-18-3-26 27-11 42 12 11 28 0 28-20zm125-9c0-19-4-35-9-35-27 0-61 21-61 38 0 25 9 32 42 32 25 0 28-3 28-35zm230-10c0-41-2-45-25-45-33 0-40 21-20 59 24 47 45 40 45-14zm125 3c-4-24-9-45-11-47-4-5-65-4-69 1-2 2-1 22 2 46 6 41 6 42 45 42h40zm113-11 3-48-33 3c-32 3-33 5-36 51l-3 48 33-3c32-3 33-5 36-51zm130 10c4-50-12-69-57-65-35 3-36 4-34 43 4 61 8 67 50 63 36-3 38-5 41-41zm-818 18c0-17-4-18-37-9s-28 24 7 24c20 0 30-5 30-15zm-200-109-1-81-29 35c-24 27-30 44-30 80 0 55 3 59 35 52 24-4 25-7 25-86zm2320 18c0-56-3-75-12-72-8 3-14 27-16 63-3 62 1 85 18 85 6 0 10-30 10-76zm-2500-76c0-79-3-167-7-196-5-47-8-53-27-50-16 2-22 12-27 43-8 59 2 318 14 333 5 6 18 12 28 12 18 0 19-10 19-142zm1265 112c0-7-6-15-12-17-8-3-13 4-13 17s5 20 13 18c6-3 12-11 12-18zm467-12c-9-9-12-7-12 12s3 21 12 12 9-15 0-24zm-1472-59c0-60-3-80-12-77-8 3-14 28-16 68-3 67 1 90 18 90 6 0 10-32 10-81zm1608 69c-3-7-21-14-41-16-28-2-37 1-37 12 0 12 11 16 41 16 28 0 39-4 37-12zm520-17c5-35-4-50-27-44-15 4-21 13-21 33 0 44 42 53 48 11zm-2547-23c3-98-3-264-9-270-4-4-14-3-22 2-12 8-15 34-13 150 1 78 5 145 8 150 4 6 13 10 21 10 10 0 14-13 15-42zm540-88c-2-69-5-129-8-133s-12-2-21 5c-12 10-14 10-8 1 9-15 1-16-23-3-16 8-18 21-15 102 2 51 6 108 9 126 6 30 9 33 38 30l32-3zm92 66c6-40 0-207-8-233-2-6-13-9-25-6-21 6-21 8-14 142 3 75 8 139 11 143 10 19 31-8 36-46zm2104 22c-3-7-5-2-5 12s2 19 5 13c2-7 2-19 0-25zm-6657 13c0-6-4-13-10-16-5-3-10 1-10 9 0 9 5 16 10 16 6 0 10-4 10-9zm4680-118c0-153-3-163-46-163h-34v94c0 51 3 114 6 140 6 44 8 46 40 46h34zm-880-9c0-88-3-115-12-112s-14 35-16 103c-3 102 0 125 18 125 6 0 10-43 10-116zm984 100c3-9-2-44-13-78s-22-85-26-112c-15-100-24-78-25 57 0 75 3 139 7 142 12 13 51 7 57-9zm1359-174c-1-100-4-184-7-187-2-3-23-7-46-10l-42-6 6 144c10 224 13 237 44 242 15 2 32 3 37 2 6-1 9-69 8-185zm-1236 39c-4-78-9-144-11-147-3-2-21-1-40 2l-35 7 5 97c3 53 7 116 10 140 5 41 6 42 41 42h36zm121 86c2-22 1-91-3-152-7-110-8-113-30-113-50 0-55 8-55 85 0 39 3 107 7 149l6 77 36-3c34-3 36-5 39-43zm921-139c-2-102-6-187-9-190s-25-8-49-12l-44-7 7 188c4 104 9 192 12 197 3 4 23 8 46 8h40zm355 178c14-5 16-28 16-144 0-76-4-150-9-163-10-25-57-45-72-30-8 9 7 318 16 334 7 10 26 12 49 3zm-1163-59c-1-27-7-55-13-62-5-7-7-16-4-22 6-10-49-33-58-24-5 6 2 128 10 151 2 8 16 12 36 10 33-3 33-3 29-53zm123 46c4-5-7-12-23-16-16-3-32-13-35-21-10-25-26-15-26 16 0 28 2 30 39 30 22 0 42-4 45-9zm474-26c2-17 1-94-3-172-7-142-7-143-33-156-15-6-33-25-40-40-29-61-35-31-29 149l7 175 33 40c37 45 61 47 65 4zm74-147c-4-92-11-170-15-174-19-19-23 23-16 169 8 164 13 197 29 181 5-5 6-79 2-176zm-1579 128c42-67 33-90-16-38-25 26-38 82-19 82 4 0 19-20 35-44zm-96-13c-3-10-5-2-5 17s2 27 5 18c2-10 2-26 0-35zm-4167 25c0-7-14-84-30-172-17-87-30-175-30-195 0-55-16-71-24-25-10 50 3 204 19 229 7 12 18 48 25 80 6 33 14 68 16 78 6 20 24 23 24 5zm6494-37c-3-221-2-211-30-221-14-6-29-8-32-6-8 5 4 251 13 266 3 5 15 6 28 1 16-6 22-16 21-40zm2426 31c0-11-100-86-106-79-3 2 10 14 29 26 18 11 42 29 52 41 20 22 25 24 25 12zm-4554-71c-10-16-23-14-30 5-9 25 4 38 21 21 9-8 12-20 9-26zm1671-118c-2-32-3-8-3 52 0 61 1 87 3 58s2-78 0-110zm573 61c0-62-3-75-19-84-11-5-23-10-27-10-8 0 3 167 12 182 3 5 12 4 20-3 10-8 14-34 14-85zm-2327-10c-1-27-2-70-2-96-1-49-15-61-48-40-13 8-18 81-14 180l3 53 31-24c28-22 31-29 30-73zm529-8c-3-41-8-56-19-56s-13 8-9 30c3 17 9 44 12 60 9 49 19 27 16-34zm-646 9c-5-64-16-69-16-7 0 29 4 52 10 52 5 0 8-20 6-45zm189 25c3-5 2-10-4-10-5 0-13 5-16 10-3 6-2 10 4 10 5 0 13-4 16-10zm1235-122c0-90-3-119-11-111s-9 45-4 122c4 61 9 111 11 111s4-55 4-122zm1087 80c-3-7-5-2-5 12s2 19 5 13c2-7 2-19 0-25zm-2322-38c0-35-4-55-13-58-10-3-13 10-10 57 3 75 23 76 23 1zm-1818-79c4-70 1-97-16-146-15-43-20-50-16-25 14 106 16 172 6 219-12 56-5 86 12 56 5-10 12-57 14-104zm2994 22c-3-113-11-137-45-141-43-5-56 13-56 77 0 51 4 60 41 104 23 26 46 46 52 44s9-35 8-84zm-1709 37c3-9-1-134-16-505-3-77-10-279-16-450-16-454-28-570-55-543-3 3-1 110 5 239 5 129 16 421 25 649 18 500 23 598 30 611 8 12 22 12 27-1zm3169-33c7-10 3-163-7-295-5-61-9-73-22-70-18 4-19 9-7 127 6 63 5 73-8 68-16-6-20 9-33 131l-7 63 39-7c22-4 42-11 45-17zm-7502-37c1-13 0-13-9 0-5 8-9 24-9 35v20l9-20c5-11 9-27 9-35zm7197 13c-3-21-6-55-6-76 0-27-4-37-12-34-9 3-12 23-9 68 3 69 6 79 23 79 7 0 8-14 4-37zm184-59c0-97-12-119-25-44-8 47 3 140 16 140 5 0 9-43 9-96zm-2934-126c-7-219-19-539-36-943-5-126-12-240-16-252-4-14-14-23-26-23-19 0-19 5-14 83 3 45 11 217 17 382 22 607 37 944 44 954 3 6 13 11 22 11 15 0 15-22 9-212zm2830 175c-11-11-19 6-11 24 8 17 8 17 12 0 3-10 2-21-1-24zm446 19c7-7 7-106-2-309-6-164-13-307-15-318s-4-43-4-72c-1-46-6-57-43-100-55-63-131-181-124-192 3-5-2-15-12-22-15-13-16-12-3 4 12 15 11 17-4 17s-16 9-11 83c6 73 15 261 31 657 3 69 8 158 11 199l6 74 80-6c44-3 85-10 90-15zm-1185-39c-3-10-5-4-5 12 0 17 2 24 5 18 2-7 2-21 0-30zm579-154c-5-146-11-199-24-225-13-28-14-39-4-54 19-30 14-42-15-38l-27 3 3 115c1 63 4 117 6 121 2 3 5 56 6 118 1 96 4 116 20 132 40 40 42 29 35-172zm782 175c23-4 44-10 47-13 2-4-1-119-8-255l-11-248-46-36c-25-20-65-54-89-76l-43-41 6 165c15 367 23 497 33 513 3 5 19 6 37 3 17-3 50-8 74-12zm-3038-4c0-5-4-10-10-10-5 0-10 5-10 10 0 6 5 10 10 10 6 0 10-4 10-10zm120 0c0-5-11-10-24-10-14 0-28 5-31 10-4 6 7 10 24 10s31-4 31-10zm-382-9c11-6 9-106-8-547-30-791-32-810-79-801-16 2-16 11-1 407 5 135 14 371 20 525 10 278 18 403 27 418 6 9 25 9 41-2zm3534-32c16-9 18-18 14-67-3-31-8-114-12-183l-6-126-74-33c-41-18-76-31-78-29-3 3 19 462 23 465 5 4 118-19 133-27zm-1118 13c3-5-1-132-8-283-9-196-16-280-26-296-12-18-12-26 0-47 7-14 11-27 9-29-7-5-83-27-85-24-8 7 30 664 38 675 12 14 64 17 72 4zm-1944-12c0-5-4-10-9-10-6 0-13 5-16 10-3 6 1 10 9 10 9 0 16-4 16-10zm-843-22c-3-8-6-5-6 6-1 11 2 17 5 13 3-3 4-12 1-19zm558 12c3-5 1-116-5-247-10-243-16-381-25-628-10-272-17-370-26-387-5-10-21-18-34-18-31 0-30-35-10 471 24 604 34 799 40 809 8 13 52 13 60 0zm2091-192c-4-106-11-278-17-383-9-185-10-190-34-208-14-10-25-23-25-28s-9-18-20-29-17-26-14-33c4-13-23-33-32-24-2 1 6 201 17 442 14 311 24 442 32 447 7 4 32 8 56 8h44zm1412 170 32-10v-76c0-133-5-148-68-192-30-22-60-40-65-40-9 0 0 316 10 333 4 7 33 3 91-15zm-3428-96c0-53-5-187-10-297s-12-283-16-385c-14-391-19-465-29-460-12 6-13 215-3 485 23 590 30 741 34 753 2 7 8 10 14 7s10-49 10-103zm108 91c23-6 24-7 18-107-4-56-11-220-16-366-25-664-29-732-41-746-7-8-24-14-38-12-30 3-28-46-11 403 26 664 32 789 40 811 10 26 13 27 48 17zm1739-3c14 0 15-19 10-162-21-510-31-714-36-720-3-3-34 19-67 50l-62 57 14 335c8 184 17 358 20 387 5 51 6 52 42 56 20 2 43 2 50 0 8-2 21-3 29-3zm-371-117c-3-65-9-187-12-270-7-143-13-176-28-137-3 8-10 13-15 9-22-13-26 32-26 262v242l30 4c17 2 36 5 44 5 11 2 13-18 7-115zm-2109 85c-3-8-6-5-6 6-1 11 2 17 5 13 3-3 4-12 1-19zm848-83c-1-136-35-1032-41-1072-4-24-10-33-24-33-18 0-20 7-20 93 0 50 4 184 9 297 6 113 15 338 21 500s13 301 16 308c2 8 12 12 21 10 16-3 18-16 18-103zm1461-45c-16-350-28-575-32-579s-43 26-108 82l-39 34 13 299c7 164 14 302 17 307 2 4 38 6 80 5l75-3zm-1874-7c-2-57-7-103-12-103-4 0-7 19-5 43 1 23 3 80 5 127 1 50 4 75 8 60 4-14 6-71 4-127zm522 141c24-9 20-63-6-92l-23-23 21-37c21-36 21-43 12-257-6-152-12-222-21-228-9-7-9-10 0-14 9-3 11-27 8-86-2-45-7-151-10-236-8-196-10-208-44-214-14-3-30-2-35 3s-3 117 3 257c6 136 14 320 17 408 8 246 22 504 29 515s26 13 49 4zm3256-9c46-24 39-54-22-111l-53-49-3 55c-2 30-1 70 3 88 7 37 28 41 75 17zm-1257-47c7-27-2-68-14-68-5 0-9 20-9 45 0 47 14 61 23 23zm-1155-76c2-52-1-82-8-82-5 0-10 21-10 48 0 26-4 61-9 79-9 33-5 46 13 40 6-2 12-39 14-85zm173 41c12-35 15-74 11-145-2-54-7-98-11-98-15 0-32 76-38 167-8 130 9 164 38 76zm2460-20c4-75-12-328-22-344-18-29-20 7-13 180 5 143 10 181 20 181 8 0 14-8 15-17zm-77-115c-3-46-8-85-10-87-7-8-25 55-26 90 0 35 19 79 35 79 5 0 5-37 1-82zm-3292 38c9-9 13-27 10-50-4-36-5-36-23-20-18 17-26 64-12 77 9 9 10 9 25-7zm789-101c-8-79-20-58-13 24 2 35 8 58 12 50s4-41 1-74zm-702 51c8-10 9-16 1-21-13-8-30 3-30 21s14 18 29 0zm399-266c-9-267-12-300-28-300-5 0-25 10-45 21l-36 22 7 166c3 91 9 204 13 251l6 84 40 12c22 6 43 9 46 5 4-3 3-121-3-261zm-3738 194c11-39 11-57-4-118-9-39-21-107-26-151-6-44-15-96-19-115l-9-35-1 30c-7 152-5 290 6 345 7 36 13 76 13 89 0 37 25 9 40-45zm3376-131c-4-111-12-200-17-201-6-3-5-10 2-18 13-16 1-18-38-8-31 8-36 45-28 191l8 125 33 14c31 13 33 16 28 54-3 27-1 40 7 40 9 0 10-48 5-197zm456 185c14-12 14-42 2-298-7-157-13-298-13-315l-1-30-60 60 11 285c6 157 13 291 15 298 2 6 9 12 17 12 7 0 20-6 29-12zm-1221-90c-5-228-31-821-36-826-8-8-6 62 10 478 8 206 15 390 15 409s3 31 6 28c4-4 6-44 5-89zm885-119c-7-210-9-226-29-226-7 0-22-3-34-7-23-7-23-7-23 101 0 59 3 159 7 221l6 112h80zm117 146c-1-27-5-134-9-237-3-106-10-188-16-188-5 0-23 7-39 16-29 15-30 18-25 62 3 26 8 127 12 225l6 178 37-3 36-3zm1520 35c3-13 0-20-9-20-8 0-14 9-14 20s4 20 9 20 11-9 14-20zm312-87c-3-60-8-155-11-212l-6-104-67 7c-74 8-87 15-73 43 6 11 29 87 51 169 53 199 55 204 86 204h26zm-2115 89c0-13-12-22-22-16s-1 24 13 24c5 0 9-4 9-8zm830-134c0-20-18-4-33 27-17 36-23 96-10 109 5 5 42-110 43-136zm-180-23c0-13-28-3-45 15-19 21-45 27-45 10 0-6 18-30 40-54 51-55 54-84 8-78l-33 4 34-35c33-35 35-57 4-57-14 0-13-4 5-23 20-22 22-31 17-118-3-52-8-118-11-147l-6-53-36 7c-20 3-41 10-46 15-10 9 10 625 21 642 4 7 93-114 93-128zm-723 13c-4-46-7-109-7-141 0-54-2-58-22-55-21 3-22 6-19 123 3 124 10 155 38 155 14 0 15-11 10-82zm783 1c0-5-4-9-10-9-5 0-10 7-10 16 0 8 5 12 10 9 6-3 10-10 10-16zm-1873-21c-3-8-6-5-6 6-1 11 2 17 5 13 3-3 4-12 1-19zm3913-66c0-64-2-70-30-90-35-26-41-49-9-32 11 7 23 9 27 6 3-3-5-234-18-512-19-403-27-507-38-512-18-6-120 18-131 32-5 6-3 125 5 271 7 143 18 382 24 530 8 183 16 277 25 290 11 19 118 84 138 85 4 0 7-31 7-68zm-1045 28c10-11 16-23 12-26-9-9-47 16-47 31 0 21 14 19 35-5zm1106-43c-8-8-11-3-11 19 1 25 2 27 11 11 8-14 8-22 0-30zm459-92c0-88-9-121-26-94-7 13-6 178 2 191 15 24 24-13 24-97zm-2570 55c0-5-4-10-10-10-5 0-10 5-10 10 0 6 5 10 10 10 6 0 10-4 10-10zm1839-190c-30-608-39-789-39-822 0-37-1-38-34-38-19 0-57 5-85 12l-51 11v46c0 25 9 223 20 440 17 346 22 396 37 414 36 40 147 127 154 120 4-5 3-87-2-183zm336 138 47-43-21-425c-12-234-24-467-27-519l-6-93-37 5c-20 3-49 10-65 16l-29 12 7 102c3 56 15 296 26 532 12 237 23 436 25 443 8 22 32 13 80-30zm-1180 22c3-5-1-10-9-10-9 0-16 5-16 10 0 6 4 10 9 10 6 0 13-4 16-10zm-5282-45c4-8 2-17-3-20-6-4-10 3-10 14 0 25 6 27 13 6zm4287 5c0-5-4-10-10-10-5 0-10 5-10 10 0 6 5 10 10 10 6 0 10-4 10-10zm893 0c9 0 17-5 17-11 0-15-73-6-78 10-4 10 1 12 19 8 13-4 32-7 42-7zm-1685-121c1-52-1-168-5-259-8-161-9-165-30-168-13-2-23 0-23 5 0 4 5 107 11 228s10 233 10 248c-2 34 7 49 22 44 8-2 13-37 15-98zm908 79c3-5 4-12 1-14-7-7-47 15-47 25 0 11 38 2 46-11zm2374-72c0-41-3-77-7-79-5-2-21 3-38 13-24 13-31 24-33 57-3 36 0 43 30 62 18 11 36 21 41 21 4 0 7-33 7-74zm-2490 45c0-6-4-13-10-16-5-3-10 1-10 9 0 9 5 16 10 16 6 0 10-4 10-9zm-681-11c12 0 13-31 7-197-9-255-12-267-55-271l-34-3 7 183c4 101 9 209 13 241 5 54 8 58 27 53 11-3 27-6 35-6zm782-10c24-13 25-30 2-30-26 0-47 16-39 29 9 14 12 14 37 1zm1286-5c17-5 6-162-13-192-14-23-118-78-131-70s3 258 17 267c11 7 101 3 127-5zm978-25c0-9-7-14-20-12-26 5-29 8-20 22 10 16 40 8 40-10zm-2145-30c5 0 8-9 7-20-1-13-8-20-22-20-16 0-17 2-5 10s11 10-7 10c-24 0-39 15-24 25 6 3 7 13 4 23-4 13 0 11 16-5 12-13 26-23 31-23zm-240-154c-7-7-10 15-10 71 0 115 14 138 18 29 2-53-1-93-8-100zm1226 109c-3-11-6-54-7-95s-4-79-7-84c-6-10-12-102-11-178 0-36-4-48-15-48-23 0-28 49-23 237 4 159 6 174 28 204l22 32 9-24c5-13 7-33 4-44zm414 38c0-64-31-731-36-762l-5-34-73 6c-40 4-80 9-90 13-19 7-19-2-2 346l13 266 49 58c54 65 125 134 137 134 4 0 7-12 7-27zm-1500 7c0-5-10-11-22-11-16-1-18-3-7-6 22-5 27-27 20-88-5-45-8-50-31-50-14 0-24 5-23 11 1 7 3 44 4 83l2 71h28c16 0 29-4 29-10zm2236-164c-4-88-13-287-21-441s-15-297-15-317c0-45-12-48-71-18l-39 21 5 77c4 42 15 247 25 454 10 208 21 381 23 385 3 5 27 7 53 5l47-4zm200 91c-6-74-11-87-25-71-6 5-6 29 0 59 5 27 7 56 4 63-7 18 4 34 17 26 6-4 7-34 4-77zm-3136 51 30-22-6-140-5-141-37-32-37-31-3 71c-5 103 8 317 19 317 6 0 23-10 39-22zm790-50-25-10 23-9c17-6 22-16 22-43 0-29-4-34-27-39-35-7-43 5-43 66v47l38-1c35 0 36-1 12-11zm115 2c4-6-5-10-19-10s-26 5-26 10c0 6 9 10 19 10 11 0 23-4 26-10zm2135-483c-12-249-24-453-25-455s-19 5-40 15l-37 18 6 70c3 38 13 238 23 443 9 205 21 378 25 385 10 15 30-11 23-30-2-7 0-15 5-18 6-4 10 10 10 32 0 37 0 37 16 15 15-21 14-60-6-475zm-2925 463c18-8 17-9-7-9-15-1-30 4-33 9-7 12 12 12 40 0zm-7-50c10 0 32-51 32-73 0-19-54-77-71-77-10 0-12 122-3 157 5 20 8 20 21 8 8-8 17-15 21-15zm782-26c0-2-9-4-21-4-11 0-18 4-14 10 5 8 35 3 35-6zm762-72c-3-42-8-62-15-59-12 4-11 112 0 130 12 20 19-12 15-71zm307-33 2-89h-56c-77 0-95 11-95 59 0 35 3 39 50 61 45 21 94 60 76 60-4 0-4 5 0 11 13 22 21-13 23-102zm-6852-11c3-52 2-121-2-154l-8-59-12 35c-7 19-29 68-49 107-38 77-43 99-23 123 24 31 70 61 79 52 5-5 12-52 15-104zm6818 93c-27-23-104-61-109-52-4 5 17 21 46 34 56 27 79 33 63 18zm1198-73c6-70-10-339-22-351-19-19-21 16-11 190 5 98 10 186 10 196 0 9 4 17 9 17s11-24 14-52zm-2125-40c-3-26-25-33-74-23-43 8-44 22-1 34 58 17 79 14 75-11zm72 18c0-3-4-8-10-11-5-3-10-1-10 4 0 6 5 11 10 11 6 0 10-2 10-4zm876-125c9-10-1-331-11-360-4-10-20-12-65-8-32 3-64 8-69 12-7 4-10 32-6 78 2 40 5 80 5 90 0 11 4 15 12 11 8-5 9-2 3 12-15 36-17 64-10 119l6 55h63c34 0 66-4 72-9zm-2178-103c-3-68-5-73-26-76-24-4-24-3-17 65 8 77 11 83 31 83 12 0 14-14 12-72zm119 56c5-15-51-84-69-84-9 0-11 61-2 84 8 21 63 21 71 0zm-348-66c-1-102-11-159-31-172-9-5-19-8-22-5-7 6 10 224 18 238 4 6 14 11 22 11 11 0 14-16 13-72zm121-13c0-83 0-85-30-100-16-8-34-15-40-15-11 0-13 82-4 154 6 44 8 46 40 46h34zm-221-72c-1-82-4-173-7-203-7-54-8-55-41-58l-34-4 7 198c4 109 9 201 12 206 3 4 18 8 35 8h29zm-123-60c-7-185-16-242-32-199-8 20 2 315 12 365 4 17 11 31 17 31 7 0 8-64 3-197zm-77 40c-1-82-4-173-7-203-7-53-8-55-40-58l-33-3 6 163c3 90 8 182 11 206 5 39 8 42 35 42h29zm-4139 102c0-8-2-15-4-15s-6 7-10 15c-3 8-1 15 4 15 6 0 10-7 10-15zm3957-172c-2-104-8-196-12-206-5-11-16-17-29-15-21 3-21 6-18 198 2 107 6 198 9 203 2 4 16 7 30 7h26zm1822 148c23-31 19-41-16-41-20 0-23 5-23 35 0 42 12 44 39 6zm-1978-148c-1-152-8-206-24-200-22 7-28 65-21 202 6 134 15 168 38 145 5-5 8-71 7-147zm219 47c0-44-4-80-9-80s-7 15-5 33c1 17 3 53 3 80 1 26 3 47 6 47s5-36 5-80zm-340-71c0-100-3-130-12-127-28 10-29 258-2 258 11 0 14-27 14-131zm1570 80c0-23-6-32-26-39-33-13-42-7-36 25 5 27 39 58 54 49 4-3 8-19 8-35zm1286 15c-3-9-6-29-6-45s-4-29-10-29c-5 0-10 20-10 45 0 35 4 45 16 45 11 0 14-5 10-16zm-1156-3c0-10-80-32-91-25-5 3-6 11-2 19 6 16 93 22 93 6zm1080-11c0-23-22-27-39-7-13 16-5 27 21 27 11 0 18-7 18-20zm-126-23c16-11 17-30 14-180-3-179-7-193-58-199l-25-3 2 155c3 198 9 240 32 240 9 0 25-6 35-13zm-670-12c16-12 19-26 17-92-3-124-8-143-42-143-15 0-30 3-32 8-6 9 11 221 18 233 8 12 16 11 39-6zm-514-10c0-15-24-28-76-41-41-10-27 26 16 42 47 17 60 17 60-1zm669-38c58-35 75-57 44-57-11 0-28-7-39-15-22-17-12-20 18-4 15 8 23 8 32-1 8-8 3-19-21-41-18-16-33-30-33-32 0-3 12-4 28-3 24 1 27-2 24-29-2-16-7-33-10-37-4-3-33-2-65 4-75 13-81 27-72 165 7 91 9 101 24 93 9-6 40-25 70-43zm52 43c21-12 24-27 9-50-8-12-14-10-40 15-16 16-30 32-30 37 0 11 38 10 61-2zm347-161c-3-93-9-174-14-179s-26-4-50 2c-39 11-42 14-47 52-8 59 4 266 16 273 11 7 64 20 86 22 11 1 13-28 9-170zm1778-18c-4-96-9-177-11-179s-9-1-15 3c-8 5-9 48-5 143 8 178 13 224 27 216 8-5 9-60 4-183zm-3101 143c3-20 4-38 1-41-2-3-18 5-35 18-43 32-41 59 5 59 17 0 23-7 29-36zm667-6c2-56-3-152-8-157-2-2-13 4-24 14-17 15-20 31-20 102 0 82 0 83 25 83 22 0 25-4 27-42zm-550 16c3-3 4-13 1-24-7-26-39-31-59-9-16 18-16 19 7 28 28 11 44 13 51 5zm366-30c-3-35-4-36-51-40-47-3-48-3-45 23 2 21 11 29 43 39 57 17 57 17 53-22zm607 19c16-15 16-18-5-33-15-12-19-19-11-24 14-9-1-41-24-50-12-4-15 5-15 59 0 58 2 65 19 65 11 0 27-8 36-17zm467-135c-1-115-2-123-24-140-13-10-27-18-31-18-11 0 3 257 15 289 8 23 10 23 25 8 14-13 16-38 15-139zm-387 70c-11-154-15-190-20-197-2-5-28-3-57 4-53 11-53 12-62 58-10 50 4 83 31 73 15-6 67 17 77 33 3 5-1 25-9 45-21 49-19 56 15 56h30zm-597 29c2-10 1-25-2-33-9-24-46 2-46 32 0 21 4 25 22 22 13-2 24-11 26-21zm-1456-41c-6-48-12-46-12 5 0 22 4 38 8 35s6-21 4-40zm864 30c18-14 18-15-6-24-30-12-40-7-40 19 0 23 19 25 46 5zm362-8c-4-31-58-40-58-10 0 25 8 32 37 32 20 0 24-5 21-22zm1282-83c0-50-4-85-10-85-11 0-14 111-4 148 11 39 14 24 14-63zm-1380 61c0-18-6-22-53-30-34-6-38-5-35 10 5 28 88 46 88 20zm-497-21c-3-9-8-14-10-11-3 3-2 9 2 15 9 16 15 13 8-4zm-113-30c-14-16-40-20-40-6 0 13 44 40 48 30 2-6-2-16-8-24zm210 25c0-5-4-10-10-10-5 0-10 5-10 10 0 6 5 10 10 10 6 0 10-4 10-10zm-320-30c0-5-5-10-11-10-5 0-7 5-4 10 3 6 8 10 11 10 2 0 4-4 4-10zm348-74c3-21-5-37-29-62-18-18-36-31-41-28-4 3-8 25-8 49 0 34 5 47 23 60 31 22 51 15 55-19zm-1098 2c0-34-11-68-21-68-5 0-9 20-9 45 0 33 4 45 15 45 9 0 15-9 15-22zm750-31c0-63-9-87-32-87-19 0-20 4-14 62 10 88 46 107 46 25zm118-29c3-72 1-78-17-78-46 0-51 9-51 87v74l33-3 32-3zm-214 50c9-36 7-86-5-93-5-4-21-4-35-1-22 6-24 11-24 61 0 54 1 55 29 55 21 0 30-6 35-22zm-128-65c-3-8-10-11-16-8-10 6-6 42 8 75 8 19 16-46 8-67zm-73 41c5-29-16-43-42-27-23 15-25 40-4 46 35 9 41 7 46-19zm522-82c-5-29-10-33-33-30-36 4-43 49-11 71 11 9 19 21 17 29-3 7 2 18 11 25 14 10 16 6 19-25 2-20 1-51-3-70zm3406 71c-9-16-10-14-11 12 0 21 3 26 11 18s8-16 0-30zm-2400 7c14-8 19-21 19-50 0-47-7-49-43-12-46 48-30 90 24 62zm197-31c21-8 23-14 20-66l-3-58-49-8c-42-7-54-5-75 11-23 17-26 26-23 68 3 74 5 76 59 68 27-4 58-11 71-15zm-1909-17c8-15-3-399-12-408-2-2-12-1-24 2-27 7-35 64-28 208 10 191 14 216 35 216 11 0 24-8 29-18zm-157-172c-2-96-7-178-10-182-4-4-14-3-21 2-12 7-14 41-13 175 1 92 5 171 8 177 3 5 13 8 22 6 15-3 17-22 14-178zm2248 150c49-26 2-74-82-82-26-2-33 1-32 15 0 9 1 33 2 53l2 37 45-7c25-3 55-10 65-16zm480-9c0-11-4-23-10-26-6-4-10 5-10 19s5 26 10 26c6 0 10-9 10-19zm-2400-1c16-10 16-57 4-267l-6-103h-70l6 143c9 202 14 237 34 237 10 0 24-5 32-10zm-447-32c3-18 2-79-1-135-4-77-8-103-19-103-10 0-13 27-13 128 0 71 3 132 7 135 13 14 21 6 26-25zm2488 12c20 0 7-18-17-24-31-8-39-3-30 20 4 10 12 14 22 10 9-3 20-6 25-6zm-1956-32c10-55-8-301-22-306-10-3-13 21-13 100 0 187 19 295 35 206zm2235 7c0-25-23-35-35-15-10 16 2 40 20 40 9 0 15-9 15-25zm-2116-129c-1-132-2-140-24-158-12-10-29-18-38-18-13 0-14 19-10 149 3 82 9 154 13 161 4 6 19 10 33 8l27-3zm-323-103-9-48-1 61c0 34 2 97 7 140l7 79 3-92c1-50-1-113-7-140zm419 124c0-102-7-127-37-127-14 0-18 100-7 184 5 36 11 46 25 46 17 0 19-9 19-103zm128 48c3-35-2-45-38-80l-40-39v66c0 88 5 100 44 96 28-3 31-6 34-43zm1774-61c-8-202-25-274-65-274-12 0 1 324 14 358 9 22 11 23 31 10 21-14 22-22 20-94zm-1720 74c-7-7-12-8-12-2 0 14 12 26 19 19 2-3-1-11-7-17zm1572-140c-3-79-9-148-13-155-4-9-16-5-38 13l-32 25 6 117c6 125 13 142 61 142h23zm-874 114c0-13-12-22-22-16s-1 24 13 24c5 0 9-4 9-8zm710-47c0-50-4-52-55-28-24 11-35 23-35 38 0 30 8 35 52 35h38zm414-56c-1-118-10-169-30-169-14 0-15 13-9 98 9 136 15 174 28 169 8-3 12-35 11-98zm-1194-18c0-106-8-125-41-95-15 14-19 31-19 90 0 64 3 75 22 88 12 9 26 16 30 16 5 0 8-45 8-99zm140 35c0-7-7-32-15-55-10-30-12-49-4-68 5-14 7-28 5-31-3-2-26-1-51 3-36 5-45 10-41 22 3 8 6 32 6 54 0 27 4 39 14 39 8 0 28 11 43 25 32 28 43 31 43 11zm206-63c-8-88-15-113-32-113s-17-6 1 82c18 85 22 98 31 98 4 0 4-30 0-67zm424 21c0-14-3-14-15-4-8 7-15 14-15 16s7 4 15 4 15-7 15-16zm-550-69c0-47-3-55-19-55-29 0-33 27-11 71 11 21 23 39 25 39 3 0 5-25 5-55zm-841 30c-9-37-12-45-20-45-11 0-12 44-2 54 9 9 25 3 22-9zm-74-44c-7-12-58-15-68-4-4 3 2 17 14 29 21 22 22 22 41 4 11-10 17-23 13-29zm-139 24c-11-8-22-12-25-9-6 6 19 24 34 24 6-1 1-7-9-15zm-731-94c-4-36-11-70-15-75-17-18-27 6-23 56 6 83 11 98 29 91 13-5 14-17 9-72zm745 69c0-5-7-10-16-10-8 0-12 5-9 10 3 6 10 10 16 10 5 0 9-4 9-10zm1574-9c10-11 15-25 11-31-4-7-14-2-26 14-31 39-18 53 15 17zm-184-58c0-7-4-13-10-13-5 0-10 3-10 8 0 4-3 18-6 32-6 24-6 25 9 5 9-11 17-26 17-32zm-2025-9c0-19-6-30-17-32-14-3-18 3-18 26 0 16 3 32 7 36 14 13 28-1 28-30zm2170-10c33-22 32-36-2-32-20 2-29 9-31 26-4 26 1 27 33 6zm184-13c28-21 21-41-15-41-20 0-24 5-24 30 0 35 6 36 39 11zm281-91c0-80-6-93-30-65-11 14-7 116 7 138 14 24 23-3 23-73zm77 38c-3-8-6-5-6 6-1 11 2 17 5 13 3-3 4-12 1-19zm-187-33c0-39 1-39-34-25-40 15-27 60 16 60 14 0 18-8 18-35zm190-35c0-5-4-10-10-10-5 0-10 5-10 10 0 6 5 10 10 10 6 0 10-4 10-10zm0-40c0-5-4-10-10-10-5 0-10 5-10 10 0 6 5 10 10 10 6 0 10-4 10-10z"/>
  <path d="m6431 8334c0-11 3-14 6-6 3 7 2 16-1 19-3 4-6-2-5-13z"/>
  <path d="m8089 4693c-13-16-12-17 4-4s21 21 13 21c-2 0-10-8-17-17z"/>
  <path d="m4325 11849c-33-65-98-230-92-235 2-2 16 29 32 68 15 40 43 104 62 142 19 37 32 70 29 73-2 3-17-19-31-48z"/>
  <path d="m4256 11798c-8-12-29-53-45-90-17-36-35-69-41-73-13-8-73-125-67-131 2-3 10 9 17 25 7 17 19 36 28 43 13 11 14 9 8-17-13-50 0-26 44 85 22 58 50 120 61 139 23 38 19 55-5 19z"/>
  <path d="m4230 11379c-12-16-21-32-18-34 2-2 13 12 26 31 28 42 21 45-8 3z"/>
  <path d="m6620 9700c24-8 137-14 129-6-2 2-38 6-79 9-44 3-65 2-50-3z"/>
  <path d="m8330 8955c0-7 78-45 90-45 6 0 9 4 6 9-6 10-96 43-96 36z"/>
  <path d="m8490 8876c0-3 14-12 30-21 17-9 30-13 30-11 0 3-13 12-30 21-16 9-30 13-30 11z"/>
  <path d="m8530 8811c48-43 66-52 51-23-5 9-29 28-53 40l-43 24z"/>
  <path d="m8813 7673c15-2 39-2 55 0 15 2 2 4-28 4s-43-2-27-4z"/>
  <path d="m8718 7634c52-11 81-12 100-5 24 8 21 10-24 10-28 1-73 3-100 6-37 3-31 1 24-11z"/>
  <path d="m2672 4500c0-14 2-19 5-12 2 6 2 18 0 25-3 6-5 1-5-13z"/>
  <path d="m2282 4310c0-14 2-19 5-12 2 6 2 18 0 25-3 6-5 1-5-13z"/>
 </g>
</svg>
