<?xml version="1.0" encoding="UTF-8"?>
<svg width="320px" height="406px" version="1.0" viewBox="0 0 877.27 1114.4" xmlns="http://www.w3.org/2000/svg" xmlns:cc="http://creativecommons.org/ns#" xmlns:dc="http://purl.org/dc/elements/1.1/" xmlns:rdf="http://www.w3.org/1999/02/22-rdf-syntax-ns#">
 <metadata>Created by potrace 1.15, written by Peter Selinger 2001-2017
  <rdf:RDF>
   <cc:Work rdf:about="">
    <dc:format>image/svg+xml</dc:format>
    <dc:type rdf:resource="http://purl.org/dc/dcmitype/StillImage"/>
    <dc:title/>
   </cc:Work>
  </rdf:RDF>
 </metadata>
 <rect x="63.577" y="155.03" width="743.33" height="800.39" fill="#fff"/>
 <g transform="matrix(.064458 0 0 -.056429 106.78 919.04)" fill="#13315c">
  <path d="m7394 12703c-129-117-258-239-659-628-652-631-892-856-1102-1033-146-122-173-158-173-224 0-37-4-48-16-48-40 0-160 78-250 162-103 95-128 112-187 122-67 12-62 66 13 138 62 60 129 94 213 108 113 20 139 75 71 150-67 74-199 120-344 120-129 0-219-32-352-123-34-25-73-48-85-51-36-11-28 13 18 53 104 92 109 98 109 132 0 19-7 68-16 109-17 85-12 151 18 222 21 49 88 119 133 140 40 18 29 28-28 28-81 0-141-25-202-84-92-91-130-190-145-387-14-181-52-262-144-305-43-20-67-24-148-24h-97l-5 33c-14 86-39 427-40 548-1 134-1 136 32 197 47 91 41 128-17 98-36-19-103-94-127-144-16-31-19-61-19-182 0-80 4-219 9-310 8-143 7-167-6-178-40-33-84 45-123 218-14 63-48 180-75 260-66 196-68 207-29 292 23 49 29 72 22 79-15 15-85-57-112-114-53-109-47-212 22-386 51-128 57-217 20-287-28-53-57-71-133-83-82-13-145-45-202-102-65-65-75-103-60-232 14-116 15-177 4-193-4-7-56-14-122-18-231-15-415-47-464-82-34-24-66-16-111 25-71 65-157 75-250 29-90-45-146-125-147-210 0-62 25-102 69-106 24-2 42 7 89 48 50 42 64 50 94 48 34-3 35-4 35-45 0-53 30-86 104-114 43-16 68-19 108-15 66 8 73-2 80-130 4-55 10-94 16-94s30 21 54 48c40 44 44 46 57 29 7-10 22-47 32-82 10-36 22-65 25-65s14 21 24 48c25 64 57 113 96 147 33 27 35 28 134 22 154-10 405-74 405-104 0-19-62-104-179-248-67-82-154-189-192-236-89-109-130-134-208-125-66 8-75 1-86-56-11-56-25-63-99-50-82 16-91 15-111-4-20-20-16-41 27-138 37-85 34-113-20-205-22-36-42-76-46-87-15-50 69-36 178 29 64 38 74 41 143 42 72 0 74 1 109 38 19 20 44 37 55 37s45-13 76-30c31-16 63-30 72-30 45 0 53 58 20 148-37 101-47 139-41 149 13 18 236 176 290 204 60 32 103 37 122 14 11-13 11-26 2-66-13-55-10-69 15-69 40 0 101 97 157 250l23 65 8-130c7-126 15-165 35-165 14 0 55 76 96 180 40 102 58 133 49 85-7-39-35-266-35-281 0-16 194 183 238 244 58 80 92 158 117 270 14 59 33 136 42 171l16 63 49-5c54-7 358-94 372-108 16-15-15-67-100-166-152-176-224-365-210-548 14-192 117-390 229-444 89-43 106-33 253 164 88 117 130 163 141 152 10-11-23-73-75-141-73-96-238-257-339-330-123-90-194-170-249-281-46-95-46-96-24 45 14 91 12 206-4 266-33 125-124 232-215 254-77 18-224 26-376 18-319-15-572-113-751-292-90-90-125-153-132-233-4-48-1-58 42-130 45-76 46-79 46-166 0-105 8-124 92-214 70-76 107-150 118-239 5-36 15-76 24-90 9-13 55-43 103-67 121-59 120-70-4-61-95 6-101 5-173-25-41-17-140-69-219-116-170-101-286-165-296-165-22 0 47 53 224 172 252 169 270 184 293 235 16 37 17 50 8 106-7 36-20 79-31 97-18 29-24 32-56 27-92-15-712-349-870-468-62-48-144-99-156-99-4 0-7 6-7 14 0 32 447 328 693 459 168 88 240 137 251 168 13 39-42 156-79 165-34 8-132-16-309-76-388-132-674-265-1131-528-148-85-273-157-277-159-27-15 4 13 79 73 123 97 352 232 641 377 390 195 715 326 860 347 88 12 134 30 156 61 25 36 19 66-24 131-49 74-60 112-60 211 0 42-3 77-6 77-4 0-133-38-288-84-1061-319-1475-392-2231-397-212-1-256-6-263-27-2-8 21-38 51-67 55-53 124-85 185-85 34 0 220-44 334-79 176-54 204-79 201-180-2-100-55-193-287-506-69-93-133-185-143-202-16-30-16-34-1-49s21-14 80 13c35 17 110 70 167 117 147 123 176 135 262 110 108-32 149-106 149-267 0-113-17-190-59-275-63-126-120-331-100-364 12-19 49 6 98 67 89 111 301 261 418 295 61 18 91 7 113-43 24-51 25-104 4-204-18-90-27-114-110-299-62-139-87-224-66-224 20 0 118 86 292 255 176 172 234 220 313 255 54 25 88 25 121-1 31-25 33-51 6-113-33-79-70-309-85-536-8-114-18-130-84-130-84 0-121 40-121 130 0 68-70 95-119 46-22-23-26-35-26-85 0-51 4-64 31-98 17-21 57-51 88-68 49-25 72-30 152-33 52-3 94-7 94-11 0-12-93-41-130-41-53 0-103 17-235 77-66 31-151 66-190 80-73 25-194 40-238 29-61-15-30-69 46-79 56-8 145-51 213-103 139-107 182-136 262-177 97-50 178-77 232-77 72 0 75-7 76-202 2-180 11-307 45-618 39-356 59-443 178-810 219-672 262-845 296-1183 15-158 27-223 42-238 5-5 23 2 43 16 88 65 107 6 90-264-8-120-8-175 0-195 10-28 12-28 58-21 26 4 63 8 82 9 34 1 35 0 38-41 4-56-22-207-49-278-12-32-31-62-45-71-45-30-17-94 42-94 11 0 28-8 36-17 40-46 27-139-39-290-78-178-59-215 61-118 38 30 73 55 77 55 15 0 22-72 15-155-7-93-19-134-54-188-20-31-24-43-16-64 14-39 52-62 122-71 36-5 68-15 73-23s6-50 3-94c-6-90 8-132 59-169 24-18 32-19 71-8 54 14 93 4 145-37 64-51 158-89 253-102 77-11 93-11 142 4 81 26 118 83 83 130-7 11-41 24-80 32-85 18-156 64-262 170-203 204-277 375-409 950-85 366-149 588-341 1180-68 209-135 418-148 465-91 312 13 92 172-362 82-236 122-315 175-343 85-46 136-249 113-451-10-85-5-90 73-69 57 15 75 12 85-13 4-9 10-94 15-188 4-94 13-180 19-191 6-12 23-25 39-31 66-23 100-167 126-530 16-220 16-220 123-232 87-9 142-34 218-99 32-28 66-51 75-51 8 0 35 14 59 30 24 17 50 30 57 30 18 0 44-40 44-68 0-37 18-62 45-62 50 0 57 56 20 163-44 125-108 220-236 347-123 122-163 177-240 331-66 132-120 277-178 481-81 286-164 471-347 780-107 179-263 477-318 605-44 103-92 251-105 323-20 112-20 120-11 120 19 0 180-345 391-834 45-106 84-180 104-202 29-30 37-33 83-31 44 2 55-2 81-27 44-43 71-124 81-244 9-121 22-142 81-142 63 0 67-10 99-264 14-109 30-151 75-192l35-32-2-103c-3-124 4-143 109-264 139-161 290-261 409-272 49-4 63-2 83 14 23 19 23 20 7 51-9 17-56 75-104 129-137 153-172 219-269 513-85 255-168 459-266 650-145 283-158 310-175 376-16 62-16 64 4 91 12 15 33 29 47 31 35 4 73-48 116-160 48-124 65-142 142-148 57-4 65-8 84-36 12-18 30-78 43-144 21-106 34-140 52-140 4 0 35 23 70 51 108 87 125 60 95-147-21-151-20-154 74-132 64 14 76 5 91-70 20-107 62-172 142-223 41-27 51-30 59-18 11 16 5 96-21 269-49 315-112 455-289 631-86 86-141 129-296 231-211 140-338 241-465 374-165 172-263 321-299 454-51 191-54 461-4 477 35 12 176-279 238-493 15-49 31-129 36-178 11-104 29-142 59-126 11 6 22 23 26 38 28 131 107 180 190 117 74-57 118-156 129-290 13-171 44-176 129-23 75 137 113 110 162-112 26-117 38-129 92-91 38 26 68 34 90 22 26-14 66-93 95-191 15-47 33-94 42-105 15-19 15-19 29-2 38 49 26 285-19 420-30 88-86 171-208 307-122 137-191 230-228 306-29 62-50 167-39 198 5 15 8 14 27-6 12-13 38-52 59-88 41-71 78-110 104-110 25 0 51-33 70-92 9-28 22-54 28-56 12-4 49 110 61 190 5 27 4 68 0 91s-8 45-9 49c0 4-14 23-32 43-34 40-77 64-177 102-124 47-115 62 44 70 127 7 187-6 263-58 31-21 65-39 75-39 28 0 37 41 23 103-14 61-77 190-108 224-69 74-214 64-309-22-71-64-118-39-126 67-5 54 0 79 31 173 43 128 134 321 166 350l22 20 25-30c13-17 92-131 175-255 205-305 287-410 322-410 29 0-30 139-150 352-128 228-199 396-192 454 2 16 9 29 17 29 7 0 51-63 97-139 103-171 141-218 197-245 43-21 127-29 127-13 0 5-12 15-26 23-45 23-101 96-153 197-53 105-86 204-77 229 7 16 48 16 244-3 42-4 62-3 62 4 0 12-31 50-126 154-141 155-182 362-97 493 31 47 39 35 24-35-16-73-13-119 8-167 31-68 54-77 187-74 107 2 119 0 191-29 42-17 86-30 97-28 37 5 26 74-28 184-47 94-97 155-174 212-35 25-41 49-17 59 28 10 141-54 189-108 25-28 46-57 46-63 0-33 81-76 144-76 44-1 85-21 99-49 19-38 43-49 64-28 39 38-30 245-106 317-20 20-72 53-114 74-84 41-104 64-87 96 14 25 40 25 72 0 36-28 72-40 151-50 72-9 107-29 107-62 0-23 22-23 43 0 22 24 22 94 0 155-20 56-75 124-109 138-44 16-30 50 109 255 52 77 113 173 137 214 52 91 82 131 182 238 108 116 118 141 122 293 3 128 9 150 56 209 26 33 50 146 50 241 0 98 16 185 43 229 19 30 22 55 28 220 8 208 16 240 70 259 46 16 102 0 274-78 188-86 290-122 441-156 300-67 591-34 869 99 49 24 173 98 275 165 289 191 436 253 552 231 27-5 58-15 70-21 46-25 111-96 165-183 144-231 263-338 445-404 100-36 234-37 323-2 84 32 195 143 220 219 29 87 7 165-66 241-59 60-111 83-205 88-97 5-168-14-220-61-63-54-77-110-50-187 19-52 39-49 87 15 52 68 110 105 168 105 119 0 169-106 108-227-44-86-105-123-201-123-177 0-218 37-368 341-121 244-150 281-265 341-220 116-389 119-571 11-35-21-138-94-230-163-247-185-368-252-548-302-68-19-105-22-259-22-165-1-189 1-295 28-228 56-505 171-561 233l-24 26 36-6c19-3 93-26 165-52 390-142 716-152 996-30 154 66 313 176 638 441 379 308 530 365 825 311 237-44 412 3 522 141 160 200 309 277 440 227 182-70 223-306 78-451-80-79-166-90-199-25-38 73-29 156 25 231 37 51 29 65-33 55-168-29-216-346-64-431 52-30 146-48 203-40 74 9 165 59 218 118 93 104 164 254 151 322-13 69-180 263-267 311-52 29-58 30-184 30-130 0-130 0-205-37-41-21-134-84-206-141s-154-113-182-125c-68-30-146-28-285 4-102 24-126 26-262 21-274-9-308-28-745-427-269-245-431-346-630-396-88-21-433-31-538-15-113 18-196 45-295 95-110 57-361 246-345 261 2 3 88-37 189-89 327-167 482-211 704-203 158 6 237 27 390 102 155 76 226 126 331 230 114 114 194 234 332 500 60 116 125 235 145 266 167 260 354 389 561 389 94 0 121-6 278-66 161-60 191-58 168 11-45 136-346 218-624 169-169-29-271-80-373-187-83-86-150-193-286-454-198-380-276-499-384-588-229-189-569-251-873-159-191 58-426 207-607 386-90 89-127 150-143 240-8 38-26 79-56 125-37 55-44 74-40 100 4 31 72 200 85 216 4 4 1-32-6-80-18-116-12-217 14-246 33-35 45-66 53-133 10-81 36-117 113-156 96-47 222-133 334-224 56-46 104-84 108-84 3 0 47 43 97 96 155 161 158 162 381 132 86-11 160-19 162-16 3 2 13 47 24 99s29 120 41 150c50 128 171 278 237 296 36 9 72 9 209-2 79-5 113-5 118 3 10 17-18 64-84 139-33 37-75 97-93 133-28 57-32 74-32 145 0 68 5 89 29 138 62 127 206 244 429 346 65 30 116 56 114 58-3 2-70-3-151-12-158-16-203-12-278 26-91 46-188 163-188 227 0 53 47 138 117 212 87 93 148 138 281 209 62 33 129 72 149 87 33 25 34 28 18 40-23 17-83 23-320 33-235 9-251 14-292 94-38 74-36 133 7 217 49 97 124 204 184 263s76 85 76 121c0 47-39 35-185-53-174-105-288-147-354-131-64 15-83 105-57 256 34 196 108 375 188 455 42 42 49 54 46 82-2 20-9 33-19 35-9 2-63-39-125-95zm-38-978c-56-50-369-265-696-480-280-183-358-231-366-222-19 18 71 88 389 301 301 202 683 437 707 435 3 0-12-15-34-34zm398-436c-21-34-462-204-481-185-12 12 172 94 352 157 116 41 141 46 129 28zm-1658-226c8-44-47-336-61-321-8 8 13 316 24 336 17 32 29 27 37-15zm1124 20c0-18-27-47-55-59-43-18-108-19-103-2 5 14 86 64 114 70 20 4 44-1 44-9zm-210-90c0-21-202-125-441-227-148-63-189-76-189-58 0 31 313 183 550 268 72 26 80 27 80 17zm-3289-143c80-25 129-54 129-77 0-20-48-105-78-140-61-70-155-95-200-53-41 39-54 78-50 151 4 74 20 102 73 125 40 18 53 17 126-6zm1623-192c12-33-1-76-27-92-15-9-22-7-38 13-21 26-24 47-9 86 14 37 60 32 74-7zm311-142c72-49 153-125 134-126-30 0-259 132-259 150 0 32 59 21 125-24zm1745 35c0-13-19-18-140-35-170-24-244-30-237-19 20 33 377 83 377 54zm-542-96c2-2 1-8-3-14-8-13-92-15-99-2-13 20 83 35 102 16zm-215-54c-24-20-150-76-221-97-72-22-46 6 49 53 92 47 131 61 169 62h25zm-985-91c37-23 41-51 12-80-28-28-75-26-105 5-24 23-34 73-18 88 13 14 79 6 111-13zm188-31c6-19 18-55 27-81 8-25 43-93 76-149 59-100 71-129 52-129-11 0-87 83-124 137-42 61-76 152-77 204 0 70 26 80 46 18zm1379-360c188-26 116-40-236-46-349-6-588 12-540 41 39 25 612 28 776 5zm-1377-15c29-20 28-49-3-79-30-31-62-32-92-3-62 58 23 133 95 82zm720-334c14-11 57-30 96-42l71-22-45-7c-57-9-203-11-224-3-24 9-19 32 13 65 35 34 54 36 89 9zm-1368-105c-17-58-50-109-63-96-11 11 24 129 52 171l16 25 3-30c2-16-2-48-8-70zm1724-24c40-22 45-41 11-41-32 0-81 24-88 44-12 31 20 30 77-3zm-970-17c45-44-16-154-85-154-5 0-21 11-34 25-29 28-32 70-9 103 29 41 99 55 128 26zm-15-421c16-16 32-42 36-60 5-27 2-37-20-59s-32-25-63-21c-43 7-82 47-82 83 0 31 50 84 79 84 11 0 34-12 50-27zm102-467c23-37 24-67 4-106-34-65-98-79-146-31-52 52-30 135 43 166 42 17 77 7 99-29zm-1607-386c28-62 59-191 53-219-8-37-117 230-117 286 0 25 1 25 19 9 10-9 31-44 45-76zm1479-121c23-32-3-119-39-133-54-21-106 10-119 71-5 27-2 37 19 58 34 34 117 36 139 4zm-1185-453c44-42 51-56 28-56-15 0-116 107-116 124 0 10 23-8 88-68zm1145 2c15-22 0-82-28-112-24-26-67-34-91-18-16 10-34 48-34 70 0 67 119 114 153 60zm-2304-203c62-53 89-68 149-84 50-14 62-36 62-112 0-54-11-62-36-24-20 31-47 39-76 24-28-14-107-81-203-169-81-76-71-59 39 60 88 96 116 135 116 166 0 13-20 40-50 68-76 71-107 65-274-59-129-95-278-227-423-375-76-77-139-137-141-135-10 9 113 147 245 276 145 141 350 318 435 375 67 46 93 44 157-11zm1396-124c19-43 20-82 2-75-19 7-46 66-53 117l-6 42 21-25c12-14 28-40 36-59zm-3085-22c-95-89-237-199-259-199s-10 19 40 64c45 41 92 77 244 189 85 62 75 40-25-54zm592-96c-136-148-461-467-468-460-15 15 187 249 325 374 86 79 202 172 215 173 4 0-28-39-72-87zm3252-32c39-43-1-87-64-71-35 8-40 52-8 74 30 21 51 20 72-3zm-697-131c-3-65-12-129-25-167-20-64-70-158-79-150-2 3 5 36 16 74 18 59 47 190 77 348 12 63 17 14 11-105zm-1157 59c0-40-141-179-181-179-26 0-24 10 9 56 61 84 172 164 172 123zm168-36c6-16 13-44 16-64 8-49 71-118 149-166l62-38-65-6c-36-4-74-10-85-14-43-17-123-74-183-129-34-32-62-53-62-48 0 6 4 13 9 16 12 8 114 165 129 199 18 42 15 66-13 99-24 28-30 56-25 123 4 58 49 77 68 28zm-394-205c-10-18-105-151-115-162-5-6-9 4-9 24 0 28 10 44 60 92 57 56 79 71 64 46zm1870-10c19-27 21-68 3-92-18-25-65-17-90 15-16 23-17 30-6 50 27 51 68 63 93 27zm-2850-160c-59-100-149-218-166-218-4 0-8 14-8 32 0 26 14 45 85 115 82 79 105 98 89 71zm2605-163c21-20 22-26 11-39-17-21-69-20-92 1-22 20-23 31-1 55 20 22 47 16 82-17zm-1715-27c-4-7-33-48-63-91-51-70-56-75-59-52-4 32 26 78 80 123 43 34 54 39 42 20zm579-1c42-18 97-65 97-83 0-25-45-15-101 24-80 56-77 93 4 59zm-1866-193c23-65 44-214 29-214-19 0-86 221-86 284 0 28 1 29 16 15 8-9 27-47 41-85zm2628 16c7-33-1-87-16-95-5-4-9 22-9 59 0 69 14 88 25 36zm-2117-35c35-39 77-109 87-145 5-15-12 1-43 41-56 74-109 113-138 103-30-11-113-72-185-136-36-32-69-58-73-58-14 0 29 66 77 117 58 61 153 113 208 113 30 0 43-7 67-35zm2372-126c0-22-42-79-87-119-52-46-213-130-248-130-56 0-58 79-3 125 36 30 42 28 28-9-17-46-13-57 18-50 44 10 105 50 194 124 83 70 98 80 98 59zm-1826-85c13-35 2-99-15-88-12 7-12 104 0 104 5 0 12-7 15-16zm-953-93c-38-52-90-91-123-91-37 0-39-2 54 66 83 61 98 66 69 25zm605-5c11-45-23-116-55-116-36 0-42 58-11 108 24 39 57 43 66 8zm463-396c32-33 76-90 68-90-3 0-28 16-57 35-59 40-71 42-111 18-130-77-108-293 35-348 67-26 88-15 336 176 162 125 230 162 230 125 0-20-44-81-127-174-92-104-151-192-159-241-13-84-43-121-97-121-41 0-79 23-121 75-44 53-56 50-80-22-47-136 13-237 182-309 34-15 62-30 62-34 0-3-25-40-56-81-92-123-107-152-101-207 2-26 16-80 31-120 20-55 50-209 56-290 0-1 17-21 39-45 64-69 214-317 192-317-18 0-264 311-368 465-182 270-255 657-213 1125 23 248 47 317 131 374 65 44 89 45 128 6zm-429-2027c109-224 186-421 178-459-14-72-73 44-171 331-71 210-82 249-69 241 5-3 33-54 62-113zm931-44c59-52 75-74 59-84-10-6-76 58-141 137-49 59-43 55 82-53z"/>
  <path d="m3646 10808c-23-33-21-113 4-138 11-11 26-20 33-20 24 0 49 38 54 82 9 75-55 128-91 76z"/>
  <path d="m1325 10559c-108-18-235-79-358-172-76-58-105-93-88-110s114 15 269 87c296 139 351 124 687-190 108-102 215-194 238-206 74-37 269-33 348 7 63 33 22 55-134 71-152 15-174 29-326 197-177 195-301 281-449 312-74 16-112 17-187 4z"/>
  <path d="m1314 10190c-77-16-189-66-309-140-204-125-285-168-350-185-85-23-122-15-193 44-97 81-122 84-122 15 0-90 190-177 336-154 75 12 179 58 349 155 174 99 275 135 380 137 93 1 137-19 252-112 117-96 241-178 306-202 76-29 196-35 293-13 91 20 207 64 263 100 88 55 56 58-126 14-165-41-247-43-323-8-30 14-122 76-205 138-253 189-392 242-551 211z"/>
  <path d="m3085 10024c-100-41-353-172-480-249-155-93-205-118-289-144-220-68-460-36-655 87-212 134-331 158-498 97-89-32-179-88-328-205-139-109-240-172-320-203-27-10-129-34-225-52-238-44-266-58-286-139-6-26-5-28 12-21 99 41 163 56 280 65 256 21 395 76 542 213 126 118 265 205 387 242 99 30 126 22 390-107 188-92 265-113 405-113 170 1 292 42 550 185 221 122 387 205 473 235 116 41 168 82 154 119-9 22-41 20-112-10z"/>
  <path d="m3080 9861c-85-37-207-105-465-259-384-230-523-293-646-293-90 0-102 3-285 87-196 89-281 114-389 114-174-1-283-66-610-365-218-200-253-221-394-241-112-15-127-26-88-60 54-46 145-29 324 62 142 72 253 148 401 275 243 208 305 221 612 127 425-129 479-141 559-126 122 22 291 121 467 275 129 112 229 184 396 285 146 87 198 124 198 139 0 13-8 11-80-20z"/>
  <path d="m2475 9205c-217-120-279-140-430-139-98 0-129 6-290 48-379 101-516 75-732-139-102-101-124-138-88-151 32-13 70 10 158 95 51 49 111 98 134 110 70 35 164 29 380-24 442-108 557-105 809 20 140 70 207 133 202 193-4 53-26 51-143-13z"/>
 </g>
 <g transform="matrix(3.2917 0 0 6.2551 0 -276.33)" fill="#13315c">
  <g fill="#13315c">
   <g fill="#13315c">
    <path d="m0 133.29c0 10.372 5.591 16.469 10.878 20.891v31.47c-5.646 7.147-10.639 13.995-9.23 21.658 0.538 2.943 2.306 7.114 7.658 10.296 5.341 3.176 10.497 4.721 15.757 4.721 10.514 0 18.433-6.162 26.086-12.124 0.348-0.272 0.691-0.533 1.039-0.8h49.806c7.229 5.406 15.849 10.878 31.291 10.878 15.371 0 24.285-5.662 31.275-10.878h49.773c0.348 0.272 0.691 0.533 1.039 0.805 7.653 5.961 15.572 12.124 26.08 12.124 5.194 0 10.492-1.588 15.762-4.732 4.868-2.899 7.707-6.57 8.441-10.922 1.218-7.196-3.579-12.912-8.654-18.961-0.451-0.533-0.914-1.115-1.371-1.664v-31.742c5.352-4.928 10.878-11.449 10.878-21.093 0-10.372-5.591-16.469-10.878-20.891v-31.47c5.646-7.147 10.639-13.995 9.23-21.658-0.538-2.943-2.306-7.114-7.658-10.296-5.341-3.176-10.497-4.721-15.757-4.721-10.514 0-18.433 6.162-26.091 12.124-0.348 0.272-0.691 0.533-1.039 0.8h-49.8c-7.229-5.406-15.849-10.878-31.291-10.878-15.371 0-24.285 5.662-31.275 10.878h-49.772c-0.348-0.272-0.691-0.533-1.039-0.805-7.653-5.961-15.572-12.124-26.08-12.124-5.194 0-10.492 1.588-15.762 4.732-5.352 3.193-7.12 7.364-7.664 10.307-1.409 7.675 3.595 14.528 9.246 21.68v31.492c-5.287 4.428-10.878 10.525-10.878 20.903zm27.195 58.013v-117.88h212.12v119.66h-212.12z" fill="#13315c"/>
   </g>
  </g>
 </g>
</svg>
