<?xml version="1.0" encoding="UTF-8"?>
<svg width="320px" height="220px" version="1.0" viewBox="0 0 927.85 632.97" xmlns="http://www.w3.org/2000/svg" xmlns:cc="http://creativecommons.org/ns#" xmlns:dc="http://purl.org/dc/elements/1.1/" xmlns:rdf="http://www.w3.org/1999/02/22-rdf-syntax-ns#">
 <metadata>Created by potrace 1.15, written by Peter Selinger 2001-2017
  <rdf:RDF>
   <cc:Work rdf:about="">
    <dc:format>image/svg+xml</dc:format>
    <dc:type rdf:resource="http://purl.org/dc/dcmitype/StillImage"/>
    <dc:title/>
   </cc:Work>
  </rdf:RDF>
 </metadata>
 <rect x="88.233" y="82.791" width="765.89" height="467.75" fill="#fffffb"/>
 <g transform="matrix(.054845 0 0 -.054845 112.47 507.78)" fill="#0b2545">
  <path d="m9045 6935c-33-25-81-63-107-86-46-39-48-43-48-94 0-60 16-105 37-105 25 0 103 22 109 31 2 5-2 22-11 40l-17 31-24-23c-25-23-32-35-14-24 17 11 32-5 19-21-11-14-55-10-73 7-5 5 19 35 57 72 37 35 67 69 67 75 0 7 10 12 23 12 12 0 31 7 41 15 28 21 33 19 34-19 1-31-3-36-37-49-24-10-41-24-45-39-9-34-8-37 14-31 11 3 27-1 36-8 31-26 79 58 86 151 3 31 0 35-19 34-26-1-27 0-12 27 7 15 7 24-2 35-20 24-51 15-114-31zm-41-130c-4-8-10-15-15-15s-9 7-9 15 7 15 15 15c9 0 12-6 9-15z"/>
  <path d="m5440 6938c0-7 7-22 15-32 25-33 17-41-13-13-15 15-36 27-46 27-17 0-18-9-14-112 4-91 9-121 26-155 19-36 27-43 52-43 16 0 32-5 35-11 10-16-4-24-17-11-7 7-16 12-21 12s5-11 21-25c49-41 53-35 47 78-4 72-3 95 4 80 12-26 31-31 31-8 0 20 16 19 24-1 4-9-3-32-14-51-23-39-26-81-7-106 11-16 16-12 50 38 38 57 44 83 27 116-9 16-7 19 11 19 20 0 21 4 16 41-4 34-15 50-54 85-75 67-174 108-173 72zm91-98c21-12 26-40 6-40s-58 30-52 41c8 12 22 11 46-1z"/>
  <path d="m9508 6880c-94-35-161-79-194-130-21-31-25-47-22-96 3-56 4-59 28-57 51 5 192 57 231 85 50 36 79 83 79 129 0 45-18 99-33 99-7-1-47-14-89-30zm62-45c0-8-10-20-22-26l-22-12 22-17 21-17-28-27c-18-18-31-24-35-17-4 6-4 16-1 21 16 27-21 4-77-46-67-60-103-82-116-70-4 5 24 37 63 72 55 50 67 66 57 76-17 17-15 29 4 21 24-9 92 17 97 38 6 22 37 26 37 4zm-90-150c0-15-18-30-27-22-2 3-2 15 2 26 7 23 25 19 25-4z"/>
  <path d="m8410 6863c-82-57-126-204-85-282 15-31 61-55 93-49 19 3 20 5 6 43-22 62-17 265 6 265 7 0 22-162 24-257 1-51 18-58 27-11 3 18 11 46 18 62 9 22 9 32-1 44-11 13-10 14 8 8 19-6 22-2 28 40 7 51-6 115-28 133-25 21-70 23-96 4z"/>
  <path d="m3625 6828c-51-219-47-311 16-343l26-14 7 133c7 138-2 214-30 237-10 8-14 6-19-13z"/>
  <path d="m3306 6814c-38-7-71-16-73-18s31-35 74-72c42-38 100-90 129-116 51-48 51-48 69-28 26 28 33 127 12 166-39 74-94 92-211 68z"/>
  <path d="m3705 6641c0-178 1-188 18-179 28 15 73 83 87 132 7 25 10 73 8 107-4 56-8 65-41 95-20 19-45 34-54 34-17 0-18-15-18-189z"/>
  <path d="m5855 6808c-72-26-132-92-160-179l-17-50 27-35c20-26 30-32 39-25 26 22 66 110 73 162 7 49 11 54 36 57 20 3 32 13 47 43 19 36 19 39 3 38-10 0-31-5-48-11z"/>
  <path d="m2757 6718c69-226 164-308 305-266l39 12-6 50c-16 126-67 208-152 243-55 23-103 36-103 28 0-11 137-199 159-219 11-11 21-25 21-33 0-7 5-22 12-33 7-10 9-22 5-26-12-12-85 65-124 131-60 100-94 143-132 170-21 14-40 25-43 25-4 0 5-37 19-82z"/>
  <path d="m5915 6761c-10-22-15-46-12-54s-6-23-22-35c-27-20-108-159-98-169 3-3 24-2 46 2 49 8 72 36 95 114 20 69 32 181 19 181-6 0-18-18-28-39z"/>
  <path d="m8700 6788c-75-21-143-98-165-186-11-42-10-50 7-74 11-16 22-28 26-28s20 24 35 53c27 53 95 130 130 148 40 22 4-38-82-136-34-38-69-82-77-97-12-23-22-28-50-28-124 0-208-168-133-264 12-15 36-33 55-41 39-16 49-34 40-69-7-27-38-40-119-52-26-3-50-10-53-15s-27 3-54 17c-57 30-97 29-92-1 2-11 4-33 4-49 3-68 144-78 378-26 106 24 172 33 246 34l101 1 41-37c45-41 101-72 147-82 29-6 30-8 27-55-7-92 49-151 143-151 65 0 88 17 126 93 17 34 33 63 34 65s16-11 33-28c27-27 37-30 89-30 70 0 133 16 150 39 64 80 55 209-17 246-37 19-58 19-105 0-35-15-75-13-75 5 0 25 17 41 60 55 27 9 54 23 61 31 11 14 7 15-37 10-43-5-45-5-16 4 17 6 32 17 32 24 0 11-8 11-40 3-86-23-61 28 29 60 59 20 147 70 139 78-2 3-32-7-65-20-34-14-77-28-95-31-40-6 17 22 224 112 114 49 137 62 132 76-4 13 0 18 13 16 46-4 94 3 88 12-3 6-15 10-25 10s-21 4-25 9c-3 6 3 9 12 9 10-1 28 2 41 6 16 6 22 3 22-9 0-8 11-21 25-27 41-18 30-35-27-41-66-6-157-38-200-68l-32-23 34-14c86-35 199-2 275 79 50 53 53 64 29 98-34 48-138 66-210 36-20-8-63-43-97-77-75-76-153-123-310-185-114-45-118-48-112-73 25-99 19-110-60-109-50 0-50 0-73 47-22 45-22 48-6 81 12 24 15 49 11 92-9 98-65 160-130 143-37-9-34-24 4-24 47 0 89-47 89-100 0-52-13-76-52-96-93-48-201 84-130 159 13 14 20 30 17 40-4 10 12 36 48 75 52 57 84 102 72 102-19 0-133-67-168-99-23-20-61-43-83-49-49-14-94-47-94-69 0-13 10-15 63-10 34 4 73 10 86 13 21 6 23 5 16-12-16-38-17-91-1-122 9-17 53-57 98-89 86-61 124-109 113-142-3-10-19-37-35-60-27-36-35-41-71-41-52 0-83 17-144 79l-49 51h-138c-101 0-149-4-175-15-56-24-73-20-73 16 0 22 9 40 31 60 17 16 34 29 38 29 8 0 48 94 53 125 2 13 18 25 46 35 23 9 49 23 58 32 14 14 12 16-30 22-26 4-55 5-66 1-14-4-29 4-54 32-20 21-36 41-36 44s17 11 38 17c68 20 118 74 172 185 28 56 50 107 50 114 0 29-93 48-150 31zm120-38c0-12-40-33-47-26-9 8 28 47 38 40 5-3 9-9 9-14zm-232-395c76-63 28-185-72-185-43 0-79 18-95 48-5 9-12 40-16 68l-6 51 43 22c58 29 109 27 146-4zm876-163c-7-32-24-35-24-3 0 16 20 44 27 37 2-1 0-17-3-34zm24-48c27-8 28-28 2-54-30-30-40-25-40 20 0 42 1 43 38 34zm-210-48c3-12-1-17-10-14-7 3-15 13-16 22-3 12 1 17 10 14 7-3 15-13 16-22zm-752-50c-4-19-3-37 1-39 5-3 38 1 73 8 78 17 103 18 95 5-3-5-21-10-38-10-18 0-84-14-147-31-121-33-248-43-283-23-15 8 4 12 83 18 124 8 180 29 199 75 17 41 25 40 17-3zm362-16c24-1 25-2 9-11-21-12-67-4-67 12 0 6 7 8 16 5s28-6 42-6zm551-16c34-43 22-142-19-164-27-14-95-12-135 4-42 18-57 44-46 83 22 75 57 102 133 103 39 0 50-4 67-26zm-476-24c3-11 1-20-4-20-4 0-13 9-19 20-8 16-8 20 3 20 8 0 17-9 20-20zm696-4c73-78-6-214-118-203-66 7-78 24-63 94 7 32 20 69 30 83 40 54 113 66 151 26zm-519-98c0-13-23-5-28 10-2 7 2 10 12 6 9-3 16-11 16-16zm115-58c28-16 60-30 73-30 31 0 29-34-4-67-21-21-32-24-62-19-40 6-89 50-92 81-8 74 8 81 85 35z"/>
  <path d="m2503 6783c-8-3 11-33 51-81 34-42 74-97 89-122 26-46 52-128 44-137-3-2-37 49-75 114-66 111-120 175-171 203-20 10-21 8-21-26 0-22 13-59 35-98 19-35 35-75 35-89 0-20 5-27 20-27 11 0 49-20 86-45 45-31 75-45 99-45 32 0 34 2 41 46 19 132-57 274-163 303-41 12-51 12-70 4z"/>
  <path d="m7794 6736c-20-43-26-77-31-158l-5-103 35-23c41-27 151-64 155-52 4 11-81 192-107 229-23 31-27 67-11 91 8 12 18 7 55-32 47-49 55-68 30-68-8 0-15-3-15-7 1-18 96-197 106-200 16-5 44 69 44 115 0 60-38 121-109 178-36 29-77 59-93 69l-28 16zm201-194c-19-4-35 13-35 37 0 10 8 7 26-10 22-20 23-25 9-27zm-171-34c-7-11-44 9-51 28-3 8-2 21 1 31 5 13 11 10 31-17 13-18 22-37 19-42z"/>
  <path d="m3126 6748c3-18 18-58 32-88 32-65 89-104 172-120 53-10 110-6 110 8-2 24-195 186-255 213-58 27-65 25-59-13z"/>
  <path d="m6120 6763c-61-22-146-108-156-158-8-44 11-115 31-115 7 0 15-5 17-10 5-17 130 26 184 63 70 47 87 76 92 153 3 49 1 69-9 75-22 14-109 9-159-8zm84-89c-16-33-153-158-163-148-2 2 15 26 37 53 23 27 42 55 42 62s21 32 48 55c52 46 65 39 36-22z"/>
  <path d="m6444 6696c-67-31-123-82-145-131-17-37-26-135-14-147 10-9 97 11 150 36 106 48 175 135 175 221v45l-26-17c-24-16-27-16-36 0-12 23-44 21-104-7zm69-67c-34-59-163-177-163-150 0 16 50 70 70 76 15 5 20 15 20 41 0 21 4 33 10 29 6-3 22 3 36 14 38 30 48 26 27-10z"/>
  <path d="m7457 6666c-4-9-13-16-21-16-21 0-26-23-26-112 0-80 0-81 38-118 58-58 143-71 250-39 31 10 32 13 32 61 0 49-1 50-25 44-28-7-33 5-10 24 38 32-2 101-79 136-70 31-151 42-159 20zm53-106c6-11 20-20 30-20 13 0 20-7 20-19 0-10 21-37 48-59 26-22 44-43 40-47-11-12-106 44-132 77-35 47-50 88-31 88 8 0 19-9 25-20z"/>
  <path d="m5197 6664c-12-4-16-12-12-25 5-15 2-19-14-19-27 0-27-23 0-96 25-66 77-127 131-155 47-24 128-37 128-20s-71 92-97 102c-13 5-23 17-23 28 0 10-7 24-15 31-13 10-19 10-34-4-14-13-21-14-26-5-5 7-1 16 9 21 24 13 20 24-14 38-47 19-37 33 18 25 56-8 52-6 57-41 1-16 8-28 14-26 6 1 16 3 22 5 5 1 16-15 23-36 17-45 26-57 64-80l30-17 7 31c18 82-29 180-106 220-41 20-127 33-162 23zm183-94c0-5-7-10-16-10-8 0-12 5-9 10 3 6 10 10 16 10 5 0 9-4 9-10zm50-64c0-16-18-31-27-22-8 8 5 36 17 36 5 0 10-6 10-14z"/>
  <path d="m8999 6631c-64-25-107-59-134-106-22-39-40-95-30-95 2 0 37 22 77 48 92 61 170 104 231 127 26 10 47 24 47 31 0 21-133 18-191-5z"/>
  <path d="m9585 6631c-69-13-187-101-212-158-7-18-13-48-13-67 0-30 4-37 28-43 86-24 190 6 250 71 34 37 81 130 71 140-2 2-53-25-114-59-60-35-128-67-150-71-40-7-40-7-22 14 10 11 52 37 94 57 48 24 79 46 86 62 10 22 16 24 49 20 24-3 41 0 48 9 27 31-19 41-115 25z"/>
  <path d="m7026 6599c16-17 46-39 67-49 30-14 62-51 152-174 230-316 273-408 362-771 62-253 50-426-40-561-24-35-36-67-39-101-4-47-3-51 27-72l32-21 6-233c7-264-2-385-37-507-14-47-36-152-50-235-25-152-50-250-65-259-4-3-79 42-167 100-173 115-214 139-214 126 0-21 91-92 139-109 39-14 51-23 51-39s18-29 80-58c73-34 122-77 107-93-4-3-32 14-64 38-81 63-93 68-140 69-39 0-43 2-43 26 0 23-18 34-222 133-123 59-310 145-415 191l-193 84v67c0 36-7 86-15 110-9 24-25 100-35 169-21 130-44 210-62 210-7 0-8-26-4-77 10-109 23-173 59-285 26-81 29-103 21-134-10-41-28-54-38-29-3 9-9 56-12 103-3 48-12 105-19 127-8 22-19 72-25 110-17 111-32 175-43 175-17 0-1-127 33-260 34-135 42-222 23-241-21-21-27-3-34 114-6 78-17 144-38 216-17 57-31 112-31 122 0 32-18 30-24-4-7-40 6-118 45-256 27-99 38-191 22-191-12 0-100 34-102 40-2 3 0 21 4 40 4 25-3 71-24 154-17 65-31 129-31 142s-5 24-10 24c-7 0-8-18-4-50 4-27 4-50 0-50s-15 20-26 45-24 45-30 45c-17 0-11-49 16-144 27-96 24-139-11-153-9-3-51 8-93 25-60 23-76 34-75 48 10 76 24 155 31 174 8 21 5 26-22 40-30 14-31 18-34 83l-3 68 57 52c38 34 67 73 86 112 41 88 38 100-17 67-85-52-120-32-112 65 6 82-4 82-89-3-88-87-144-106-189-64-17 16-49 22-174 35-275 27-414 15-503-45-27-19-46-25-54-20-7 6-18 0-32-19-20-27-116-70-128-58-16 16-14 92 6 172 12 50 25 122 28 160l7 70 42 13c37 12 42 17 48 52 6 33 12 41 40 50 64 21 130 107 171 223 12 35 12 42-6 77-11 22-20 53-20 69 0 21-10 40-32 61-32 31-33 32-13 45 57 40 59 43 65 95 6 68 19 76 93 60 106-22 161-95 162-217 0-66 2-73 23-78 14-3 22-13 22-26 0-14-5-19-14-16-19 8-28-3-15-19 6-7 16-45 23-83 10-64 16-75 68-134 34-38 69-67 85-72 15-3 37-15 48-24 11-10 48-24 83-31 61-13 102-12 387 6 50 3 96 1 103-4 14-10 14-13-43-320-15-78-32-191-38-250l-12-107-28 3c-16 2-27-1-27-9 0-27 93 1 198 61 76 43 120 61 158 66 62 7 161-8 213-33l36-18 3-79c2-44-2-102-8-130-8-39-8-52 2-55 27-9 55-49 61-88 4-23 19-55 33-72 29-35 111-87 121-77 7 6-10 42-52 111-34 56-33 111 4 161 37 51 58 69 100 83 49 16 79 14 199-13 59-13 150-27 202-30 59-5 111-14 139-27 49-22 141-25 219-8l50 10 6 68c11 104 8 266-4 313-15 55-59 98-100 98h-31l67 96c72 105 104 174 104 229v35h-370l-25 40c-14 22-29 40-33 40s-16-19-27-42c-26-56-50-60-69-13-18 42-31 40-40-6-6-31-6-32-54-24-26 4-96 10-157 13-101 6-110 9-113 28-5 35 34 71 111 101 58 23 67 29 45 31-48 6-104-17-203-83-53-36-101-65-107-65-5 0 1 19 14 41 25 45 82 98 144 133 35 20 56 46 37 46-28 0-116-76-205-177-79-90-99-119-94-136 3-14-5-37-24-67-39-61-49-91-39-117 12-33 25-28 43 17 19 47 63 81 77 59 5-8 9-27 9-43 0-24 2-27 15-16 8 7 15 18 15 25 0 19 40 65 56 65 10 0 14-13 14-45 0-56 16-58 37-6 26 65 63 66 63 2 0-36 1-37 29-33 34 5 47-12 57-77 5-34 11-41 29-41 28 0 59-33 84-93 15-35 17-49 8-52-6-2-70-18-142-35-108-26-132-29-139-17-7 11-16 11-52-2-39-14-44-14-61 1-14 12-46 17-135 20-65 2-120 7-123 10-9 8 30 193 76 363 34 125 41 166 42 255 2 93 5 109 26 139 35 49 93 70 223 82 62 6 154 19 203 29 50 10 131 24 180 31 50 6 119 20 155 31 132 40 389 188 327 188-20 0-22 11-5 28 27 27-22 9-163-58-157-75-219-92-384-104-49-4-119-16-154-27-37-11-92-19-134-19-39 0-97-7-129-16-55-16-60-16-77 0-18 16-18 20-4 54 24 57 14 183-20 248-14 27-33 56-41 64-21 16-147 8-198-13-22-9-41-12-49-6-22 14-112 10-158-6-66-23-98-50-105-90-9-46-18-49-66-25-62 32-68 55-34 137 22 53 28 85 29 145 2 88 14 109 90 153 81 48 151 43 278-21 37-18 67-28 67-22s-17 28-39 48c-67 64-167 76-277 35-75-28-74-28-74-16 0 5 24 19 53 32 42 19 70 23 142 24 78 0 97-4 146-27 30-15 61-38 67-50 6-13 12-55 14-93 5-110 52-157 159-157 72 0 100 16 137 79 51 85 59 93 93 83 24-7 31-6 36 8 3 9 17 27 30 38 14 12 23 29 21 38-3 14-10 13-57-10l-55-25-25 20c-138 111-219 127-295 60l-34-29-34 34c-41 41-90 56-178 55-57 0-163-22-212-43-12-6-21 0-32 21-8 16-28 44-44 61-28 30-35 32-96 32-41 0-85-7-120-20-57-22-66-35-66-97 0-17-4-34-9-37s-2-25 6-48c8-25 12-56 8-76-4-24-3-32 7-30 7 1 41-4 75-11 35-8 78-11 98-8 33 5 34 5 31-24-5-39-13-47-30-24-15 21-36 13-36-14 0-10-11-45-25-79-30-75-31-116-5-160 23-38 66-79 93-87 12-5 17-17 17-46 0-118 105-197 223-168 45 11 52 10 64-7 19-26 18-133-2-140-8-4-22-1-29 5-11 9-28 7-73-8-77-26-236-45-326-39-128 8-187 57-187 153 0 31-9 63-30 102-23 43-30 69-30 114 0 47-4 61-20 72-11 8-31 37-45 65-29 61-61 85-163 122-59 21-89 27-120 23l-42-6v44c0 24-7 77-15 117-9 40-14 80-13 88 2 7-13 22-32 31-40 20-80 75-80 109 0 23 2 22-185 118-47 25-72 31-121 31-54 0-73-6-155-48-52-27-100-56-106-65-34-43-3-155 57-206 36-30 36-30 79-15 39 14 39 23 1 39-70 29-69 110 1 110 10 0 19-7 19-15s13-21 29-27c39-18 141-113 141-133 0-8 8-18 18-21 9-3 36-14 59-24 51-23 84-81 112-197 11-43 22-85 26-94 5-13-8-9-52 13-54 28-64 29-143 25-102-5-180-32-250-88-69-54-101-106-109-176-4-32-11-64-15-72-8-13-50-11-102 4-18 6-22 2-28-27-3-18-17-46-30-63-26-32-24-32-41 20-8 27-25 16-48-32-21-45-24-47-85-61-48-10-83-28-140-68-43-30-107-69-144-87-71-33-89-53-39-42 37 8 48-16 19-42-16-15-42-19-144-23-143-6-144-6-144-90 0-111-7-126-66-160-84-47-90-75-25-132 31-28 46-68 56-150 3-26 14-56 23-68l17-21 73 26c56 19 77 23 92 15 47-25 6-83-115-164-90-61-129-102-140-149-6-23-4-27 11-25 38 3 69-3 88-17 18-13 17-16-14-55-38-48-64-56-126-41-39 10-50 9-71-4-30-20-27-47 12-144 32-77 32-107 3-117-42-13-154-6-254 16-133 29-304 29-434 0-106-23-174-25-268-9-92 16-132 3-158-53-19-42-20-43-74-46-53-3-58-1-97 37-63 59-138 84-240 79-76-4-86-7-120-37-21-17-51-40-67-49-46-27-82-60-74-67 4-4 19 2 34 14 67 53 255 69 357 31 50-19 117-73 105-85-3-3-49 17-104 45-138 71-180 68-356-21l-97-49 6 33c2 18 1 48-4 67-12 46-42 50-93 15-30-21-45-25-73-20-63 12-144-24-195-86l-24-29 22-36c13-20 19-39 14-44s-39 0-79 11c-133 37-246 18-309-51-44-49-45-72-6-148 36-72 38-98 8-106-40-10-88-6-120 10l-30 16-50-49c-27-26-56-61-64-76-14-27-14-31 15-76 46-70 43-75-36-67-38 3-80 9-94 12-24 5-28 2-44-40-21-55-10-96 26-96 21 0 21 1 6 18-26 28-21 32 36 32 113 0 188 47 206 129 9 42 8 46-21 73-35 33-33 43 6 28 53-20 129-12 192 20 65 33 135 91 117 97-43 15-93 84-93 128 0 25 46 65 74 65 14 0 47-13 73-30 60-38 98-38 173 0 33 17 71 30 86 30 25 0 26-1 12-22-9-13-38-32-65-43-143-58-215-188-168-302 14-34 14-39-9-87-41-87-42-99-5-140 17-20 51-48 75-62 49-29 48-28 34-54-18-33-50-43-170-51-146-10-226-36-286-94-34-32-44-49-44-73 0-17 5-34 10-37 6-3 10-2 10 4 0 22 63 81 105 97 33 12 57 15 92 9 27-4 83-8 127-9 71-1 82 2 116 27 21 15 64 59 95 97 53 65 62 71 124 90 36 11 72 24 79 28 6 5 38 46 70 92 48 72 64 87 101 101 60 22 146 112 161 168 6 24 8 61 5 82-7 38-6 39 22 39 16 0 45 11 65 25 87 59 111 52 115-32 1-32 5-110 9-173 3-63 3-147-1-186l-6-72-87-51c-162-96-301-212-465-389-120-129-150-177-197-315-70-207-88-364-50-441 26-51 37-42 39 31 6 194 97 394 277 611 38 46 85 92 105 102 19 10 73 49 120 86 78 62 167 114 197 114 15 0 15-5-3-39-8-16-11-31-8-35 11-11 40-6 53 9 7 8 23 15 36 15 21 0 24-5 24-37-1-53-31-115-82-165-66-66-207-155-326-204-163-67-187-92-216-220-10-44-36-142-58-219-40-138-41-142-158-320-112-171-184-294-222-378l-18-39 39 7c49 8 60-13 25-46-20-19-38-23-108-27-76-4-83-6-79-23 5-17-1-19-43-19-57 0-94-9-94-21 0-5 5-8 11-7 6 2 13-2 16-8 2-7-11-14-34-17-65-8-143-31-140-42 2-5 14-12 26-15 40-9 26-25-37-42-72-19-82-24-82-44 0-9 11-14 31-14 40 0 35-11-26-52-27-18-51-41-53-51-3-16-1-17 18-7 41 22 33 0-19-48-28-26-51-53-51-58 0-6 19-19 42-30 64-29 64-59-2-128-79-84-79-142-1-264l39-59 318 2c271 1 339 5 451 23 117 18 146 20 260 11 84-7 315-8 678-2 430 7 566 6 625-4 64-11 82-11 132 3 49 14 82 15 245 7 103-6 222-7 263-2 275 29 408 39 514 39 67 0 274 7 461 15 394 17 869 18 1205 4 129-6 253-11 275-10 22 0 155 2 295 4 140 1 285 6 322 11 50 7 71 6 83-4 10-9 32-10 71-5 35 4 66 2 83-5 21-8 174-8 602 1 590 12 799 14 904 8 33-2 87 3 120 10 48 11 189 12 690 9 353-3 654-1 685 4 30 5 70 11 88 15 19 3 67 0 107-6 61-10 82-10 124 3 41 12 69 13 139 6 48-5 314-14 592-20s541-16 585-22 132-13 195-14c63-2 205-9 315-15s263-10 340-9 203 3 280 4 149 5 160 9c11 3 90 13 175 22 154 15 262 36 286 56 21 17 36 78 30 114-4 19-22 57-41 86-29 42-35 60-35 105 0 49-2 55-29 69-42 21-47 35-21 55 31 23 21 35-51 61-33 12-62 26-66 32-8 14 17 27 55 27 20 0 32 5 32 14 0 20-20 33-73 46-53 14-68 28-43 42 28 16 18 26-41 43-32 9-66 18-75 21-13 4-17 14-15 37 2 30 0 32-38 37-66 9-90 36-38 42 28 3 45 28 20 28-8 0-20 13-26 30l-10 30h-95c-79 0-96 3-96 15 0 9 11 20 24 27 14 6 27 17 30 24 7 19-51 18-84-1-47-27-91-15-55 15 27 23 17 33-26 26l-41-7 7 31c8 36 3 37-42 9-40-25-51-19-35 16 9 20 9 25-2 25-7 0-19-6-25-14-15-18-45-26-62-15-11 6-11 11-1 21 6 6 12 15 12 18 0 9-114-6-136-18-14-8-20-6-29 11-9 18-19 22-60 22-28-1-59-5-70-9-15-7-14-2 8 18 33 33 34 44 5 48-15 2-30 17-44 43-19 37-22 39-61 37-23-2-71 4-108 13-37 10-85 15-106 12-44-6-48 1-19 28 31 28 24 35-37 35-32 1-78 5-102 9-42 8-44 8-63-25-16-28-26-34-54-34-19 0-49 11-69 24-42 29-98 39-184 34-51-2-61 0-61 13 0 14-6 16-37 8-21-5-53-9-72-9h-34l6 229 7 229-35 108c-19 60-52 147-72 192l-37 84-81-4c-70-3-92-8-156-40-82-41-194-140-185-163 11-30 18-115 9-115-20 0-56 135-60 230-4 87-2 99 21 145l26 50-28 22c-21 18-23 22-10 23 10 0 43-23 75-52 31-28 59-46 61-40s-11 37-27 69l-31 58 34 3c35 3 34 1 68 94 20 55 39 77 106 125 116 83 205 69 320-50 103-108 138-208 129-368-5-83-3-104 15-150 17-46 19-69 15-149-3-56-14-122-27-160-11-35-20-76-18-90 6-53 140 226 157 328 5 31 12 134 16 227 8 202 17 257 51 308 14 21 34 75 44 120 32 135 48 177 108 295 78 152 131 216 202 243 161 63 301-7 410-205 60-108 83-209 78-333-4-94-3-101 12-93 42 23 76 155 65 254-4 34-24 130-45 215-30 121-36 158-27 172 9 15 7 23-10 41-30 32-40 64-58 181-18 122-21 131-95 322-70 180-90 270-90 407 1 153 15 236 61 355 23 60 52 142 66 183 13 41 30 89 38 105 23 54 167 236 269 343 194 201 364 325 486 351 78 18 109 31 121 53 9 16 5 21-24 33-18 7-80 17-138 21-57 4-114 11-127 15-14 6-45 3-85-8-39-10-105-17-179-17-155-1-170 14-74 73 19 12 37 28 40 36 9 23-55 9-314-70-332-102-492-130-707-123-151 5-184 18-257 99-58 64-59 88-7 165s91 113 154 144c37 18 53 32 55 48 3 18-1 22-21 22-65 0-244-98-292-159-16-21-56-55-87-76-167-108-304-275-530-645-212-348-362-578-387-593-14-9-55-42-91-73-76-67-155-107-202-102-32 3-33 4-42 66-5 34-12 62-16 62-13 0-30-60-30-104 0-52 37-114 130-221 106-122 123-168 145-403l14-144-45-61c-25-34-58-67-74-73-74-32-21-45 94-23 60 11 116 5 116-13 0-5-10-18-22-29-23-18-23-18 52-19 86 0 183-20 208-43 9-8 35-18 57-22 63-11 120-50 232-159 129-125 137-157 23-90-42 25-119 60-172 79-95 34-98 34-147 19-41-12-55-12-73-2-22 11-21 12 22 25 53 16 163 21 205 10l30-9-30 32c-67 71-182 107-372 117l-123 6v34c0 39-3 40-135 18-134-22-188-20-221 8l-27 23 25 25c14 14 41 55 62 92 21 36 51 77 67 91s29 27 29 30c0 13-112 5-157-10-26-9-90-43-141-76-121-77-167-98-219-98-73 0-61 28 30 70 26 12 47 25 47 29 0 18-124-11-214-49-61-26-122-44-156-47l-57-6-6 39c-18 107-2 145 49 120 16-8 50-17 75-21l46-7-19 89c-13 57-18 107-14 142 5 53 29 100 55 109 7 2 44-28 83-67s74-71 79-71c22 0-10 179-56 307-19 54-35 101-35 105 0 10 60 28 96 28 42 0 120-26 157-52 27-19 27-19 27 1 0 35-20 75-58 114-30 31-43 37-77 37-39 0-45 5-185 150-80 83-150 150-157 150-30 0-29-203 2-289 19-56 20-54-11-48-24 4-29-1-63-72-36-76-36-76-42-246-4-122-10-182-22-214-10-24-17-57-17-74 0-18-9-41-22-55-22-22-23-32-23-165 1-203 31-288 118-328 57-26 83-24 147 11 30 16 68 29 84 30 28 0 28-1 12-19-37-41-113-63-236-68-90-5-119-3-125 7-5 8-11 67-15 132-9 162-16 165-39 19-15-94-33-104-29-16 1 39 1 104 0 145-3 72-3 74-16 45-8-16-26-42-42-56-34-29-84-62-84-54 0 12 45 94 107 194 35 57 62 106 59 108-8 9-68-16-110-44-21-15-67-63-101-108-94-119-118-137-70-50 21 39 46 86 56 106 16 31 30 41 96 68 103 41 139 64 163 103l19 32-23 15c-13 9-35 24-49 34-23 16-29 17-59 4-46-19-118-102-153-175-16-35-38-65-51-71s-35-28-50-50c-28-42-29-43-98-24-24 7-11 19 61 57 49 27 63 42 102 106 58 96 133 171 194 195l47 18 38-27c64-44 69-39 78 72 4 53 8 152 8 219v122l23-5c18-5 23-2 23 13 0 10 12 36 28 58 27 39 27 42 27 195 0 299-23 728-45 855-46 264-111 493-155 551-15 18-15 18-10-6 35-178 37-295 7-362-12-29-27-48-37-48-24 0-90 36-130 72-42 37-172 208-275 363-95 143-246 331-313 390-68 60-232 169-276 184-19 6-43 11-54 11-19 0-18-3 9-31zm-2571-111c37-17 31-32-11-25s-49 11-39 26c8 14 18 14 50-1zm97-5c10-9 18-29 18-45 0-26-3-29-27-26-14 2-27 10-29 18-1 8-5 27-9 43-6 22-4 27 11 27 9 0 26-7 36-17zm115-24c9-9 6-17-13-31-27-22-48-14-57 22-4 17 0 20 27 20 18 0 37-5 43-11zm1056-36c53-27 88-125 55-152-76-63-80-65-125-62-58 3-135 118-115 172 24 63 106 82 185 42zm-1112-38c0-5-12-11-26-13-18-2-25 1-25 13s7 15 25 13c14-2 26-7 26-13zm139-30c0-26-16-42-22-23-7 19 3 58 13 52 5-3 9-16 9-29zm40-38c0-42-13-77-23-61-8 14 5 114 14 108 5-3 9-24 9-47zm-250 33c0-5-7-10-15-10s-15 5-15 10c0 6 7 10 15 10s15-4 15-10zm109 1c11-7 10-11-7-20-25-14-52-14-72-1-13 9-13 11 0 20 19 12 60 13 79 1zm1842-12c47-15 64-54 57-135-6-71-27-94-85-94-53 0-92 18-127 60-33 40-33 70 1 131 25 47 28 49 71 49 25 0 62-5 83-11zm-1651-30c0-6-4-7-10-4-5 3-10 11-10 16 0 6 5 7 10 4 6-3 10-11 10-16zm-132-26c-3-15-16-19-71-21-37-2-67 1-67 6 0 21 29 32 83 32 50 0 58-2 55-17zm130-52c5-29-13-50-29-34-15 15-3 66 14 60 7-2 14-14 15-26zm-84 3c9-3 16-12 16-20 0-15-51-18-85-5-19 8-19 8 0 19 23 13 46 15 69 6zm146-24c0-24-21-70-32-70-12 0-10 45 3 74 13 28 29 26 29-4zm868-44c3-12-1-17-10-14-7 3-15 13-16 22-3 12 1 17 10 14 7-3 15-13 16-22zm-978-6c0-24-26-37-48-23-23 14-26 31-5 36 40 10 53 7 53-13zm30-71c0-18-31-22-48-5-15 14-15 18-3 26 16 10 51-4 51-21zm90-2c0-23-17-47-32-47-11 0-10 13 2 44 12 32 30 34 30 3zm810-89c-14-78-3-123 32-134 11-3 17-8 15-11-12-12-48 11-63 39-22 43-21 128 2 167 25 42 29 23 14-61zm-53-8c-10-38-16-48-21-35-3 10 1 38 11 63 22 58 28 42 10-28zm-837 42c0-26-10-33-31-21-28 14-24 39 6 39 18 0 25-5 25-18zm90-13c0-20-21-49-35-49-19 0-19 10 1 38 16 23 34 29 34 11zm120-28c22-7 19-9-22-16-50-8-78-3-78 15 0 11 62 12 100 1zm1201-7c-25-8-47-12-49-9-8 7 40 24 68 23 18 0 12-4-19-14zm-1416-19c0-5-10-11-22-13-16-2-23 2-23 13s7 15 23 13c12-2 22-7 22-13zm1508-2c3-10 8-36 12-58s14-48 22-57c24-27 10-121-38-260-22-65-39-130-37-146l3-27 13 22c7 13 17 48 23 78 6 35 19 64 35 80 13 13 24 32 25 42 0 14 3 12 10-6 9-22 13-23 62-17 28 4 63 10 77 13s22 2 18-2c-9-9-99-44-135-52-31-7-38-18-72-113-23-66-27-87-18-101 12-19-8-144-58-358-13-57-27-145-31-196l-6-92-55-16c-30-10-93-40-139-67-91-54-91-54-73 30 11 53 29 68 29 23 0-20 3-24 12-15 6 6 14 55 17 109 4 70 11 105 24 123 10 14 17 43 17 68 0 24 12 82 26 128 31 98 30 180-2 215-18 21-23 21-154 13-305-20-496-4-514 42-5 12-2 15 11 9 117-48 328-55 484-16 109 27 152 24 199-15 28-24 30-30 30-99 0-54-11-117-40-229-22-86-43-184-46-218-3-35-7-76-10-92-4-28-3-29 15-12 15 13 19 36 24 114 4 69 16 133 42 222 58 197 59 340 2 340-35 0-67 27-67 57 0 25 1 25 18 10 27-24 29-22 35 31 3 26 9 57 12 69 5 16 2 23-14 28-25 8-29 38-5 33 9-2 30-20 47-40l30-38-21-23-22-24 22-49c20-42 23-65 22-159 0-92-6-136-38-265-35-146-57-300-42-300 14 0 28 60 36 162 7 84 17 132 47 215 31 90 38 121 38 188 0 74-3 85-32 131-18 28-33 58-33 67 0 10 14 23 33 31 38 16 50 10 23-10-19-14-19-16 20-95 52-108 51-143-10-319-49-142-68-260-48-310 9-23 11-22 25 30 9 30 23 110 32 177 15 120 31 180 56 221 18 28-1 180-27 219-23 35-22 44 32 180 50 125 53 163 24 248-11 32-20 72-20 88 0 29-1 29-40 24-42-5-46 7-6 23 35 14 64 11 69-7zm92-87c20-65 18-111-5-166l-19-45 5 55c3 33-1 86-11 135-30 145-30 134-6 100 12-16 28-52 36-79zm-286 69c24-12 30-22 35-68 9-67-7-137-35-159-24-20-83-23-126-7s-82 59-94 103c-13 48 11 123 45 136 35 14 144 11 175-5zm-956-15c14-12 48-55 74-98l48-77 5-130c5-124 17-175 41-175 9 0 4 33-12 78-10 26-12 68-3 60 3-4 18-49 33-102 31-106 25-121-29-68-30 31-41 73-60 231-13 115-44 184-111 251-39 39-46 50-31 50 11 0 31-9 45-20zm-273-19c0-18-18-41-32-41-12 0-10 28 4 49 14 22 28 18 28-8zm1385-96c4-57 4-124 1-148-8-50-39-107-60-107-16 0-69 57-90 98-14 27-13 28 14 40 43 20 74 89 68 157-5 56-1 63 39 64 20 1 21-5 28-104zm4185 30c0-21-5-35-12-35-29 0-58 13-58 25 0 14 38 44 58 44 7 1 12-12 12-34zm-5784 7c18-9 61-44 97-78l65-61-32-19c-28-17-53-19-241-19h-210l-5-80c-5-76-6-80-30-83-14-1-32 2-40 8-13 8-13 13-2 30 9 15 10 25 3 34-8 9-7 18 3 32 12 16 12 23 1 44-27 53 48 139 161 185 73 30 182 34 230 7zm224 9c0-11-28-41-39-41-18 0-20 15-4 32 17 19 43 24 43 9zm811-30c13-11 20-23 16-27s-20 4-35 19c-30 31-16 37 19 8zm169-80c35-53 70-80 103-81 25 0 21-26-9-49-35-28-123-29-146-3-29 32-48 81-48 122 0 94 41 98 100 11zm1501 51c-13-9-51-30-85-45-49-22-57-24-41-8 11 10 42 31 70 45 57 30 94 35 56 8zm-191-82c0-5-7-10-15-10s-15 5-15 10c0 6 7 10 15 10s15-4 15-10zm-86-30c-16-16-140-38-243-43-131-7-92 9 65 27 71 8 140 19 154 24 28 11 39 7 24-8zm5049-7c15-14-18-33-57-33h-41l25 20c25 19 61 26 73 13zm-7273-34c0-5-9-9-20-9-30 0-24-14 10-27s40-38 10-46c-26-7-26-27 1-27 16 0 19-4 14-17-4-10-11-31-17-48-34-105-42-108-135-61-83 41-138 57-205 58-31 0-63 7-83 19l-33 20-30-26c-17-14-37-23-45-19-13 5-11 12 10 42 20 30 24 45 19 78-5 38-3 43 22 52 39 16 56 17 280 19 116 1 202-3 202-8zm1180-4c10-12 10-15-4-15-9 0-16 7-16 15s2 15 4 15 9-7 16-15zm667-1c-3-3-12-4-19-1-8 3-5 6 6 6 11 1 17-2 13-5zm5093-33c0-5-18-11-40-13-38-3-48 1-33 15 10 10 73 8 73-2zm-5747-55c6-19 5-37-3-54-11-26-12-26-30 28-11 30-19 61-20 69 0 23 43-12 53-43zm1897 7c32-30 47-54 65-108 13-38 22-71 20-74-10-9-38 26-65 78-15 31-40 67-55 81-70 65-37 86 35 23zm3750 22c0-10-10-15-32-15-31 1-32 1-14 15 25 19 46 19 46 0zm-7450-93c14-5 34-19 44-31 23-25 42-26 96-5 53 21 63 10 23-26-98-88-332-38-333 71v25l73-12c39-7 83-17 97-22zm7218 22c-9-9-532-264-542-264-19 0 19 31 77 64 34 19 86 59 116 90l54 55h62c44 0 80 7 121 24 71 30 125 45 112 31zm-7462-108c21-18 54-59 73-90 30-49 34-65 35-130 1-88-9-106-50-88-23 11-34 8-116-39l-90-52-86 91c-53 55-102 98-125 107-67 28-21 45 48 19 19-8 19-7 2 19-25 38-21 47 18 47 33 0 35 2 35 31 0 30 1 31 33 25 21-4 40-1 52 8 11 8 31 12 45 9 14-2 37 0 51 5 22 9 25 15 21 41-6 40 5 39 54-3zm593-2c8-7-46-43-82-54-42-12-53-9-44 15 4 9 19 15 37 15 16 0 30 5 30 10 0 6-5 10-11 10-5 0-7 4-4 10 5 8 63 3 74-6zm-187-58c1-11 32-44 68-75 87-73 97-88 76-109-36-36-127-9-179 52-18 22-17 47 4 130 10 38 24 39 31 2zm226 22c7-7 12-20 12-31 0-13 6-17 23-15 25 3 25 2 7-64l-12-48-26 20c-28 22-48 26-54 9-4-13-44 6-87 40l-25 19 64 41c68 44 79 48 98 29zm-396-83c10-29 37-69 66-99 37-38 51-61 56-91 3-22 8-52 12-67 10-45-13-33-40 20-13 26-47 75-74 110-56 69-77 120-68 158 10 37 28 25 48-31zm-72 0c0-44 23-90 90-180 58-77 80-121 80-159 0-47-20-36-76 41-31 43-70 92-87 110-19 20-31 45-32 65-2 18-6 61-10 96-7 59-7 62 14 62 17 0 21-6 21-35zm1867 8c26-40 21-129-16-238-16-49-30-80-30-69-1 12 9 53 21 90 28 90 30 174 4 203-11 12-26 19-35 17-24-8-313-28-318-23-9 9 223 42 319 46 31 1 41-4 55-26zm2031-9c4-33-11-24-23 15-5 17-4 22 6 19 8-3 15-18 17-34zm46-73c14-24 16-35 7-44-15-15-31 2-41 47-10 46 6 44 34-3zm2741 4c-41-26-92-34-79-14 9 16 65 38 94 38 23 0 21-2-15-24zm-3700-25c18-20 18-22 2-49-9-16-17-36-17-44s-16-27-35-41c-30-24-35-25-35-9 0 10 14 38 31 63 22 33 29 52 25 73-7 32 4 35 29 7zm220-69c-30-59-114-99-178-85l-31 7 39 34c51 44 111 72 153 73h33zm-3675-30c49-30 100-101 103-147 2-26-1-29-32-32l-34-4 16 26c20 29 22 45 5 28-19-19-35-14-43 15-3 15-24 46-45 69-21 22-43 51-50 64-11 20-10 21 12 15 12-4 43-19 68-34zm4448 10c3-16-1-22-10-19-7 3-15 15-16 27-3 16 1 22 10 19 7-3 15-15 16-27zm-1370-18c4-38 8-40 30-13 17 21 17 20 55-10 27-23 37-39 37-61 0-33 2-34 29-17 16 10 26 5 72-36 29-26 90-65 137-88l84-41-6-36c-3-20-6-57-6-84 0-39-5-53-30-79-16-17-30-37-30-44 0-14-105-23-147-12-17 5-30 2-40-8-17-16-43-19-43-4 0 6 5 10 10 10 6 0 10 3 10 8 0 4-19 6-43 4-23-2-58 0-77 5l-34 9 49 28c53 30 44 29 227 10 52-6 59-4 82 19 60 60 5 164-108 207-41 15-45 4-6-17 69-38 95-60 98-81 4-26 4-26-104-10l-82 12-21 52c-12 28-53 90-91 137-38 48-81 107-96 132l-27 46 34-3c30-3 34-7 37-35zm-3169 0c12-14 19-28 17-30-9-9-66 28-66 42 0 24 27 17 49-12zm826-22c-5-18-10-20-21-10-15 12-19 41-7 53 13 13 35-21 28-43zm-918 9c61-27 103-59 149-116l38-46-25-19c-22-18-35-19-146-13-155 8-207-6-78-21 83-9 90-12 93-33 3-22 7-23 69-20 39 2 67-1 70-7 2-6-22-26-52-44-31-19-72-48-91-66-20-19-52-36-72-40-21-3-55-15-77-25-22-11-54-22-71-26-31-6-31-6-31 40 0 35-6 52-23 71-23 24-23 26-5 39 20 14 15 20-30 30-28 7-29 9-12 21s15 14-25 22l-43 9 45 28c69 44 90 67 96 107 5 32 11 39 37 45l30 6-28 22c-28 22-28 23-9 45 17 21 25 22 82 17 34-3 84-15 109-26zm4463-40c13-27 31-52 41-55s21-20 25-38c3-17 15-51 26-76 10-24 23-62 27-83 14-61-12-31-65 75l-45 88-62-2c-34-1-73 3-87 9s-50 18-81 26c-31 9-62 23-69 32-12 14-2 15 106 12l119-3 3 30c7 72 23 68 62-15zm-3939 40c23-13 26-45 3-36-9 3-29 6-45 6-35 0-38 13-6 28 28 14 25 14 48 2zm184-92c26-34 46-74 50-97l6-39 29 16c40 23 55 6 53-60-2-75-15-80-66-25-24 26-50 47-59 47-10 0-17 12-21 34-3 18-26 63-51 100-43 62-56 103-39 119 9 10 46-27 98-95zm325 58c0-31-46-222-62-254-17-37-67-82-89-82-16 0-16 32-3 101 8 41 13 93 10 115-5 42-5 42 57 83 54 36 87 50 87 37zm5720-42c0-19 20-18 71 6 79 36 136 18 63-20-16-8-76-47-134-86s-172-113-255-164c-82-51-186-120-230-153s-98-67-119-74c-57-20-77-33-71-44 9-14 67-11 115 6s180 21 180 5c0-5-13-10-29-10-15 0-98-18-184-40s-183-43-217-47c-33-3-59-9-58-14 2-4 18-18 37-31s36-29 39-37c7-20-96-4-131 21-32 22-42 17-54-29l-8-31-63 59c-65 61-66 79-4 65 52-12 57-11 74 22 22 45 19 44 70 29 39-12 50-12 89 3 72 29 199 101 264 150 34 26 102 71 151 100 212 127 316 212 364 299 22 39 40 46 40 15zm-6162-16c40-44 97-188 74-188-4 0-42 12-84 27-71 25-77 30-80 58-2 20-9 31-21 33-15 3-18 0-12-16 4-15 0-24-17-33-31-16-38-28-38-66 0-26-4-33-19-33-18 0-31 18-31 44 0 7 11 30 25 51 15 20 24 39 23 41-11 10-47-11-52-30-6-25-48-48-71-40-8 4-15 18-15 34 0 24 5 30 30 35 23 5 28 10 21 19-8 9-4 19 13 35 35 33 92 50 167 51 55 0 69-3 87-22zm4120-58c24-22 28-45 11-55-14-10-46 21-52 51-5 30 11 31 41 4zm-3203-41 36-32 74 13c75 13 132 9 192-12 45-16 68-77 68-178 0-66-4-84-36-150-20-41-67-117-105-168-63-85-70-92-82-75-21 28-9 99 31 189 20 45 37 91 37 102 0 31-21 72-37 72-12 0-13-11-8-54 5-34 3-61-4-75-17-30-31-26-31 9 0 47-28 26-36-27-6-44-40-87-91-116-19-11-30 0-15 15s15 28 2 28c-6 0-19-14-29-31-11-17-37-39-58-49-44-20-89-65-74-74 5-4 25 7 44 24 27 23 44 30 77 30 30 0 55 8 86 30l44 29v-62c0-47-8-82-34-146l-34-83 19-32c18-30 32-116 42-244l4-53-41 6c-202 32-346 78-522 169-136 70-313 193-314 217 0 21-17 34-55 44-26 8-21 10 37 15 70 7 110 26 86 41-7 5-25 9-40 9-49 0-30 15 33 27 33 6 69 19 80 29 24 22 25 47 2 41-114-32-165-32-177-1-4 9-5 18-3 20 1 2 33-1 70-6 53-8 75-7 102 4 19 8 35 20 35 25 0 13-6 14-47 2-23-7-37-5-50 4-30 22-1 39 70 40 72 1 115 22 168 83l33 37-60 5c-71 6-64 12 39 34 82 18 135 51 125 78-3 8-24 20-47 26-22 7-43 17-46 22-13 21 29 22 70 2l44-21 58 29c42 22 95 36 188 52 116 19 181 38 131 38-22 0-136 50-136 60 0 31 44 25 85-11zm665 2c0-32-56-71-102-71-37 0-39 2-27 17 18 22 99 73 116 73 7 0 13-9 13-19zm-232-52c9-16 12-51 9-106-3-78-10-104-23-91-10 11-34 113-40 176l-7 62 24-8c13-5 30-20 37-33zm-1691 9c13-12 23-30 23-40 0-17-2-17-27-4-16 8-37 21-48 30-17 13-18 17-5 26 22 14 31 12 57-12zm1101 10c19-19 14-25-18-24-21 1-30 6-30 19 0 20 30 23 48 5zm1102-52c0-35-5-58-15-66-13-11-15-8-15 16 0 47 12 104 21 104 5 0 9-24 9-54zm-138 12c-35-56-94-91-162-96-56-4-60-3-60 17 0 11-4 21-10 21-5 0-10-16-10-35 0-21 5-35 13-35 6 0 18-4 26-9 12-8 12-13-3-35-20-32-58-34-103-6-29 17-33 25-33 62 0 80 6 88 64 88 28 0 94 13 146 30 52 16 108 29 123 29l29 1zm-1764-13c47-22 53-27 46-47-9-31-7-31-50-19-55 15-84 38-84 67 0 31 20 31 88-1zm740 8c2-8-6-13-22-13-17 0-26 5-26 16 0 19 41 16 48-3zm-536-48c9-12-10-35-28-35-9 0-14-12-14-34 0-26 10-46 40-81 22-25 40-48 40-51 0-18-65-124-75-124-30 0-66 21-77 45-10 22-18 25-60 25-27 0-57-4-67-10-13-6-33-4-68 10-65 24-157 34-211 22-34-8-44-7-49 4-4 10-15 8-51-11-26-13-59-27-74-31-25-5-28-3-28 19 0 16 11 35 30 51 27 22 29 28 20 46-23 42 13 106 77 139 29 15 76 14 91-1 8-8 43-13 95-14 65 0 91-5 125-22 51-27 82-73 82-124 0-21 5-38 10-38 19 0 22 28 10 85-6 31-10 58-8 61 2 2 20-9 39-25 35-29 79-48 79-34 0 4-19 21-41 37-32 22-40 33-37 55 3 24 6 26 51 25 37 0 47 3 47 16 0 33 27 31 52-5zm78-84c81-28 91-42 49-73-24-18-29-18-60-5-41 17-65 43-74 80-8 32-10 32 85-2zm-776-25c-17-35-36-44-62-28-13 9 13 39 53 60 27 14 29 10 9-32zm1021 24c3-5-3-10-15-10s-18 5-15 10c3 6 10 10 15 10s12-4 15-10zm1935-59c0-45-11-71-31-71-22 0-39 29-39 68 0 37 3 40 40 34 25-3 30-9 30-31zm268 10c-2-10-15-17-36-19-26-3-32 0-32 16 0 26 5 29 40 24 22-3 30-9 28-21zm-98-3c0-19-31-48-52-48-20 0-23 12-8 41 12 21 60 27 60 7zm-80-11c0-17-20-37-37-37-7 0-13 11-13 25 0 20 5 25 25 25 14 0 25-6 25-13zm-930-31c0-28-4-35-25-40-37-9-77 3-73 23 3 16 62 51 86 51 7 0 12-13 12-34zm-187-3c6-34 1-43-24-43-20 0-23 10-13 48 9 31 31 28 37-5zm47-9c0-8-7-14-15-14-10 0-15 10-15 26 0 22 2 25 15 14 8-7 15-19 15-26zm2630-57c0-34-4-47-12-45-8 3-14 28-16 69-2 59-1 62 13 45 9-12 15-41 15-69zm-2741 47c-15-18-22-13-13 10 3 9 10 13 16 10 5-3 4-12-3-20zm-1013-8c10-8 17-16 14-19-13-11-121-49-126-44-14 14 52 76 82 77 5 0 19-6 30-14zm1118-45c16-17 20-18 44-5s90 11 113-2c4-2-3-22-14-45-19-38-19-44-6-68 8-14 25-27 37-29 26-4 27-10 5-34-10-11-16-32-15-51 1-18-6-93-17-168-24-171-16-235 38-283 25-23 29-76 6-76-8 0-16 9-16 20-3 41-5 45-24 42-11-2-22-5-23-7-9-9 22-76 40-89 19-14 20-16 4-31-9-10-28-39-41-65-21-42-57-80-75-80-3 0-3 23-2 50 3 33-1 58-11 73-13 20-13 26-1 42 16 22 18 98 4 176-5 30-16 135-25 234s-22 213-31 254c-15 78-12 99 12 67 13-19 14-18 14 13 0 26-5 34-29 42-16 6-32 17-35 25-8 21 28 18 48-5zm4802-2c3-6 57-35 118-65 99-47 179-105 165-119-11-10-80 17-131 52-91 63-133 74-328 84-96 4-177 9-180 9-17 3 63 35 100 41 77 11 248 10 256-2zm-4966-39c0-30-129-216-190-275l-42-40 17 40c21 52 30 65 104 153 33 40 68 86 76 102 15 29 35 40 35 20zm-1901-31c-11-6-11-13-3-26 9-14 22-17 60-14l48 3-29-38c-15-22-40-51-53-66-49-53-7-27 58 35 60 59 71 65 142 82l77 18 75-57c41-32 91-62 110-67 36-10 36-10 21-38-24-48-65-91-106-112-35-17-38-22-32-50l6-30-54 7c-76 9-113 32-117 72-4 43-39 45-53 2-6-16-16-30-22-30-33 0-177 47-177 58 0 6-7 12-15 12s-33 16-55 36c-37 34-43 36-85 30-37-6-46-4-52 9-9 24 16 37 60 31 36-4 51 9 22 20-35 14-9 44 37 44 11 0 27 9 36 20 21 26 94 69 106 62 4-2 2-8-5-13zm498-55c19-20 32-38 29-41-4-5-82 32-104 50-11 8-11 12 0 18 24 15 40 9 75-27zm96 11c10-14 16-25 13-25-15 0-56 25-60 36-9 24 28 15 47-11zm1365-7c15-47 20-84 37-263 16-173 33-265 48-265 5 0 7 26 5 58-2 45 0 57 12 57 9 0 18-15 24-42 8-38 6-44-23-81-25-31-33-52-39-103l-7-63-44-16c-60-21-75-59-38-98 24-26 25-30 15-87-5-33-8-81-6-106l3-47-56 5c-93 9-164-41-215-152-13-27-24-57-24-65-1-38-16-41-61-15-52 30-146 34-193 10-29-15-31-15-53 13-34 44-89 62-188 62-81 0-86 1-95 24-28 75-129 140-204 134l-38-3-24 78c-15 45-37 92-55 112-31 35-89 61-114 51-11-4-15 2-15 24 0 16-5 52-11 79-11 53-45 91-80 91-24 0-24-2 6 67 29 64 67 118 94 132 16 9 17 7 13-14-8-43 7-72 68-142 33-37 60-70 60-73s-21-17-46-30c-49-27-83-75-65-93 7-7 27-5 63 5 52 14 53 15 56 56 2 25 8 42 15 42s43-27 80-60c38-33 73-60 80-60s-16-26-50-58c-55-51-63-63-63-95 0-35 2-37 32-37 29 0 68 23 68 40 0 4-10 11-22 15l-23 8 22 4c21 4 67 49 75 73 2 6 56-14 128-49 118-56 237-101 267-101 17 0 17-4-7-50-23-46-25-57-7-41 15 12 27 5 27-15 0-7-8-10-21-7-45 12-55-72-14-113 21-21 28-23 46-14 15 9 20 19 16 36-3 16 0 24 9 24 20 0 17 18-6 48-15 18-18 28-10 36s17 4 31-14l20-25-7 54-6 54 78-7c222-19 282-19 330-1 35 13 49 25 60 51 22 51 17 79-21 124-28 33-34 47-29 68 12 47 21 57 74 76 39 14 49 21 37 27-9 5-32 3-57-6-60-21-76-19-100 15-26 36-64 132-74 183l-7 37h52c34 0 59 6 70 16 16 14 20 12 55-30 21-25 42-46 46-46 11 0-9 38-39 74-16 19-23 38-20 53l4 24-21-20c-44-42-127-53-190-27-61 25-60 87 3 146 40 37 164 197 193 249 23 42 53 41 66-1zm62-19c6-23 8-48 5-58-11-28-35 17-35 67 0 52 15 48 30-9zm-1320-44c0-40-22-70-60-83-27-10-30-9-30 11 1 32 25 95 46 118 17 19 19 19 31 3 7-10 13-32 13-49zm-130-54c0-16-7-36-15-45-12-11-13-21-5-41 15-39 12-164-5-222-8-28-25-63-37-78l-22-29-7 25c-15 52-9 158 11 211 22 58 20 73-5 35-37-58-46-166-20-253 11-39 12-56 3-87l-12-39-15 29c-9 18-16 64-19 128-2 55-8 113-14 129-10 24-9 30 5 38 11 6 17 22 17 43 0 28 8 40 44 70 25 20 51 53 60 75 19 47 36 52 36 11zm5715-191c72-62 176-157 233-213 81-79 102-105 98-122-4-15 19-53 82-141 48-66 134-195 192-287l105-167 51-15c54-16 91-46 79-64-3-6-24-11-45-11h-39l24-89c13-49 40-145 60-213 45-155 72-296 81-419 7-103 2-118-34-93-27 19-30 87-6 154l16 45-60 185c-34 102-73 233-86 293-29 122-43 153-99 220-22 26-52 79-68 118-43 106-131 233-234 339-51 52-104 118-118 145-51 99-206 271-380 418-35 29-57 56-57 68 0 25 7 20 205-151zm-3932 131c37-11 93-32 125-47 50-24 54-28 31-31-14-2-65 7-113 22-49 14-97 25-107 25-14 0-19 7-19 25 0 30-2 30 83 6zm182-1c3-5-3-10-14-10s-23 5-26 10c-3 6 3 10 14 10s23-4 26-10zm-485-36c15-43 6-86-15-78-10 4-15 20-15 48 0 23-5 47-12 54-9 9-7 12 9 12s25-10 33-36zm-1344-69c56-63 79-81 68-50-4 8-2 15 4 15 5 0 12-9 15-19 6-23 125-108 240-171 233-129 435-183 757-203l45-3-37-17c-55-25-144-22-230 8-39 14-121 34-182 46-160 29-378 122-523 221-23 15-63 37-88 48s-45 24-45 29-31 46-70 91c-38 45-70 86-70 91 0 21 62-24 116-86zm4359 26c-4-13 1-20 17-25l23-7-22-11c-27-13-73-3-73 17 0 14 37 45 53 45 5 0 6-8 2-19zm2523-24c47-19 52-24 47-44-3-15 4-41 20-70 14-27 25-58 25-71v-23l-29 23c-30 23-181 192-181 201 0 8 33 14 50 9 8-2 39-14 68-25zm-5162-8c37-11 37-1 4-214-27-180-32-254-20-315 17-88 40-415 47-667 5-207 4-233-10-233-8 0-27 15-42 33-14 17-33 40-41 50-28 34-26 10 5-81 33-96 38-153 17-191-13-23-13-22-25 24-6 26-19 57-27 70-21 32-104 60-104 36 0-10 9-20 59-64 34-29 41-64 15-74-9-3-36 4-60 16-25 11-54 21-66 21-20 0-21 3-15 93 8 119 45 262 104 395 79 181 72 253-32 327-65 47-90 53-144 34-17-6-43-8-57-5-23 6-26 11-20 38 9 44 21 55 80 74 48 15 55 22 110 104 63 97 105 189 106 233 0 15-11 44-25 65-33 50-48 124-40 195l7 59 72-7c39-3 85-11 102-16zm280 0c127-39 615-240 597-246-6-2-61 15-124 38-63 22-190 68-284 100-93 33-191 74-217 91-71 45-68 47 28 17zm3254 12c0-5-6-23-14-41l-13-32-17 23c-22 33-21 52 4 44 11-4 20-2 20 4s5 11 10 11c6 0 10-4 10-9zm-5878-38c3-21 4-40 2-41-7-9-35 50-30 63 10 27 24 16 28-22zm-59 0c4-2 7-11 7-19 0-19 22-54 87-135 68-85 84-123 77-186-5-34 0-71 15-124 11-41 21-94 21-116 0-37-2-41-31-47-52-10-56-8-69 37-6 24-23 57-37 73l-24 29 5-35 6-35-26 29c-26 30-26 30-5 38 41 15 22 90-49 188-77 106-76 103-35 157 40 52 43 76 15 118-11 17-20 33-20 38 0 7 45 0 63-10zm-75-41c59-64-38-174-124-141-15 5-29 8-31 6-10-10 13-39 41-54 44-22 76-53 76-75 0-27-70-309-83-333-10-19-10-19-17 0-4 11-15 77-24 147-18 143-32 189-87 300-22 43-39 80-39 83s25 5 55 5c34 0 68 7 88 17l32 18-85 5c-47 3-96 12-110 20-23 14-18 15 80 22 58 4 114 9 125 11 39 7 80-5 103-31zm227 28c3-5 25-9 48-8s66-2 95-6l52-8v-63c0-86 24-205 55-272 14-31 25-59 25-64 0-22-53-6-111 34-54 35-65 48-71 80-9 42-48 123-88 182-39 57-70 121-63 129 10 10 51 7 58-4zm2388-7c33-6 34-24 7-111-12-37-20-92-20-131 0-91-17-180-41-213-21-30-26-49-7-30 24 24 38 13 39-30 1-24 5-56 9-73 12-51 24-2 17 75l-6 68 31 6c50 10 67 7 88-14l20-20v29c0 17 4 32 8 35 9 5 129-28 148-42 16-11 35-50 27-55-5-3-29-3-55 0-41 5-47 9-50 31-4 34-26 39-34 8-3-14-12-26-19-26-8 0-27-11-43-25-41-35-50-32-54 18-3 40-4 41-16 19-10-17-10-32-3-59 8-28 7-41-3-52-19-22-48-82-43-88 3-2 19 13 37 35 36 45 80 62 161 62 87 0 123-15 155-63 15-23 30-55 34-72 5-27 15-34 85-62 44-17 116-37 160-44 46-7 107-25 143-42 56-27 77-31 171-35 59-2 147 1 195 7 49 7 90 10 93 7 9-8-120-276-153-320-52-69-91-146-124-244-16-52-30-97-30-100s21 14 48 40c76 74 104 83 147 45l27-23-106-97c-79-74-111-111-129-151-19-41-32-56-56-64-38-13-50 2-31 38 6 12 10 24 7 26-2 2-28-7-58-21s-63-25-73-25c-18 0-19 1-1 20 29 32 12 33-56 0-35-16-75-30-88-30-23 0-23 1-8 18 10 10 49 36 87 57 85 47 96 72 18 40-26-10-23 13 5 35 32 26 14 36-21 11-39-27-56-28-42-1 16 29 3 25-74-25-38-25-73-45-78-45-19 0 24 60 74 104 45 39 50 46 30 46-12 0-39-10-60-23-54-34-72-39-72-21 0 30 31 73 91 128 87 78 48 74-53-6-18-14-42-28-53-30-18-3-20 2-17 37 2 23 16 59 32 85 16 24 27 46 25 49-12 12-55-35-90-99l-40-73-3 40c-3 35 10 107 34 191 5 16 2 22-10 22-14 0-16 14-16 89 0 76-4 97-26 140-34 69-54 165-60 290-5 113-9 128-29 111-9-7-13-43-14-116-1-98 2-114 40-227l41-121-10-266c-9-240-12-273-36-353-31-103-31-105-9-129 20-22 78-23 343-7 102 7 206 9 232 5l48-7-40-79c-54-107-149-252-160-245-5 3-7 25-4 49 9 64-15 102-82 133-50 23-66 25-157 22-68-2-115 1-141 10-95 33-252-8-327-85-40-41-30-42 47-8 83 37 147 31 239-20l68-39-27-14c-22-12-40-12-95-4-112 18-187-14-287-122-65-70-115-148-144-226-17-44-18-51-5-51 9 0 24 19 34 44 22 49 115 146 178 183 88 51 221 41 378-28 115-51 163-58 233-30 66 26 102 27 129 1 19-17 20-24 11-52-5-18-13-46-16-63-5-29-5-29 19-14 27 18 89 130 89 160 0 12-13 25-35 36-19 9-35 24-35 33s51 48 123 95c86 56 151 108 220 177 93 94 99 98 141 98h43l28-132c52-252 93-358 149-388 36-19 41-9 18 37-49 96-67 174-67 288 0 63 5 125 13 145l12 36 73-4c113-6 251-27 447-68 209-44 196-24 118-179-80-159-88-189-104-395-19-246-29-281-36-124-6 114-16 159-42 176-17 12-61 9-80-5-16-12-14-14 19-30 35-17 36-19 33-65-4-62-24-65-80-14-60 55-78 62-151 62-78 0-153-24-174-56-19-29-12-40 15-25 26 14 102 14 102 1 0-15-36-30-71-30-48 0-169-64-236-125-32-29-55-56-52-59s55 13 115 35c119 45 251 67 226 37-7-9-31-19-54-22-56-9-152-61-189-104-17-19-28-36-26-38s24 4 48 15c74 33 204 54 288 48 111-9 149-24 208-84 91-93 135-93 211-5 63 74 157 213 221 330l51 92v145c0 182 3 184 103 61 40-48 106-88 187-112 26-8 63-27 83-42 80-64 297-80 430-33l58 20-6-32c-17-77-80-205-166-333-38-57-59-77-114-110l-68-39-176-1c-219-1-319-22-405-86-16-13-12-14 41-10 38 3 69-1 84-9l24-12-30-13c-51-22-147-16-272 16-115 30-261 42-248 20 3-5 14-10 23-10s37-10 62-21c35-16 41-22 30-29-48-31-165 7-345 112-178 102-242 125-252 88-9-32-88-27-208 15-184 65-295 66-421 5-56-27-160-107-151-116 2-3 36 9 75 26 79 34 117 37 150 14 31-21 28-29-17-42-21-7-59-30-84-52-79-70-129-182-158-353-8-46-17-76-24-73-125 54-251 120-257 133-3 10-7 37-7 61-1 24-6 52-11 63-12 21-45 27-37 5 3-7-1-49-9-92-7-43-14-92-14-108 0-25-2-27-17-15-9 8-29 32-45 54s-42 47-57 55-75 67-134 130-113 121-120 128-39 36-71 65c-69 60-127 145-146 211-22 80-41 47-28-49 10-75 9-153-2-160-15-10-55 22-77 62-12 21-35 74-51 118-31 85-75 165-92 165-6 0-10 11-10 24 0 26-24 53-34 37-4-5-4-28 0-50 5-28 3-41-5-41-12 0-32 30-143 217-57 98-78 117-78 72 0-11-7-35-14-54-29-68-68-36-101 80-12 45-36 86-95 165-44 57-90 126-102 152-13 26-27 48-31 48-5 0-6-36-2-80 7-82 2-95-28-62-26 29-107 165-102 172 2 4 66 12 142 19 76 6 156 14 177 16 29 3 51-3 80-20 23-13 68-31 101-40 142-39 170-58 184-126 14-65 34-101 84-156 36-39 196-163 211-163 12 0 47 144 66 276 21 146 36 203 66 249 16 25 22 26 80 23 74-4 73-5 99 123 19 92 32 124 64 153 18 17 21 31 21 105 0 47 7 131 15 186 21 142 19 287-4 393-11 48-29 191-40 317-21 240-19 306 19 504 5 30 10 85 10 124 0 67 1 69 23 62 12-4 34-9 50-12zm122-35c25-7 45-15 45-19s-9-29-21-55c-21-49-19-99 4-91 6 2 15 23 19 48 13 75 18 89 34 89 13 0 15-11 12-65l-4-65-62-31c-63-31-80-50-39-42 22 4 23 2 20-29-8-63-13-78-31-78-9 0-28-9-42-20s-33-20-42-20c-24 0-23 40 2 200 11 69 20 140 20 158 0 37 11 40 85 20zm280-90c223-73 222-73 230-124 8-57-1-101-25-114-16-8-19-5-25 19-9 42-68 105-122 131-35 17-73 24-141 28l-93 5 6 25c3 13 9 38 12 54 4 22 10 27 22 22 9-4 70-24 136-46zm3043-56c18-37 33-72 32-78 0-6-12-32-26-58-37-66-94-92-66-30 33 70 34 121 7 212-5 15-3 22 6 21 8 0 29-30 47-67zm-6730-52c23-9 31-17 27-27-3-10-1-13 9-10 55 21 98 27 112 16 24-20 16-26-55-48-69-21-131-66-131-96 0-8 27-56 61-107 33-51 77-129 98-173 40-83 94-225 86-225-7 0-48 86-85 178-41 104-92 184-164 255-53 54-57 56-86 45-17-5-45-7-62-4-29 6-37 1-85-50-74-78-149-195-229-356-38-76-72-138-76-138-17 0-7 59 15 91 12 19 29 54 36 79s25 68 40 96c47 88 188 278 221 297 45 27 39 36-50 77-14 6-43 21-65 33-29 15-58 21-105 21-55 1-75-4-130-34-74-40-170-133-215-209-29-48-33-51-93-65-47-11-71-12-93-4-41 14-34 41 12 48 30 5 115 57 107 66-2 1-28-6-59-16-73-25-148-37-134-21 6 6 35 15 65 21 63 12 67 15 50 35-46 56-225 95-350 77-73-11-87-8-44 8 93 36 225 29 320-16 49-23 63-25 120-19 60 6 64 5 64-14 0-31 15-26 52 20 18 22 42 52 53 65 29 36 226 95 321 97 64 2 76-1 123-31 45-27 59-31 90-26 33 7 35 6 22-9-11-14-11-21 3-42 10-14 29-31 43-38 22-10 28-8 43 11 10 12 23 22 30 22 25 0 4 45-28 62-18 9-29 19-23 22 6 4 33-5 61-19 36-18 55-23 67-16 14 8 12 12-17 30-66 40-123 39-222-4-18-7-68 33-68 56 0 15 272 6 318-11zm1741-64c209-87 332-128 463-154l93-20-3-33c-4-47-48-139-66-139-27 0-249 82-341 126-123 58-201 111-279 187-51 50-64 68-59 85 3 12 7 22 9 22s84-33 183-74zm-2405 33c-3-5-16-9-30-9-28 0-33 26-6 32 20 5 44-10 36-23zm4310-13c25-15 46-31 46-36 0-6-26-10-57-10-32 0-75-3-95-6-37-6-38-6-38 25 0 19-4 30-10 26-5-3-10-22-10-41 0-30-3-34-25-34-20 0-25 5-25 25 0 15 7 40 16 57 16 30 16 31 84 26 50-4 81-12 114-32zm461-21c112-48 192-90 262-137 41-28 42-28 48-7 9 28 33 21 134-38 90-54 91-55 62-148-32-104-81-111-176-25-30 27-67 53-82 57-58 16-138 6-263-34-147-48-200-58-200-38 0 7 16 35 35 61 108 149 117 174 92 263-9 31-19 64-22 74-4 9-5 17-2 17 4 0 54-20 112-45zm-1298 20c3-9 3-19-1-22-7-7-36 16-36 28 0 15 30 10 37-6zm-1847-15c0-5-4-10-10-10-5 0-10 5-10 10 0 6 5 10 10 10 6 0 10-4 10-10zm3327-36c84-57 96-69 63-59-14 4-59 29-100 56-53 34-68 49-53 49 12 0 52-21 90-46zm-5879 14c14-14 16-58 2-58-12 0-30 33-30 54 0 19 11 21 28 4zm1139-29c54-23 101-45 105-48 15-14-23-85-80-149-43-48-68-88-86-135-13-36-53-125-87-196-60-126-63-131-93-131-37 0-208-41-290-69l-59-21 7 38c4 20 9 87 12 147 3 61 12 124 20 142 8 17 14 43 14 57 0 20 9 30 39 45 73 38 201 142 220 179 32 62 74 110 125 147 27 19 51 35 52 35 2 0 47-19 101-41zm883 16c5-14 13-37 16-51 7-26 6-26-22-10-16 8-42 27-58 42-33 29-24 44 27 44 20 0 30-7 37-25zm838-41c13-38 13-147-1-160-3-4-17 0-30 9-18 12-23 22-20 41 3 14 0 55-6 91-7 36-9 70-5 76 11 18 48-16 62-57zm1199 44c-3-8-6-5-6 6-1 11 2 17 5 13 3-3 4-12 1-19zm-4217 4c0-5-11-14-24-20s-40-25-60-42c-23-21-36-27-36-18 0 20 38 54 80 72s40 18 40 8zm2089-48 60-57v-111c0-61 5-156 10-211 6-55 11-105 11-112 0-12-78-45-136-57-30-7-31-6-59 66-37 98-133 289-185 372l-43 67 28 29c38 40 119 66 212 69 38 1 48-4 102-55zm2455 50c9-3 16-12 16-20 0-16-42-4-48 14-4 13 8 15 32 6zm-2927-19c3-9 3-19-1-22-8-9-37 18-30 28 8 14 24 11 31-6zm853-6c0-24-23-21-28 4-2 10 3 17 12 17 10 0 16-9 16-21zm242-6c23-21 26-52 2-33-18 16-38 50-28 50 4 0 16-7 26-17zm-1776-8c-22-17-36-19-36-7 0 14 12 22 34 22 21-1 21-1 2-15zm-808-43c6-43-59-92-121-92-36 0-61 20-69 56-5 19 2 24 56 39 33 10 66 19 71 21 30 9 60-2 63-24zm2370 0c4-24-7-29-26-10-18 18-15 40 6 36 9-2 18-13 20-26zm692 18c0-12-38-32-52-28-14 5 19 38 38 38 8 0 14-4 14-10zm40 1c0-12-20-25-27-18s6 27 18 27c5 0 9-4 9-9zm1327-13c16-20 24-66 13-73-5-3-15 3-22 14-12 20-13 20-25-2-11-21-12-21-19-3-5 12-2 23 7 30 8 6 13 19 11 29-4 20 21 23 35 5zm5777-27c10-17 16-35 12-38-9-10-34 16-45 48-14 41 7 34 33-10zm-10065-7c-26-29-128-98-134-92-3 2 4 18 15 36 17 28 128 97 139 86 3-2-6-16-20-30zm4191 22c0-7 3-28 6-46 7-30 6-31-22-28-25 3-29 8-32 37-3 33 9 51 36 51 6 0 12-6 12-14zm-1633-37c74-33 82-51 64-144-15-83-14-141 4-190 17-47 20-161 4-170-5-4-28 5-49 19s-51 28-67 32c-25 6-26 5-15-8 7-9 27-22 45-29 54-21 58-27 42-58-7-15-26-33-41-40-26-12-30-10-54 18-19 24-33 31-60 31-50 0-108 18-131 41-25 25-31 24-27-3 3-23 34-43 81-53 33-7 34-18 3-35-33-17-88-6-120 27-31 31-33 55-5 99 21 35 14 43-21 24-10-5-21-22-24-37-25-101-27-105-42-92-9 7-26 33-39 59-62 122-73 263-25 330l25 35 3-38c4-47 22-38 22 11 0 20 4 43 9 51 12 18 41 7 42-16 0-14 2-13 9 5 6 12 18 22 30 22 28 0 83-115 68-143-17-33-14-108 6-123 11-8 15-18 10-26-6-10-4-10 9 1 12 10 14 18 7 31-18 33-11 110 12 152 22 39 24 40 66 35 39-4 92-37 92-58 0-4-17-5-39-2-51 7-99-33-108-92-7-48 6-40 27 18 28 76 98 72 118-7 7-27 13-31 45-34 43-4 44-1 18 36-11 15-22 44-26 66-3 21-16 48-28 60-21 21-26 38-54 204-6 32-5 33 23 26 16-4 57-19 91-35zm-2179-9c48-31 8-47-61-24-41 14-71 15-166 9-64-4-113-4-109 0 33 34 289 45 336 15zm-79-45c10-11-9-15-114-25-61-5-125-14-144-20-19-5-36-8-38-6-8 8 56 41 102 53 46 11 181 10 194-2zm987-10c42-32 57-31 84 3l22 27 44-49c79-86 142-213 180-363 10-40 15-76 10-80-10-10-231-10-421 0-91 5-169 5-197-1-27-5-48-7-48-5 0 3 29 63 64 133 53 106 102 189 200 343 14 23 23 22 62-8zm2694-6c0-23 10-40 37-65 51-47 36-59-70-59h-82l3 30c5 46 32 94 61 110 40 22 51 18 51-16zm-826 6c-4-8-10-15-15-15s-9 7-9 15 7 15 15 15c9 0 12-6 9-15zm-3794-2c0-8-97-53-112-53-4 0-3 11 4 24 10 24 22 28 91 34 9 1 17-1 17-5zm4722-10c25-23 23-43-6-43-28 0-51 24-42 45 7 20 25 19 48-2zm123-3c7-21-10-60-26-60s-21 25-10 53c12 32 27 35 36 7zm2185-2c0-18-88-187-121-233-17-23-44-53-61-65-28-21-31-21-24-4 4 10 48 88 98 171 79 135 108 169 108 131zm-6881-24 34-23-26-6c-31-8-134 44-114 57 18 12 67-1 106-28zm375-79c17-12 40-16 71-13 25 2 45 1 45-2s-3-15-6-26c-5-20-9-21-42-12-61 16-118 55-136 92-27 58-19 74 13 24 17-26 41-54 55-63zm-73-7c26-26 59-50 73-54 36-9 33-24-4-24-76 0-150 59-150 118 0 40 1 39 81-40zm293 59c-5-15-67-47-89-47-20 0-19 14 3 32 32 29 96 39 86 15zm2661 3c3-5 14-10 24-10 19 0 41-38 41-70 0-12-7-20-17-20s-27-3-39-6c-18-5-22 0-27 33-3 21-9 48-13 61-5 16-2 22 9 22 9 0 19-4 22-10zm2548-10c-3-11-9-20-14-20-4 0-13 9-19 20-9 17-8 20 14 20 19 0 23-4 19-20zm4872-26c44-59 44-69 1-43-31 18-45 43-46 77 0 20 7 14 45-34zm-7470-6c15-26 20-52 20-125 0-114-15-138-44-72-12 24-21 65-21 90 0 59 11 139 19 139 4 0 15-15 26-32zm-3095-46c0-4-5-13-11-19-16-16-1-57 38-103 37-43 38-56 3-45-26 8-49 43-52 78-1 15-6 27-10 27-17 0-38-48-38-88 0-33 6-48 26-67 14-13 34-27 44-30s21-12 24-20c4-12-3-15-30-15-49 0-104 53-105 102-2 55 2 82 18 115 18 40 93 92 93 65zm70-29c25-78 32-83 118-83l77-1-28-24c-78-68-233 28-202 125 10 30 22 24 35-17zm6839-55c-32-88-65-148-80-148-12 0-11 17 2 42 17 32 2 33-26 2-26-29-26-29-19-4 3 14 16 41 27 60 24 40 106 130 118 130 4 0-6-37-22-82zm-3717 42c17-26 28-25 28 1 0 17 3 19 14 10s15-9 18 0c5 15 86-20 110-48 23-25 28-67 8-68-21 0-25-49-6-64 9-8 26-11 41-7 27 7 33 33 14 68-18 33-4 31 66-12 38-23 79-46 92-51 29-11 29-26 2-55-19-20-20-25-7-51 11-22 20-28 43-26 35 3 55 26 55 65 0 15 2 28 4 28 24 0 158-35 192-49 37-17 42-23 40-48-2-20-9-29-25-31-24-4-28-24-7-41 23-20 71 11 89 57 12 31 22 41 48 46 62 12 69 9 69-29 0-91-67-136-203-136-173 0-316 72-589 294-75 61-98 85-98 103 0 14-7 27-15 30-17 7-21 34-5 34 5 0 15-9 22-20zm818 0c0-5-7-10-15-10s-15 5-15 10c0 6 7 10 15 10s15-4 15-10zm6600-23c0-19-10-27-26-20-21 8-17 33 6 33 11 0 20-6 20-13zm-10189-77c-11-36-61-92-93-103-14-5-11 6 13 60 16 36 39 79 51 95l21 31 9-24c6-15 5-37-1-59zm1998 22c1-13-3-20-9-17-5 3-10 23-9 43 0 30 2 33 9 17 5-11 9-30 9-43zm2316 32c44-21 125-107 125-134 0-11-17-55-39-98-22-45-51-129-69-201-33-131-52-171-52-110 0 20-12 74-26 120-23 72-25 89-16 124 6 22 9 42 6 44-2 3-17-8-32-22-33-31-53-34-93-10-31 18-35 17-126-36-30-17-37-17-85-5-29 8-78 14-110 14s-58 4-58 10c0 23 100 90 134 90 36 0 135 37 185 70 25 16 69 52 96 81 44 45 93 77 118 79 5 0 24-7 42-16zm3920 7c3-5-6-22-20-37l-25-26 21-26c33-42 104-88 243-156 72-35 167-88 210-118 75-50 126-101 114-113-3-3-43 8-89 26-52 19-105 32-138 33-30 0-56 6-58 12-5 15 43 24 97 17 41-5 44-4 30 10-8 9-52 34-97 56-46 22-100 52-122 65-22 14-60 31-85 37-36 9-58 24-95 65-79 87-78 136 6 163 1 1 4-3 8-8zm-8320-23c-20-66-86-131-164-164-68-28-50 2 42 73 34 27 65 60 73 79 10 23 21 34 35 34 16 0 19-4 14-22zm3220-29c19-35 15-44-14-34-49 15-69 65-26 65 17 0 29-9 40-31zm405 2c0-20-17-37-27-28-7 8 7 47 18 47 5 0 9-9 9-19zm-4346-32c-21-21-94-44-94-29 0 7 85 48 105 49 5 1 0-8-11-20zm3654-63c16-8 66-46 113-85 62-52 124-90 234-145 83-41 168-78 189-82l40-7-22-18c-54-43 11-40 69 4 71 54 81 57 198 57 97 0 122 4 221 35 162 51 208 47 327-30 1 0 16-86 33-191 36-221 51-290 87-398 18-57 26-101 26-157 1-74-1-79-42-142-41-64-42-67-51-186-9-113-28-191-47-191-24 0-129 93-185 162l-30 38 23 37c61 104 59 102 111 96 56-7 57-6 28 87-26 86-25 105 9 167 28 51 29 55 20 128-19 150-99 335-142 327-9-1-34 6-56 18l-40 20-68-21c-37-12-140-56-228-100-205-101-264-122-290-103-27 20-37 18-92-20-72-49-84-51-118-16-15 16-55 73-89 127-66 105-120 154-174 156-36 2-44-16-10-21 12-2 29-13 36-23 7-11 26-26 42-34 63-32 78-79 41-127-25-31-105-74-161-87-63-14-90 4-90 62 0 23-14 89-30 147-89 308-98 381-55 444 14 20 36 52 50 72s25 46 25 56c0 18 4 17 35-11 19-17 48-37 63-45zm-3118 39c6 3 10 1 10-5 0-17-29-24-56-12-13 7-24 19-24 27 0 14 3 14 30 0 17-9 35-13 40-10zm7601-22c7-20 15-24 34-21 33 7 65-29 72-80 5-36 3-40-20-44-31-6-54 11-68 52-17 46-29 20-29-62 0-42 11-110 30-183 17-64 30-124 30-133-1-34-50 43-73 113-19 59-22 93-22 215 0 80 3 153 8 163 9 22 25 14 38-20zm-413-42c5-30-18-24-29 8-7 18-6 22 9 19 9-2 19-14 20-27zm-4968-30c13-29 20-57 16-67s-1-21 6-25c10-6 9-9-2-13-125-39-118-38-158-18-53 28-100 41-167 50l-60 8 27 18c15 10 60 26 100 37 40 10 96 27 123 38 77 31 88 28 115-28zm1460 39c8-5 11-12 8-15-9-9-66 4-73 16-8 12 46 11 65-1zm-3647-66c62 5 78 4 75-6-13-39-113-50-165-18-37 22-47 48-11 29 14-8 48-9 101-5zm-93-78c41 0 85 5 98 12 39 22 28-26-17-68-91-86-272-75-323 20-27 51-4 50 47 0l44-43 86 6c112 6 125 20 38 36-83 15-148 43-162 69-10 18-6 18 52-6 47-20 80-26 137-26zm2750 15c-1-16-64-118-107-171-33-42-55-60-71-60-30 0-122 47-122 63 1 37 72 117 103 117 14 0 50 13 80 29 31 16 64 31 74 33 20 5 43-1 43-11zm-241-10c12-8 6-23-33-80-26-39-49-71-51-71-15 0-75 36-75 44 0 23 41 77 72 96 36 21 65 25 87 11zm463-137c15-71 42-184 59-252s28-126 25-130c-10-9-72 27-121 70-37 32-45 47-50 86-4 26-25 103-46 171s-39 127-39 132 11 9 26 9c14 0 42 11 62 25s41 24 46 22 22-61 38-133zm3368 105c0-45-31-90-95-138-30-23-55-39-55-36 0 21 127 205 142 205 4 0 8-14 8-31zm2411-67c-26-49-71-64-71-23 0 25 20 41 52 41 24 0 27-3 19-18zm-5940-126c22-66 39-130 37-143l-3-24-60 37c-33 20-81 49-106 63-45 25-46 28-35 53 13 31 107 136 119 134 4-1 26-55 48-120zm-1225 54c13-5 24-16 24-23 0-8 9-22 20-32 17-15 24-16 46-7 27 13 84 15 133 6 27-6 31-11 31-39 0-47 8-64 41-80 39-21 49-19 49 11 0 39 18 64 46 64 33 0 38-18 24-85-12-59-41-99-77-110-28-8-31 10-6 37 28 31 9 29-36-3-46-34-48-48-8-67 22-11 25-18 21-41-4-16-1-32 5-35 16-10 13-26-4-26-38 0-4-56 60-100 25-17 48-42 51-56 5-20 11-23 28-18 31 9 56 34 78 78 25 48 3 45-30-5-30-44-36-46-67-14-33 32-29 44 20 61 58 19 107 77 145 172 33 79 35 82 67 82 18 0 33-3 33-6 0-18-57-117-97-168-30-38-39-55-25-47 17 9 77 92 127 174 9 16 15 15 63-8l54-25-28-47c-41-72-104-150-182-227-64-62-73-68-101-63-30 6-31 5-29-26 3-27 0-32-17-30-11 1-24 10-30 19-5 10-32 40-58 67-28 29-66 85-94 140-25 50-52 97-61 103-11 8-12 15-3 32 12 22 15 81 5 106-10 27-24 18-24-16l-1-33-15 28c-15 28-24 31-61 21-17-5-23-14-23-36 0-16-4-37-9-47-12-21 27-67 64-77 15-4 22-11 18-20-3-8 1-14 11-14 9 0 16-4 16-10 0-5-7-10-17-10-9 0-37-23-62-50l-47-51-46 26c-67 37-103 46-190 46-71 0-81 2-127 33-66 44-111 59-171 54-28-1-50 0-50 4 0 18-79 93-115 109-22 10-63 19-92 19-33 0-53 4-53 11s-20 34-45 60c-56 60-58 83-9 104 58 24 71 20 93-30 11-25 23-45 26-45s21 12 40 27c31 25 34 31 29 64l-6 37 93 17c52 9 132 21 179 25 99 10 341 3 376-10zm7212-46c40-42 41-56 3-43-31 11-64 43-74 72-11 29 32 12 71-29zm-7868-35c0-11-27-12-34 0-3 4-3 11 0 14 8 8 34-3 34-14zm-1060 3c0-24-122-104-136-89-5 4 117 97 129 97 4 0 7-4 7-8zm2050-37c0-8-4-15-10-15-5 0-10 7-10 15s5 15 10 15c6 0 10-7 10-15zm6990-64c12-33 20-65 18-72-5-16-52 45-73 94-15 37-15 37 9 37 20 0 27-10 46-59zm-6764 13c27-14 51-28 53-29 2-2-14-40-34-85l-38-80h-59c-65 0-98 12-98 36 0 8 14 20 30 26 36 12 58 50 67 113 3 25 11 45 18 45s34-12 61-26zm-2476-3 45-7-50-16c-39-12-52-12-60-3-5 7-19 17-30 23-18 10-16 11 15 11 19 0 55-4 80-8zm2070-127c0-36-5-40-30-24-12 7-12 12-2 22 6 6 12 20 12 31 0 10 5 15 10 12 6-3 10-22 10-41zm2690-16c37-77 38-117 6-149-90-92-268-260-300-284l-38-29-19 22c-29 36-34 104-15 215 9 55 18 102 19 104 2 2 30 8 61 15 59 11 67 9 79-27 3-7 13-7 33 0 30 11 31 14 63 133 12 41 32 60 69 61 7 1 26-27 42-61zm-3637 3 6-30 85 6c78 5 86 4 92-13 4-10 17-43 30-73l24-54 53 7c170 20 177 20 177-2 0-15-12-28-39-41-21-11-51-31-67-44-16-14-65-45-110-69-44-24-105-63-135-85-83-61-132-83-187-83-120 0-282-93-333-191-19-35-115-119-138-119-10 0-23-13-32-32-8-18-24-37-36-43-13-5-23-17-23-27 0-9-18-38-40-63s-40-56-40-68-21-58-47-102c-59-102-65-128-47-234 7-47 14-103 14-124 0-31 8-48 40-84 73-83 171-245 157-260-10-10-247-9-300 1-23 4-37 13-37 22 0 8-11 30-25 48-30 39-31 63-5 96 25 32 25 67 0 132-20 52-73 118-96 118-40 0-9 67 86 185 85 106 99 132 134 246 16 51 49 124 80 175 42 71 54 101 59 146 4 41 17 79 46 132 23 40 41 80 41 88 0 11 17 17 62 22 84 8 163 48 283 141 55 42 123 88 150 102 56 29 104 78 104 108 0 11-6 31-14 45s-14 35-15 48c0 19 3 21 19 13 10-6 21-24 24-40zm5687-26c-4-19-22-60-40-92-18-31-38-73-46-93-12-34-13-34-13-7-2 54 30 167 56 197 35 42 53 40 43-5zm2318-35c1-39 0-70-2-70-3 0-12 7-20 16-16 16-23 104-9 117 19 20 28 1 31-63zm-1564 20c37-6 103-22 145-36 146-50 365-179 376-223 3-13 5-25 3-27-2-1-39 2-83 8-144 18-332-5-425-52-20-10-52-36-70-56-26-30-36-35-49-27-9 6-15 18-15 27 1 9-6 16-16 16-21 0-43 24-32 35 4 4-15 5-42 1-49-6-49-6-31 14 19 21 19 21-26 14l-44-7 19 22c19 21 19 21-3 21-12 0-48-13-81-30-60-30-100-38-100-20 0 6 5 10 10 10 6 0 10 5 10 10 0 6-22 8-57 4-54-5-57-4-39 10 11 9 24 16 29 16 4 0 6 4 2 9-3 6-18 6-37-1-23-8-36-8-49 1-26 16-44 14-81-9-18-11-42-20-52-20-18 0-18 2 5 26 48 53 167 140 244 181 156 81 315 108 489 83zm-2507-15c21-15 50-91 40-102-15-14-90 56-102 95-5 18-3 22 17 22 13 0 33-7 45-15zm-2228-19c34-18 94-84 86-96-14-22-202 49-189 72 24 43 53 49 103 24zm1441-27c0-7-12-9-34-5-34 7-35 6-27-21 13-45 3-56-26-33-50 39-74 14-28-30s23-57-27-15c-26 22-68 34-68 19 0-3 11-20 26-39 31-41 16-55-26-24-36 27-51 18-28-19 38-60 51-91 44-108-6-15-14-11-54 29-53 52-62 56-62 27 0-11-3-20-6-20-13 0-50 25-62 42-18 25-32 22-32-7 0-31-20-41-50-25-16 9-25 9-35 0-17-14-25-10-106 55-80 64-119 101-119 113 0 5 64 12 143 16 78 4 214 17 302 30 180 27 275 32 275 15zm760-75c6-18 10-42 8-51-3-15-6-14-20 7-9 14-19 43-23 64-6 35-5 38 9 27 8-7 20-28 26-47zm-2342-28c3-12-1-17-10-14-7 3-15 13-16 22-3 12 1 17 10 14 7-3 15-13 16-22zm3950-40c2-33-1-52-10-57-16-11-81-12-76-1 54 123 81 142 86 58zm2501-144c2-160 0-191-14-202-13-11-15 8-15 189 0 161 3 201 13 201 11 0 14-39 16-188zm-6574-16-79-154-27 20c-15 11-37 33-49 50-20 27-20 31-7 52 9 13 28 29 44 35 15 7 50 40 77 73 42 53 102 95 116 82 2-3-31-74-75-158zm463 119c87-26 152-99 152-170 0-19-5-25-23-25-28 0-58 20-109 76-49 53-68 57-39 8 41-69 19-65-78 14-31 25-57 40-59 33-2-6 15-34 37-63 23-28 39-53 37-56-3-2-31 12-63 32-72 45-97 47-58 6 37-38 24-51-23-23-20 12-52 30-70 40-35 18-36 21-15 127l5 29 127-6c69-3 150-13 179-22zm-846-45c51-31 73-51 89-81 11-23 18-43 16-46-3-2-23 12-45 31-53 49-81 48-47 0 15-22 11-34-10-34-6 0-30 16-54 36-23 20-45 34-48 30-3-3 2-23 11-44 10-22 16-50 14-63-3-22-7-20-59 34-55 56-79 69-79 45 0-7-4-19-9-27-8-12-13-12-35 3-27 17-33 8-16-25 9-15 7-19-7-19-10 0-27 7-37 15-22 17-66 20-66 6 0-6 5-13 10-16 25-15 8-34-37-41l-47-7 27-21c37-30 19-46-50-46-29 0-53-4-53-8 0-5 18-16 40-25 46-18 53-37 13-37-16 0-41-7-57-15-15-8-37-15-47-15-21 0-25-20-7-38 9-9 2-12-34-12-57 0-70-16-35-42 32-23 35-38 8-38-11 0-36-10-56-22-43-25-55-16-55 41 0 43 50 192 70 209 41 35 275 186 344 223 193 103 244 111 348 49zm-452-9c0-29-50-65-130-96-54-21-88-43-136-87-59-56-64-63-64-103 0-26-6-47-15-55-21-17-33-69-45-190-10-88-9-105 5-119 9-11 15-37 15-70 0-109 97-323 168-371 62-42 96-59 119-60 13 0 31-13 45-32 12-18 44-60 71-93 54-66 92-133 82-143-7-7-109-9-243-3-95 4-79-12-137 134-33 81-59 102-114 93l-38-6-6 148c-8 215-50 383-171 682l-54 135 36 20c20 11 51 34 69 51 19 18 49 35 70 39 21 3 81 27 133 52 152 73 208 92 278 92 55 1 62-1 62-18zm936-190c20-80 50-173 79-245 7-16 5-17-16-11-63 19-145 90-180 158l-19 37 41 80c27 51 48 80 57 78s23-38 38-97zm3157 31c17-16 24-62 8-62-11 0-91 80-91 91s61-10 83-29zm-2411-114c25-12 56-44 93-98 31-43 71-88 90-100 18-11 68-64 111-118 195-242 641-713 700-738 17-7 67-52 110-100 51-56 111-109 169-147 50-34 144-107 210-164 173-148 224-184 323-226 76-33 132-66 132-79 0-3-44 1-97 8-54 7-140 13-190 14-96 0-125 15-53 26 22 4 37 10 34 15-8 14-121 11-207-6-43-8-88-15-100-15-22 1-22 1-3 15 11 8 30 15 42 15 30 0 42 20 12 21-176 4-163 2-160 29 5 32 28 58 67 75l30 13-47 1c-33 1-74-10-134-35-47-19-88-33-91-30-12 12 10 58 47 101 42 48 49 65 28 65-30 0-79-44-138-124-35-47-67-86-71-86-15 0 14 88 57 168 24 47 42 87 40 90-8 7-58-33-114-92-29-31-56-56-59-56s-31 24-62 54c-31 29-71 61-89 70-30 16-32 16-32-1 0-10 12-38 26-63 63-108 64-110 51-110-7 0-36 18-66 40-55 42-94 50-125 27-15-11-12-14 29-26s85-50 85-73c0-5-41-6-92-2-73 5-101 3-130-9-51-21-48-33 7-29 45 4 105-13 105-29 0-4-10-11-22-15-30-10-214-7-253 4l-30 9 37 35c24 23 60 43 108 58 65 21 70 24 56 39-16 15-97 18-138 5-24-7-23 18 0 39 10 10 43 25 72 35 61 21 73 37 36 46-30 7-105-19-176-63-28-17-57-31-64-31-23 0 0 49 67 141 32 45 56 84 53 86-14 14-60-19-133-95l-83-87v95c0 70-4 101-16 118-29 42-54 23-54-43 0-44-20-135-29-135-4 0-21 28-37 62s-37 72-47 85c-21 26-76 58-85 49-3-3 15-50 40-104 48-102 62-142 48-142-5 0-40 29-79 64-101 94-142 110-206 86-30-11-25-30 8-30 12 0 43-22 74-52 59-58 69-84 27-68-36 14-79 12-119-4-42-18-46-36-7-36 46 0 132-27 173-54 32-21 79-88 79-111 0-3-35 13-78 35-111 58-248 70-170 16 12-9 43-23 69-31 57-19 91-51 69-65-28-18-81-22-185-15-86 6-103 9-98 22 8 21 46 33 106 34 95 1 13 22-90 23-51 1-93 4-93 8 0 16 49 37 113 49 37 7 67 15 67 19s-15 15-34 25c-26 14-47 17-97 13-35-3-73-9-84-13-11-3 16 27 60 69 44 41 77 78 73 81-12 12-74-15-131-55-31-22-58-40-61-40-14 0-4 36 20 67 31 41 21 42-37 4-44-29-93-76-122-120l-15-23-25 39c-34 53-80 91-122 99-59 11-61 0-7-59 29-32 52-62 52-67 0-16-51-11-108 10-61 23-120 26-147 7-28-21-9-37 45-37 27 0 51-4 55-10 3-5 28-21 56-37 28-15 57-40 65-55 19-36 6-35-53 2-46 29-115 41-127 21-3-4 12-22 34-40 67-54 41-84-34-40-19 11-43 19-53 17-13-2-19 4-21 25-4 33-6 33-45 1-17-15-33-22-35-16s4 37 12 70c19 70 20 115 5 143-16 30-34 9-59-66-31-92-80-149-80-92 0 35-47 127-65 127-21 0-45-59-45-110 0-33-3-40-20-40-11 0-37 16-58 35-50 44-86 59-102 40-9-10-7-21 4-44 9-16 16-32 16-34 0-3-21-10-47-16-27-7-68-24-93-38-62-34-158-40-342-19-81 10-185 17-230 16-46 0-130 2-188 5-72 5-153 1-255-10-92-11-292-20-520-25-203-5-412-12-462-16l-93-7-21 48c-19 43-20 54-10 104 14 69 43 125 88 172 38 40 37 54-6 93-36 33-27 63 41 128 144 139 315 245 495 308l52 19-1-107c-1-116 14-172 55-194 33-17 350-4 409 17 27 9 51 21 54 26s-19 44-48 87c-95 136-126 202-146 314l-9 46 221 115c122 64 265 134 319 156 116 48 226 83 237 76 16-10 39-142 55-313 15-173 28-255 44-281 7-11 15-11 42-2 32 11 36 10 67-23 20-23 32-46 32-64 0-31 27-60 75-81 42-19 264-27 328-12 29 6 63 20 77 31l25 19-33 63c-66 129-167 237-280 299-50 28-69 47-123 127l-64 94-6 101c-3 56-2 110 3 119 5 10 43 34 85 54 128 62 624 176 843 194 152 12 184 7 227-41 48-53 128-89 214-96 38-3 69-2 69 3 0 11-24 48-61 96-15 18-29 45-33 59-6 26-5 26 107 53 286 67 462 78 549 34zm5858-14c0-15-6-24-15-24-11 0-15 11-15 36 0 31 2 35 15 24 8-7 15-23 15-36zm-8265-47c22 1 34-16 91-127 45-88 67-160 48-160-21 0-52 39-58 76-9 46-23 51-30 9-8-40-6-39-41-23-22 10-28 9-35-3-8-12-16-11-57 4-99 38-143 50-150 43-4-4 9-22 30-41 65-59 41-73-49-29-75 37-117 19-51-21l32-20-60-5c-57-5-58-10-9-25 22-7 12-28-15-35-37-9-25-25 25-32 73-11 73-24-1-32-36-4-77-12-92-19l-26-12 24-6c13-4 39-7 58-8 62-2 22-15-65-22s-139-28-95-39c32-7 28-24-8-34-25-7-31-14-31-37 0-30-23-49-59-49-17 0-21 6-20 33 1 81 13 105 139 269 147 191 212 260 300 318 64 41 66 42 125 34 33-4 69-7 80-7zm8083-12c6-14 15-25 20-25 4 0 6-16 4-36-5-44-16-35-42 34-15 40-17 52-7 52 8 0 19-11 25-25zm442-54c-10-20-47-37-57-28-8 8 35 47 52 47 12 0 13-4 5-19zm-504-102c-3-34-21-107-40-163s-37-127-41-159c-4-38-14-66-26-78-25-25-43-24-36 1 9 35-10 22-84-59-67-74-96-98-106-87-6 5 28 59 101 160 97 135 153 256 202 434 2 6 11 12 20 12 15 0 16-8 10-61zm432-27 3-82-33 7c-18 3-41 12-50 20-10 10-27 13-45 9-15-3-35-2-43 4-13 8-13 11 0 25 27 26 144 103 155 100 6-1 11-38 13-83zm-64-118c21-8 46-14 56-14 14 0 18-12 23-60 7-65 32-143 91-282 24-57 39-110 43-155 7-80 14-87 100-103 39-8 91-29 140-57 154-88 193-105 252-107 46-1 69-9 129-46 55-32 99-49 173-66 115-26 141-40 167-91l19-36 16 24c10 13 17 34 17 46 0 39-75 109-161 152-66 33-76 41-63 52 12 10 25 10 63 0 29-7 99-11 182-9l134 3 74-47c73-47 131-62 131-35-1 30-41 97-74 122-50 38-150 72-264 91-53 8-98 17-100 19-6 6 46 37 86 51 56 20 196 17 262-6 30-10 57-17 59-14 8 8-20 50-42 63-30 19-188 45-277 45-44 1-120-9-182-22-73-16-116-21-133-15l-26 8 26 35c42 57 86 75 187 75 84 0 86 1 70 18-33 37-75 51-147 51-98-1-140-15-247-86-161-106-184-112-301-77-55 16-99 24-137 24 0 0 7 35 15 77 8 43 18 128 21 188 6 90 10 110 21 105 45-17 313-77 398-89 22-4 94-11 160-16 151-13 201-27 295-86 104-65 162-89 323-135 165-48 202-65 322-154 50-36 133-93 186-125 53-33 138-97 189-144 51-46 115-95 142-108 49-23 58-34 136-171 24-44 28-77 12-108-8-14-7-22 7-33 10-8 29-24 43-35l25-21-28-25c-15-13-42-28-60-32-17-5-374-8-792-7-583 1-809 5-970 17-491 37-568 40-970 33-220-4-483-11-585-16-336-17-1054-25-1046-12 4 7 18 12 31 12s27 5 30 10c11 18-72 11-217-20-172-37-182-37-144-5 31 25 34 26 130 45 64 13 61 23-9 34-50 8-129-10-267-60-58-22-110-36-114-32-13 13 17 37 67 53 27 9 47 20 44 25-11 17-61 17-143-1-128-28-129-28-137 31-8 56-22 65-32 20-8-44-18-44-38 0-24 54-56 81-104 87-46 6-50-1-20-33 18-19 20-30 15-68-5-30-14-49-27-56-17-10-19-7-19 27 0 55-31 100-78 113-31 8-102 5-102-5 0-1 13-26 30-56 26-48 41-119 24-119-3 0-27 22-53 50-34 36-55 50-74 50-33 0-37-28-7-55 11-10 20-27 20-38 0-18-4-19-42-11-105 20-193 1-122-27 23-8 25-12 14-19-17-11-87-12-113-1-16 6-6 18 60 78 96 86 125 128 153 215 29 90 56 112 153 126 117 18 224-4 572-118 239-79 320-100 386-100 26 0 96-10 155-21 88-18 130-20 219-16 282 15 438 73 814 298l186 112 97 123c187 236 279 405 319 584 29 133 34 142 78 134 20-4 53-13 75-20zm-776-411c-30-71-90-98-203-91-87 6-114 21-69 39 16 6 73 22 128 35 54 13 106 29 115 34 32 18 42 12 29-17zm-8-72c0-6-4-13-10-16-5-3-10 1-10 9 0 9 5 16 10 16 6 0 10-4 10-9z"/>
  <path d="m4432 5564c5-27 37-42 48-24 18 27 11 40-21 40-23 0-30-4-27-16z"/>
  <path d="m4873 4329c-30-19-63-83-49-96 9-10 44 27 70 74 28 48 25 51-21 22z"/>
  <path d="m4724 4253c-28-31-37-57-32-103 5-52 24-46 37 12 6 30 20 68 31 86 17 27 17 32 4 32-8 0-26-12-40-27z"/>
  <path d="m4660 4025c0-17 39-60 47-52 9 10-8 47-28 57-15 8-19 7-19-5z"/>
  <path d="m3777 4696c-45-16-111-60-97-64 12-4 107 39 135 62 24 19 12 20-38 2z"/>
  <path d="m4644 3415c-36-31-37-34-16-35 37 0 14-20-24-20-31 0-34-2-24-19 5-11 10-32 10-48 0-15 5-35 10-43 8-13 13-12 37 6 41 31 64 76 70 139 7 67-5 71-63 20zm46-59c0-20-19-31-32-18-6 6-7 15-4 21 10 16 36 13 36-3zm-30-60c0-11-19-15-25-6-3 5 1 10 9 10 9 0 16-2 16-4z"/>
  <path d="m5154 3315c-3-8-1-30 6-50 19-58-4-89-30-40-18 33-44 34-36 0 11-45 25-75 35-75 13 0 57 76 65 113 4 16 4 37 1 48-7 22-33 25-41 4z"/>
  <path d="m6050 3998c0-13-11-68-25-123-24-98-31-201-16-239 7-18 8-18 14 5 4 13 7 40 7 59s9 91 20 160 22 131 23 139-4 16-10 18c-8 3-13-4-13-19z"/>
  <path d="m6013 3418c4-59 18-198 32-310 15-111 29-273 32-358 5-138 3-163-15-230-12-41-19-85-16-96 4-14-4-37-20-63-35-55-52-99-80-211-23-91-25-95-52-98-47-5-58-11-46-25 7-8 25-11 48-9 31 4 39 10 54 46 10 22 28 82 40 131 24 98 41 138 73 173 20 21 21 37 25 240 4 178 0 269-22 507-35 389-36 394-48 401-8 5-9-23-5-98z"/>
  <path d="m6222 3303c-1-75 8-190 28-347 31-245 38-374 27-516l-7-85 20 40c19 38 20 56 17 300-4 260-4 260-37 375-25 85-35 145-40 230l-7 115z"/>
  <path d="m6147 3303c2-37 11-129 19-203s22-200 30-280c17-158 14-363-6-462-10-46-17-59-39-68-52-21-78-103-47-145 12-17 14-16 26 20 7 21 34 73 61 117 59 97 66 140 50 313-6 69-11 155-11 192 0 36-13 161-30 277-16 116-31 231-32 255-2 25-8 46-14 48-8 3-10-16-7-64z"/>
  <path d="m6080 3303c0-11 7-83 14-159 31-297 39-474 27-630l-11-149-45-42c-35-33-45-49-45-75 0-18-5-52-10-76-7-30-7-49 1-64 11-20 12-20 21-3 6 10 14 50 19 89 9 88 25 125 56 132 25 7 28 14 42 114 19 130 23 248 11 389-14 178-57 472-70 485-7 7-10 3-10-11z"/>
  <path d="m6222 2257c-17-39-32-78-32-84 0-14 39-17 55-5 8 5 19 162 12 162-1 0-17-33-35-73z"/>
  <path d="m6161 3967c-6-16-13-47-17-70-3-23-8-53-10-67-5-23-4-24 11-9 16 16 40 139 32 162-3 6-10-1-16-16z"/>
  <path d="m6127 3723c-10-10-8-53 2-53s21 24 21 46c0 15-12 19-23 7z"/>
  <path d="m2284 2785c-16-24-16-27 2-41 18-15 17-15-8-9-23 4-28 2-28-14 0-21 44-61 66-61 7 0 21 11 30 25 14 21 14 32 4 75-14 58-38 67-66 25z"/>
  <path d="m2517 2668c-38-52-40-66-10-104 38-51 58-59 83-34 19 19 21 28 14 88-3 37-12 70-18 74-23 15-46 7-69-24z"/>
  <path d="m2093 2673c-18-7-16-32 2-39 21-9 8-24-21-24-28 0-32-21-8-44 23-23 50-19 73 10 24 31 26 43 9 79-11 24-28 30-55 18z"/>
  <path d="m2347 2579c-10-6-28-33-42-61l-24-50 27-24c34-29 68-31 77-3 4 11 1 42-5 70-7 27-9 56-6 64 6 17-2 19-27 4z"/>
  <path d="m8084 6574c-4-26-4-84-1-130 6-95 28-139 80-152 34-9 87-4 87 8 0 4-36 78-79 164l-80 156z"/>
  <path d="m8130 6605c0-8 9-15 19-15 23 0 37-16 19-22-8-3 2-33 31-94 49-101 75-134 107-134 21 0 28 11 48 74 11 34-15 100-54 137-55 53-170 89-170 54z"/>
  <path d="m6670 6578c-19-5-40-15-46-21-15-16-54-134-54-164 0-20 4-22 25-17 20 5 24 3 19-10-5-14 6-16 88-16 80 0 95-3 105-19 7-11 28-20 54-24 23-3 49-13 58-22 15-16 14-17-14-11-101 21-98 21-90-5 13-45 60-103 108-133 41-25 60-30 130-33 140-6 211 32 175 93-7 12-25 44-41 73-31 59-83 97-143 107-23 3-83 1-133-6-51-6-95-10-97-7-3 3 18 31 48 64l53 58-30 3c-21 2-35 12-47 32-30 53-100 77-168 58zm140-108c-35-28-121-70-142-70-31 0-20 19 24 41 91 46 162 64 118 29zm345-262 50-29-40 6c-60 10-154 52-129 57 30 8 65-2 119-34z"/>
  <path d="m4932 6537c-5-7-13-29-16-51-4-21-12-46-18-56-17-27 0-88 36-128 31-33 39-36 99-40 54-4 75 0 121 21 51 24 56 29 56 58 0 54-38 118-89 150-64 41-172 67-189 46zm36-49c-6-18-28-21-28-4 0 9 7 16 16 16s14-5 12-12zm97-18c3-5-3-10-14-10-12 0-21 5-21 10 0 6 6 10 14 10s18-4 21-10zm-48-53c6-4 18-5 25-2 8 3 22-3 32-14s34-25 52-31c35-12 46-30 19-30-9 0-34 9-57 21-25 13-49 18-64 15-13-4-24-2-24 4 0 5-11 12-25 16-34 8-32 32 3 30 15-1 32-5 39-9z"/>
  <path d="m3415 6487c-59-29-78-49-95-101-17-54-1-104 62-189 48-65 50-69 33-87-15-17-20-17-57-4-22 8-65 28-94 45-54 30-54 31-54 80 0 72-29 122-85 149-34 17-57 21-87 17-32-4-47-1-69 15-36 27-120 34-174 16-28-9-45-23-56-46-9-18-29-51-44-73l-27-41 29-32c16-17 44-50 61-72 41-54 79-70 126-54 31 10 39 9 65-11 20-14 50-24 85-27 45-4 62 0 103 22l48 27 57-31c54-29 74-52 62-71-3-5-11-9-18-9-8 0-19-7-26-15-18-22 13-20 52 3 25 14 29 22 25 48-5 30-5 30 41 30 44-1 48 1 64 33 22 43 38 60 38 40 0-25-69-107-95-113-28-7-94-86-72-86 7 0 22 9 32 20 22 25 58 25 110 1 50-22 61-36 70-86 12-71 100-135 185-135 50 1 110 37 126 77 24 57 13 104-46 192-40 59-50 82-46 103 7 36-12 46-20 11-10-40-23-53-53-53-14 0-53-13-87-29-63-30-103-31-124-6-8 10-5 26 14 62 14 26 26 57 26 68 0 13 12 26 32 35 18 8 45 32 62 53 26 32 31 49 34 106 4 64 2 70-25 101-41 46-115 52-188 17zm149-56c57-98-11-235-109-217-79 15-116 112-79 205 14 36 20 40 57 44 92 9 110 4 131-32zm-651-42c45-12 48-32 11-95-23-39-25-51-19-101l7-56-42 6c-67 9-105 56-119 147-9 57 0 77 43 96 38 16 69 17 119 3zm183-54c87-36 107-133 42-202-44-47-135-38-183 18-49 59-22 168 47 188 47 13 54 13 94-4zm652-324c38-27 62-78 62-131 0-112-141-138-223-41-32 38-43 100-25 138 29 61 124 79 186 34z"/>
  <path d="m1750 6480c-19-11-43-19-54-20-17 0-18-5-12-47 14-104 106-178 220-178 60 0 135 27 143 52 4 10-86 34-138 35-18 1-37-5-43-13-12-15-66-14-66 2 0 5 12 14 28 20l27 11-33 12c-29 10-51 30-52 46 0 3 28 5 63 5 51-1 62-4 61-18-2-17 1-18 84-37 59-14 67-11 57 19-31 98-193 161-285 111zm225-88c0-18-20-15-23 4-3 10 1 15 10 12 7-3 13-10 13-16z"/>
  <path d="m3852 6485c-114-35-176-143-141-244 7-21 17-31 27-29 25 5 71 78 84 136 7 28 18 52 25 52s23 16 35 35c13 19 29 35 35 35 17 0 5-31-68-167-33-62-57-113-52-113 4 0 38 22 74 49 84 62 125 135 115 205-5 34-12 45-29 50-32 8-56 6-105-9z"/>
  <path d="m2437 6446c-54-15-91-39-120-78l-19-26 33-30c81-73 192-101 251-64l33 21-65 29c-36 17-83 35-105 41-42 11-90 40-67 41 7 0 61-16 121-35 114-37 141-42 141-25 0 22-41 90-54 90-7 0-30 11-50 25-42 28-36 28-99 11z"/>
  <path d="m7795 6313c15-83 66-147 145-182 65-29 113-28 139 5 12 15 21 30 21 34s-23 10-51 14c-52 7-109 31-162 68-46 33-24 32 60-3 88-36 163-52 163-35s-33 63-62 85c-43 34-105 51-185 51h-75z"/>
  <path d="m2100 6305c14-17 89-40 98-30 13 12-43 45-77 45-29 0-32-2-21-15z"/>
  <path d="m5267 6289c-107-25-218-121-164-142 7-3 5-6-5-6-27-1-21-26 10-41 39-19 191-25 238-10 42 14 84 46 84 66 0 9-36 11-147 7-199-6-151 19 80 43 37 3 67 9 67 13 0 13-55 60-83 70-32 12-28 12-80 0z"/>
  <path d="m9769 6256c-53-19-109-56-109-72 0-19 35-18 64 1 17 12 30 13 49 6 14-6 50-9 81-8 40 1 60-3 72-15 16-15 9-16-104-15-66 1-123-1-127-5-13-13 24-57 68-80 56-28 190-37 233-15 39 20 70 55 58 67-5 5-29 10-53 12-46 3-66 23-36 35 10 3 33 0 52-6 19-7 37-10 40-7 13 12-36 71-76 93-51 27-151 31-212 9z"/>
  <path d="m2172 6225c-34-18-63-42-79-66-29-44-28-49 13-52 25-2 29 2 32 26 4 32 18 35 27 6 6-17 12-20 33-15 15 3 64 10 109 15 80 9 123 23 123 40s-103 63-153 67c-43 5-61 1-105-21zm38-69c0-2-7-6-15-10-8-3-15-1-15 4 0 6 7 10 15 10s15-2 15-4z"/>
  <path d="m3955 6231c-50-12-103-41-135-74-30-31-41-70-17-62 41 15 188 33 213 26 26-7 22-9-36-19-36-6-86-14-113-18-26-3-50-10-53-15-7-12 51-46 90-53 59-11 251 50 248 79-1 6-20 15-43 20-23 6-44 16-47 23-4 14-2 14 57 3 75-15 92 5 44 51-16 15-41 32-56 37-31 12-106 13-152 2z"/>
  <path d="m2550 6182c-50-25-89-86-97-152l-6-55 54 45c29 25 71 63 92 84 22 23 48 40 63 41 13 0 31 8 41 17 15 16 15 18-11 28-41 15-97 12-136-8z"/>
  <path d="m6710 6171c0-11 9-48 20-83 21-66 26-138 11-138-5 0-12 12-15 28-3 15-10 53-16 85-7 33-22 69-35 85l-23 26-22-74c-45-148-27-209 80-272 36-21 72-38 82-38 9 0 25 18 37 43 51 106 2 295-89 342-28 15-30 14-30-4zm83-306c5-31-13-28-24 3-6 16-5 22 5 22 8 0 16-11 19-25z"/>
  <path d="m2374 6125c-16-7-85-19-152-26s-122-16-122-19c0-30 117-80 186-80 83 0 151 53 142 112-4 27-15 30-54 13z"/>
  <path d="m2705 6132c-31-6-63-41-71-75-6-28-8-29-19-13-12 16-18 13-76-33-35-28-67-58-72-67-7-13-3-14 27-8 36 6 36 6 36-29 0-43-11-47-135-47-74 0-99-4-135-22-43-22-45-26-54-78-15-99 22-180 93-201 35-10 45-9 97 15 111 51 136 100 99 191l-16 37 46 42c35 33 45 49 45 74 0 27 6 35 38 51 50 26 108 90 117 131 8 36 7 38-20 32zm-296-318c58-48 66-150 16-200-26-26-90-33-126-14-61 33-75 199-19 227 42 21 95 16 129-13z"/>
  <path d="m2802 6049c-51-25-86-69-113-139-31-81-26-87 38-41 98 69 223 185 210 193-23 15-92 8-135-13z"/>
  <path d="m7890 6044c-44-9-124-36-144-50-18-12-18-14-2-20 10-4 35-2 55 5 66 19 93 13 37-9-60-23-76-37-53-46 9-3 42 4 74 16 48 18 70 20 124 15 51-5 68-4 78 8 10 13 6 17-24 27-39 13-38 34 1 24 27-7 33 10 7 20-23 9-123 15-153 10zm75-44c-3-5-17-10-31-10-13 0-24 5-24 10 0 6 14 10 31 10s28-4 24-10z"/>
  <path d="m4390 6033c-88-9-162-25-221-49-58-24-73-26-161-21-95 5-131-4-67-17 59-11 165-6 274 14 60 11 118 20 129 19 44-1-123-50-191-56-40-3-73-9-73-14 0-4 16-13 36-19 49-16 118-6 212 32 98 39 222 48 325 24 84-20 77-20 77 5 0 12-15 36-34 55l-34 34-118-2c-66 0-135-3-154-5zm214-29c32-12 15-19-39-16-30 2-53 8-49 13 6 10 64 12 88 3z"/>
  <path d="m2922 5979c-29-26-86-71-127-100-41-28-75-55-75-60 0-4 28-6 63-3 78 5 161 44 188 88 19 30 26 110 12 119-5 3-32-17-61-44z"/>
  <path d="m9852 5993c-17-3-21-9-17-24 8-25-7-24-30 1-28 31-34 12-25-73 17-147 81-217 198-217 29 0 52 5 52 10 0 29-45 93-98 138-53 46-93 104-80 117 11 12 83-53 126-114 56-80 98-131 108-131 3 0 5 33 2 73-6 87-43 166-93 197-33 21-103 32-143 23z"/>
  <path d="m3095 5908c-44-22-93-52-109-67-57-52-90-171-47-171 11 0 21-5 23-11 2-7 33 0 85 20 94 37 167 95 194 156 21 45 24 85 8 85-7 0-55-42-108-93-101-99-137-127-159-127-18 0 83 110 149 162 97 76 76 102-36 46z"/>
  <path d="m3870 5920c0-5 11-12 25-16 20-5 25-12 25-38 0-22 12-46 41-81 71-86 78-111 53-202-13-47 15-21 35 31 44 117 36 213-20 260-17 14-41 26-54 26-18 0-23 4-19 15 5 12-3 15-40 15-25 0-46-4-46-10z"/>
  <path d="m3855 5807c-8-20-15-51-15-69 0-47 41-127 88-172 39-37 41-37 51-18 26 49 5 159-38 207-11 11-21 28-23 39-1 10-13 25-26 34-21 14-23 13-37-21zm97-167c-6-39-22-39-19 0 1 16 7 30 13 30s9-13 6-30z"/>
  <path d="m1952 5807c-73-23-167-138-126-154 13-5 10-10-13-29-28-22-28-23-8-38 11-8 48-25 81-36l61-21 89 45c79 40 125 79 110 93-2 3-36 0-75-6-87-14-188-14-196-1-7 12 19 17 124 25 126 9 168 38 124 87-38 44-104 57-171 35z"/>
  <path d="m3366 5744c-122-38-188-116-165-197 18-64 17-64 133-18 58 24 126 58 153 77 45 32 93 94 93 122 0 18-34 15-84-10-40-19-45-25-40-47 6-25 6-25-9-7-14 19-17 18-71-31-86-76-146-117-146-99 0 8 16 24 36 37 24 15 34 27 31 39s0 16 12 14c9-3 42 18 76 47 33 29 74 60 90 71l30 18-45-1c-25 0-67-7-94-15zm-101-134c3-5-1-10-9-10-9 0-16 5-16 10 0 6 4 10 9 10 6 0 13-4 16-10z"/>
  <path d="m3631 5696c-19-6-43-23-54-38-27-36-16-102 27-165 31-44 91-92 102-81 3 3-5 31-17 62-11 32-19 69-16 82 3 19 1 24-10 20-21-9-29 25-9 40 12 9 16 23 14 52l-3 40z"/>
  <path d="m3710 5672c0-61 10-83 32-77 18 6 18 5-2-27-15-25-20-50-20-103 1-65 2-69 16-50 35 45 57 103 62 162 6 73-9 105-57 121-31 11-31 11-31-26zm50-22c0-5-7-10-15-10s-15 5-15 10c0 6 7 10 15 10s15-4 15-10z"/>
  <path d="m2351 5516c-37-21-61-43-74-69-43-83-27-179 36-217 62-38 65-34 62 99-1 66 1 125 5 132 19 29 31-188 15-260-8-37 10-41 29-5 6 10 26 43 45 72 57 88 53 169-13 240-36 40-47 41-105 8z"/>
  <path d="m2076 5505c-117-34-185-73-209-118-25-48-17-104 17-117 13-5 26-15 29-24 14-35 141 17 200 83 39 43 70 98 81 144 6 26 5 27-13 18-11-6-33-30-48-53-16-24-36-43-45-43s-24-10-34-22c-11-12-46-38-78-59l-59-37 22 36c12 19 20 41 19 48-2 8 7 13 22 13 26 1 27 5 15 44-8 26 9 30 24 5 7-13 13-15 18-7 5 7 17 13 27 15 11 2 21 10 24 18 3 10-1 12-17 8-11-3-21-2-21 3 0 13 29 20 61 13 30-6 58 15 59 45 0 15 3 15-94-13z"/>
  <path d="m8662 5260c-24-11-69-40-100-64-74-58-136-86-194-86h-48v-75c0-48 6-89 16-113 9-20 18-54 18-74 1-21 4-39 7-41 2-1 36-12 74-24 39-11 97-32 130-46 33-13 73-28 90-32 29-6 29-6 12 13-10 10-64 44-121 76-57 31-112 66-122 78l-19 21 80-7c136-11 279-61 396-139 70-47 105-62 161-72 64-10 235-7 280 6l43 12-50 9c-27 4-79 13-114 19-73 11-125 35-160 73l-24 26h56c31 0 58 4 61 9 6 8-95 41-126 41-9 0-24 8-34 18-9 9-40 31-68 48s-56 41-63 55c-12 23-10 24 20 31 18 4 120 5 227 1 108-3 218-2 245 2l50 8-41 18c-22 10-94 28-159 39-111 20-185 46-200 70-4 6 9 10 34 10 54 0 101 18 81 30-25 16-121 11-216-10-49-11-105-20-125-20-46 0-101 19-97 34 2 6 27 22 56 36 28 14 52 28 52 33 0 14-65 6-108-13z"/>
  <path d="m6057 4583c-6-9 39-221 76-358l11-40 4 31c6 62-75 393-91 367z"/>
 </g>
 <g transform="matrix(3.4815 0 0 3.5529 0 -156.95)" fill="#13315c">
  <g fill="#13315c">
   <g fill="#13315c">
    <path d="m0 133.29c0 10.372 5.591 16.469 10.878 20.891v31.47c-5.646 7.147-10.639 13.995-9.23 21.658 0.538 2.943 2.306 7.114 7.658 10.296 5.341 3.176 10.497 4.721 15.757 4.721 10.514 0 18.433-6.162 26.086-12.124 0.348-0.272 0.691-0.533 1.039-0.8h49.806c7.229 5.406 15.849 10.878 31.291 10.878 15.371 0 24.285-5.662 31.275-10.878h49.773c0.348 0.272 0.691 0.533 1.039 0.805 7.653 5.961 15.572 12.124 26.08 12.124 5.194 0 10.492-1.588 15.762-4.732 4.868-2.899 7.707-6.57 8.441-10.922 1.218-7.196-3.579-12.912-8.654-18.961-0.451-0.533-0.914-1.115-1.371-1.664v-31.742c5.352-4.928 10.878-11.449 10.878-21.093 0-10.372-5.591-16.469-10.878-20.891v-31.47c5.646-7.147 10.639-13.995 9.23-21.658-0.538-2.943-2.306-7.114-7.658-10.296-5.341-3.176-10.497-4.721-15.757-4.721-10.514 0-18.433 6.162-26.091 12.124-0.348 0.272-0.691 0.533-1.039 0.8h-49.8c-7.229-5.406-15.849-10.878-31.291-10.878-15.371 0-24.285 5.662-31.275 10.878h-49.772c-0.348-0.272-0.691-0.533-1.039-0.805-7.653-5.961-15.572-12.124-26.08-12.124-5.194 0-10.492 1.588-15.762 4.732-5.352 3.193-7.12 7.364-7.664 10.307-1.409 7.675 3.595 14.528 9.246 21.68v31.492c-5.287 4.428-10.878 10.525-10.878 20.903zm27.195 58.013v-117.88h212.12v119.66h-212.12z" fill="#13315c"/>
   </g>
  </g>
 </g>
</svg>
